%TF.GenerationSoftware,KiCad,Pcbnew,9.0.7-9.0.7~ubuntu24.04.1*%
%TF.CreationDate,2026-03-24T22:20:06-07:00*%
%TF.ProjectId,fimur-electrical-v0-2,66696d75-722d-4656-9c65-637472696361,rev?*%
%TF.SameCoordinates,Original*%
%TF.FileFunction,Soldermask,Top*%
%TF.FilePolarity,Negative*%
%FSLAX46Y46*%
G04 Gerber Fmt 4.6, Leading zero omitted, Abs format (unit mm)*
G04 Created by KiCad (PCBNEW 9.0.7-9.0.7~ubuntu24.04.1) date 2026-03-24 22:20:06*
%MOMM*%
%LPD*%
G01*
G04 APERTURE LIST*
G04 Aperture macros list*
%AMRoundRect*
0 Rectangle with rounded corners*
0 $1 Rounding radius*
0 $2 $3 $4 $5 $6 $7 $8 $9 X,Y pos of 4 corners*
0 Add a 4 corners polygon primitive as box body*
4,1,4,$2,$3,$4,$5,$6,$7,$8,$9,$2,$3,0*
0 Add four circle primitives for the rounded corners*
1,1,$1+$1,$2,$3*
1,1,$1+$1,$4,$5*
1,1,$1+$1,$6,$7*
1,1,$1+$1,$8,$9*
0 Add four rect primitives between the rounded corners*
20,1,$1+$1,$2,$3,$4,$5,0*
20,1,$1+$1,$4,$5,$6,$7,0*
20,1,$1+$1,$6,$7,$8,$9,0*
20,1,$1+$1,$8,$9,$2,$3,0*%
G04 Aperture macros list end*
%ADD10C,3.200000*%
%ADD11C,2.000000*%
%ADD12RoundRect,0.150000X-0.625000X0.150000X-0.625000X-0.150000X0.625000X-0.150000X0.625000X0.150000X0*%
%ADD13RoundRect,0.250000X-0.650000X0.350000X-0.650000X-0.350000X0.650000X-0.350000X0.650000X0.350000X0*%
%ADD14R,1.700000X1.700000*%
%ADD15C,1.700000*%
%ADD16C,2.200000*%
%ADD17RoundRect,0.250000X-0.625000X0.312500X-0.625000X-0.312500X0.625000X-0.312500X0.625000X0.312500X0*%
%ADD18RoundRect,0.100000X0.100000X-0.637500X0.100000X0.637500X-0.100000X0.637500X-0.100000X-0.637500X0*%
%ADD19RoundRect,0.150000X0.150000X0.625000X-0.150000X0.625000X-0.150000X-0.625000X0.150000X-0.625000X0*%
%ADD20RoundRect,0.250000X0.350000X0.650000X-0.350000X0.650000X-0.350000X-0.650000X0.350000X-0.650000X0*%
%ADD21RoundRect,0.250000X-0.312500X-0.625000X0.312500X-0.625000X0.312500X0.625000X-0.312500X0.625000X0*%
%ADD22RoundRect,0.150000X-0.150000X-0.625000X0.150000X-0.625000X0.150000X0.625000X-0.150000X0.625000X0*%
%ADD23RoundRect,0.250000X-0.350000X-0.650000X0.350000X-0.650000X0.350000X0.650000X-0.350000X0.650000X0*%
G04 APERTURE END LIST*
D10*
%TO.C,REF\u002A\u002A*%
X117000000Y-131500000D03*
%TD*%
%TO.C,REF\u002A\u002A*%
X137000000Y-91500000D03*
%TD*%
D11*
%TO.C,VCC*%
X152500000Y-127500000D03*
%TD*%
D12*
%TO.C,J7*%
X93375000Y-114800000D03*
X93375000Y-115800000D03*
X93375000Y-116800000D03*
X93375000Y-117800000D03*
D13*
X89500000Y-113500000D03*
X89500000Y-119100000D03*
%TD*%
D14*
%TO.C,J5*%
X152000000Y-100400000D03*
D15*
X154540000Y-100400000D03*
X157080000Y-100400000D03*
%TD*%
D10*
%TO.C,REF\u002A\u002A*%
X137000000Y-111500000D03*
%TD*%
D16*
%TO.C,REF\u002A\u002A*%
X147160000Y-117850000D03*
%TD*%
D12*
%TO.C,J8*%
X93500000Y-124700000D03*
X93500000Y-125700000D03*
X93500000Y-126700000D03*
X93500000Y-127700000D03*
D13*
X89625000Y-123400000D03*
X89625000Y-129000000D03*
%TD*%
D16*
%TO.C,REF\u002A\u002A*%
X126840000Y-105150000D03*
%TD*%
%TO.C,REF\u002A\u002A*%
X147160000Y-105150000D03*
%TD*%
D11*
%TO.C,GND*%
X152500000Y-119000000D03*
%TD*%
D10*
%TO.C,REF\u002A\u002A*%
X97000000Y-111500000D03*
%TD*%
%TO.C,REF\u002A\u002A*%
X117000000Y-91500000D03*
%TD*%
%TO.C,REF\u002A\u002A*%
X157000000Y-131500000D03*
%TD*%
D14*
%TO.C,J2*%
X138150000Y-122860000D03*
D15*
X135610000Y-122860000D03*
X133070000Y-122860000D03*
X130530000Y-122860000D03*
X127990000Y-122860000D03*
X125450000Y-122860000D03*
X122910000Y-122860000D03*
X120370000Y-122860000D03*
X117830000Y-122860000D03*
X115290000Y-122860000D03*
X112750000Y-122860000D03*
X110210000Y-122860000D03*
X107670000Y-122860000D03*
X105130000Y-122860000D03*
X102590000Y-122860000D03*
X100050000Y-122860000D03*
%TD*%
D10*
%TO.C,REF\u002A\u002A*%
X137000000Y-131500000D03*
%TD*%
D17*
%TO.C,R1*%
X142500000Y-116537500D03*
X142500000Y-119462500D03*
%TD*%
D18*
%TO.C,U1*%
X114896000Y-114225000D03*
X115546000Y-114225000D03*
X116196000Y-114225000D03*
X116846000Y-114225000D03*
X117496000Y-114225000D03*
X118146000Y-114225000D03*
X118796000Y-114225000D03*
X119446000Y-114225000D03*
X120096000Y-114225000D03*
X120746000Y-114225000D03*
X121396000Y-114225000D03*
X122046000Y-114225000D03*
X122046000Y-108500000D03*
X121396000Y-108500000D03*
X120746000Y-108500000D03*
X120096000Y-108500000D03*
X119446000Y-108500000D03*
X118796000Y-108500000D03*
X118146000Y-108500000D03*
X117496000Y-108500000D03*
X116846000Y-108500000D03*
X116196000Y-108500000D03*
X115546000Y-108500000D03*
X114896000Y-108500000D03*
%TD*%
D19*
%TO.C,J12*%
X148500000Y-93000000D03*
X147500000Y-93000000D03*
X146500000Y-93000000D03*
X145500000Y-93000000D03*
D20*
X149800000Y-89125000D03*
X144200000Y-89125000D03*
%TD*%
D21*
%TO.C,R3*%
X110537500Y-114000000D03*
X113462500Y-114000000D03*
%TD*%
D14*
%TO.C,J4*%
X152000000Y-105000000D03*
D15*
X154540000Y-105000000D03*
X157080000Y-105000000D03*
%TD*%
D12*
%TO.C,J15*%
X93375000Y-95300000D03*
X93375000Y-96300000D03*
X93375000Y-97300000D03*
X93375000Y-98300000D03*
D13*
X89500000Y-94000000D03*
X89500000Y-99600000D03*
%TD*%
D16*
%TO.C,REF\u002A\u002A*%
X126840000Y-117850000D03*
%TD*%
D17*
%TO.C,R2*%
X140000000Y-116537500D03*
X140000000Y-119462500D03*
%TD*%
D10*
%TO.C,REF\u002A\u002A*%
X97000000Y-91500000D03*
%TD*%
D22*
%TO.C,J10*%
X125500000Y-129000000D03*
X126500000Y-129000000D03*
X127500000Y-129000000D03*
X128500000Y-129000000D03*
D23*
X124200000Y-132875000D03*
X129800000Y-132875000D03*
%TD*%
D14*
%TO.C,J1*%
X138150000Y-100000000D03*
D15*
X135610000Y-100000000D03*
X133070000Y-100000000D03*
X130530000Y-100000000D03*
X127990000Y-100000000D03*
X125450000Y-100000000D03*
X122910000Y-100000000D03*
X120370000Y-100000000D03*
X117830000Y-100000000D03*
X115290000Y-100000000D03*
X112750000Y-100000000D03*
X110210000Y-100000000D03*
X107670000Y-100000000D03*
X105130000Y-100000000D03*
X102590000Y-100000000D03*
X100050000Y-100000000D03*
%TD*%
D14*
%TO.C,J3*%
X152000000Y-109600000D03*
D15*
X154540000Y-109600000D03*
X157080000Y-109600000D03*
%TD*%
D22*
%TO.C,J9*%
X105500000Y-129125000D03*
X106500000Y-129125000D03*
X107500000Y-129125000D03*
X108500000Y-129125000D03*
D23*
X104200000Y-133000000D03*
X109800000Y-133000000D03*
%TD*%
D22*
%TO.C,J11*%
X145500000Y-129000000D03*
X146500000Y-129000000D03*
X147500000Y-129000000D03*
X148500000Y-129000000D03*
D23*
X144200000Y-132875000D03*
X149800000Y-132875000D03*
%TD*%
D12*
%TO.C,J6*%
X93375000Y-104800000D03*
X93375000Y-105800000D03*
X93375000Y-106800000D03*
X93375000Y-107800000D03*
D13*
X89500000Y-103500000D03*
X89500000Y-109100000D03*
%TD*%
D19*
%TO.C,J14*%
X108500000Y-93000000D03*
X107500000Y-93000000D03*
X106500000Y-93000000D03*
X105500000Y-93000000D03*
D20*
X109800000Y-89125000D03*
X104200000Y-89125000D03*
%TD*%
D10*
%TO.C,REF\u002A\u002A*%
X157000000Y-91500000D03*
%TD*%
D14*
%TO.C,J16*%
X154500000Y-114980000D03*
D15*
X157040000Y-114980000D03*
%TD*%
D10*
%TO.C,REF\u002A\u002A*%
X97000000Y-131500000D03*
%TD*%
D19*
%TO.C,J13*%
X128500000Y-93000000D03*
X127500000Y-93000000D03*
X126500000Y-93000000D03*
X125500000Y-93000000D03*
D20*
X129800000Y-89125000D03*
X124200000Y-89125000D03*
%TD*%
M02*
