M48
; DRILL file {KiCad 9.0.7-9.0.7~ubuntu24.04.1} date 2026-03-24T22:20:02-0700
; FORMAT={-:-/ absolute / metric / decimal}
; #@! TF.CreationDate,2026-03-24T22:20:02-07:00
; #@! TF.GenerationSoftware,Kicad,Pcbnew,9.0.7-9.0.7~ubuntu24.04.1
; #@! TF.FileFunction,Plated,1,2,PTH
FMAT,2
METRIC
; #@! TA.AperFunction,Plated,PTH,ViaDrill
T1C0.300
; #@! TA.AperFunction,Plated,PTH,ComponentDrill
T2C1.000
%
G90
G05
T1
X93.75Y-113.75
X94.0Y-94.3
X94.0Y-103.5
X94.0Y-123.5
X104.5Y-128.5
X109.5Y-93.5
X113.0Y-110.0
X115.5Y-111.0
X122.075Y-115.575
X124.0Y-113.5
X124.5Y-128.5
X124.75Y-112.75
X129.5Y-93.5
X144.5Y-128.5
X149.5Y-93.5
T2
X100.05Y-100.0
X100.05Y-122.86
X102.59Y-100.0
X102.59Y-122.86
X105.13Y-100.0
X105.13Y-122.86
X107.67Y-100.0
X107.67Y-122.86
X110.21Y-100.0
X110.21Y-122.86
X112.75Y-100.0
X112.75Y-122.86
X115.29Y-100.0
X115.29Y-122.86
X117.83Y-100.0
X117.83Y-122.86
X120.37Y-100.0
X120.37Y-122.86
X122.91Y-100.0
X122.91Y-122.86
X125.45Y-100.0
X125.45Y-122.86
X127.99Y-100.0
X127.99Y-122.86
X130.53Y-100.0
X130.53Y-122.86
X133.07Y-100.0
X133.07Y-122.86
X135.61Y-100.0
X135.61Y-122.86
X138.15Y-100.0
X138.15Y-122.86
X152.0Y-100.4
X152.0Y-105.0
X152.0Y-109.6
X152.5Y-119.0
X152.5Y-127.5
X154.5Y-114.98
X154.54Y-100.4
X154.54Y-105.0
X154.54Y-109.6
X157.04Y-114.98
X157.08Y-100.4
X157.08Y-105.0
X157.08Y-109.6
M30
