%TF.GenerationSoftware,KiCad,Pcbnew,9.0.7-9.0.7~ubuntu24.04.1*%
%TF.CreationDate,2026-03-24T22:20:06-07:00*%
%TF.ProjectId,fimur-electrical-v0-2,66696d75-722d-4656-9c65-637472696361,rev?*%
%TF.SameCoordinates,Original*%
%TF.FileFunction,Paste,Top*%
%TF.FilePolarity,Positive*%
%FSLAX46Y46*%
G04 Gerber Fmt 4.6, Leading zero omitted, Abs format (unit mm)*
G04 Created by KiCad (PCBNEW 9.0.7-9.0.7~ubuntu24.04.1) date 2026-03-24 22:20:06*
%MOMM*%
%LPD*%
G01*
G04 APERTURE LIST*
G04 Aperture macros list*
%AMRoundRect*
0 Rectangle with rounded corners*
0 $1 Rounding radius*
0 $2 $3 $4 $5 $6 $7 $8 $9 X,Y pos of 4 corners*
0 Add a 4 corners polygon primitive as box body*
4,1,4,$2,$3,$4,$5,$6,$7,$8,$9,$2,$3,0*
0 Add four circle primitives for the rounded corners*
1,1,$1+$1,$2,$3*
1,1,$1+$1,$4,$5*
1,1,$1+$1,$6,$7*
1,1,$1+$1,$8,$9*
0 Add four rect primitives between the rounded corners*
20,1,$1+$1,$2,$3,$4,$5,0*
20,1,$1+$1,$4,$5,$6,$7,0*
20,1,$1+$1,$6,$7,$8,$9,0*
20,1,$1+$1,$8,$9,$2,$3,0*%
G04 Aperture macros list end*
%ADD10RoundRect,0.150000X-0.625000X0.150000X-0.625000X-0.150000X0.625000X-0.150000X0.625000X0.150000X0*%
%ADD11RoundRect,0.250000X-0.650000X0.350000X-0.650000X-0.350000X0.650000X-0.350000X0.650000X0.350000X0*%
%ADD12RoundRect,0.250000X-0.625000X0.312500X-0.625000X-0.312500X0.625000X-0.312500X0.625000X0.312500X0*%
%ADD13RoundRect,0.100000X0.100000X-0.637500X0.100000X0.637500X-0.100000X0.637500X-0.100000X-0.637500X0*%
%ADD14RoundRect,0.150000X0.150000X0.625000X-0.150000X0.625000X-0.150000X-0.625000X0.150000X-0.625000X0*%
%ADD15RoundRect,0.250000X0.350000X0.650000X-0.350000X0.650000X-0.350000X-0.650000X0.350000X-0.650000X0*%
%ADD16RoundRect,0.250000X-0.312500X-0.625000X0.312500X-0.625000X0.312500X0.625000X-0.312500X0.625000X0*%
%ADD17RoundRect,0.150000X-0.150000X-0.625000X0.150000X-0.625000X0.150000X0.625000X-0.150000X0.625000X0*%
%ADD18RoundRect,0.250000X-0.350000X-0.650000X0.350000X-0.650000X0.350000X0.650000X-0.350000X0.650000X0*%
G04 APERTURE END LIST*
D10*
%TO.C,J7*%
X93375000Y-114800000D03*
X93375000Y-115800000D03*
X93375000Y-116800000D03*
X93375000Y-117800000D03*
D11*
X89500000Y-113500000D03*
X89500000Y-119100000D03*
%TD*%
D10*
%TO.C,J8*%
X93500000Y-124700000D03*
X93500000Y-125700000D03*
X93500000Y-126700000D03*
X93500000Y-127700000D03*
D11*
X89625000Y-123400000D03*
X89625000Y-129000000D03*
%TD*%
D12*
%TO.C,R1*%
X142500000Y-116537500D03*
X142500000Y-119462500D03*
%TD*%
D13*
%TO.C,U1*%
X114896000Y-114225000D03*
X115546000Y-114225000D03*
X116196000Y-114225000D03*
X116846000Y-114225000D03*
X117496000Y-114225000D03*
X118146000Y-114225000D03*
X118796000Y-114225000D03*
X119446000Y-114225000D03*
X120096000Y-114225000D03*
X120746000Y-114225000D03*
X121396000Y-114225000D03*
X122046000Y-114225000D03*
X122046000Y-108500000D03*
X121396000Y-108500000D03*
X120746000Y-108500000D03*
X120096000Y-108500000D03*
X119446000Y-108500000D03*
X118796000Y-108500000D03*
X118146000Y-108500000D03*
X117496000Y-108500000D03*
X116846000Y-108500000D03*
X116196000Y-108500000D03*
X115546000Y-108500000D03*
X114896000Y-108500000D03*
%TD*%
D14*
%TO.C,J12*%
X148500000Y-93000000D03*
X147500000Y-93000000D03*
X146500000Y-93000000D03*
X145500000Y-93000000D03*
D15*
X149800000Y-89125000D03*
X144200000Y-89125000D03*
%TD*%
D16*
%TO.C,R3*%
X110537500Y-114000000D03*
X113462500Y-114000000D03*
%TD*%
D10*
%TO.C,J15*%
X93375000Y-95300000D03*
X93375000Y-96300000D03*
X93375000Y-97300000D03*
X93375000Y-98300000D03*
D11*
X89500000Y-94000000D03*
X89500000Y-99600000D03*
%TD*%
D12*
%TO.C,R2*%
X140000000Y-116537500D03*
X140000000Y-119462500D03*
%TD*%
D17*
%TO.C,J10*%
X125500000Y-129000000D03*
X126500000Y-129000000D03*
X127500000Y-129000000D03*
X128500000Y-129000000D03*
D18*
X124200000Y-132875000D03*
X129800000Y-132875000D03*
%TD*%
D17*
%TO.C,J9*%
X105500000Y-129125000D03*
X106500000Y-129125000D03*
X107500000Y-129125000D03*
X108500000Y-129125000D03*
D18*
X104200000Y-133000000D03*
X109800000Y-133000000D03*
%TD*%
D17*
%TO.C,J11*%
X145500000Y-129000000D03*
X146500000Y-129000000D03*
X147500000Y-129000000D03*
X148500000Y-129000000D03*
D18*
X144200000Y-132875000D03*
X149800000Y-132875000D03*
%TD*%
D10*
%TO.C,J6*%
X93375000Y-104800000D03*
X93375000Y-105800000D03*
X93375000Y-106800000D03*
X93375000Y-107800000D03*
D11*
X89500000Y-103500000D03*
X89500000Y-109100000D03*
%TD*%
D14*
%TO.C,J14*%
X108500000Y-93000000D03*
X107500000Y-93000000D03*
X106500000Y-93000000D03*
X105500000Y-93000000D03*
D15*
X109800000Y-89125000D03*
X104200000Y-89125000D03*
%TD*%
D14*
%TO.C,J13*%
X128500000Y-93000000D03*
X127500000Y-93000000D03*
X126500000Y-93000000D03*
X125500000Y-93000000D03*
D15*
X129800000Y-89125000D03*
X124200000Y-89125000D03*
%TD*%
M02*
