%TF.GenerationSoftware,KiCad,Pcbnew,9.0.7-9.0.7~ubuntu24.04.1*%
%TF.CreationDate,2026-03-24T22:20:06-07:00*%
%TF.ProjectId,fimur-electrical-v0-2,66696d75-722d-4656-9c65-637472696361,rev?*%
%TF.SameCoordinates,Original*%
%TF.FileFunction,Copper,L2,Bot*%
%TF.FilePolarity,Positive*%
%FSLAX46Y46*%
G04 Gerber Fmt 4.6, Leading zero omitted, Abs format (unit mm)*
G04 Created by KiCad (PCBNEW 9.0.7-9.0.7~ubuntu24.04.1) date 2026-03-24 22:20:06*
%MOMM*%
%LPD*%
G01*
G04 APERTURE LIST*
%TA.AperFunction,ComponentPad*%
%ADD10C,2.000000*%
%TD*%
%TA.AperFunction,ComponentPad*%
%ADD11R,1.700000X1.700000*%
%TD*%
%TA.AperFunction,ComponentPad*%
%ADD12C,1.700000*%
%TD*%
%TA.AperFunction,ViaPad*%
%ADD13C,0.600000*%
%TD*%
%TA.AperFunction,Conductor*%
%ADD14C,0.200000*%
%TD*%
G04 APERTURE END LIST*
D10*
%TO.P,VCC,1*%
%TO.N,VCC*%
X152500000Y-127500000D03*
%TD*%
D11*
%TO.P,J5,1,Pin_1*%
%TO.N,VCC*%
X152000000Y-100400000D03*
D12*
%TO.P,J5,2,Pin_2*%
%TO.N,Net-(J5-Pin_2)*%
X154540000Y-100400000D03*
%TO.P,J5,3,Pin_3*%
%TO.N,GND*%
X157080000Y-100400000D03*
%TD*%
D10*
%TO.P,GND,1*%
%TO.N,GND*%
X152500000Y-119000000D03*
%TD*%
D11*
%TO.P,J2,1,G*%
%TO.N,unconnected-(J2-G-Pad1)*%
X138150000Y-122860000D03*
D12*
%TO.P,J2,2,TX*%
%TO.N,unconnected-(J2-TX-Pad2)*%
X135610000Y-122860000D03*
%TO.P,J2,3,RX*%
%TO.N,unconnected-(J2-RX-Pad3)*%
X133070000Y-122860000D03*
%TO.P,J2,4,Pin_15*%
%TO.N,unconnected-(J2-Pin_15-Pad4)*%
X130530000Y-122860000D03*
%TO.P,J2,5,Pin_23*%
%TO.N,unconnected-(J2-Pin_23-Pad5)*%
X127990000Y-122860000D03*
%TO.P,J2,6,Pin_22*%
%TO.N,unconnected-(J2-Pin_22-Pad6)*%
X125450000Y-122860000D03*
%TO.P,J2,7,Pin_21*%
%TO.N,unconnected-(J2-Pin_21-Pad7)*%
X122910000Y-122860000D03*
%TO.P,J2,8,Pin_20*%
%TO.N,unconnected-(J2-Pin_20-Pad8)*%
X120370000Y-122860000D03*
%TO.P,J2,9,Pin_19*%
%TO.N,unconnected-(J2-Pin_19-Pad9)*%
X117830000Y-122860000D03*
%TO.P,J2,10,Pin_18*%
%TO.N,unconnected-(J2-Pin_18-Pad10)*%
X115290000Y-122860000D03*
%TO.P,J2,11,Pin_9*%
%TO.N,unconnected-(J2-Pin_9-Pad11)*%
X112750000Y-122860000D03*
%TO.P,J2,12,G*%
%TO.N,unconnected-(J2-G-Pad12)*%
X110210000Y-122860000D03*
%TO.P,J2,13,Pin_13*%
%TO.N,unconnected-(J2-Pin_13-Pad13)*%
X107670000Y-122860000D03*
%TO.P,J2,14,Pin_12*%
%TO.N,unconnected-(J2-Pin_12-Pad14)*%
X105130000Y-122860000D03*
%TO.P,J2,15,G*%
%TO.N,unconnected-(J2-G-Pad15)*%
X102590000Y-122860000D03*
%TO.P,J2,16,NC*%
%TO.N,unconnected-(J2-NC-Pad16)*%
X100050000Y-122860000D03*
%TD*%
D11*
%TO.P,J4,1,Pin_1*%
%TO.N,VCC*%
X152000000Y-105000000D03*
D12*
%TO.P,J4,2,Pin_2*%
%TO.N,Net-(J4-Pin_2)*%
X154540000Y-105000000D03*
%TO.P,J4,3,Pin_3*%
%TO.N,GND*%
X157080000Y-105000000D03*
%TD*%
D11*
%TO.P,J1,1,3V3*%
%TO.N,VCC*%
X138150000Y-100000000D03*
D12*
%TO.P,J1,2,RST*%
%TO.N,unconnected-(J1-RST-Pad2)*%
X135610000Y-100000000D03*
%TO.P,J1,3,4*%
%TO.N,unconnected-(J1-4-Pad3)*%
X133070000Y-100000000D03*
%TO.P,J1,4,5*%
%TO.N,unconnected-(J1-5-Pad4)*%
X130530000Y-100000000D03*
%TO.P,J1,5,6*%
%TO.N,unconnected-(J1-6-Pad5)*%
X127990000Y-100000000D03*
%TO.P,J1,6,7*%
%TO.N,unconnected-(J1-7-Pad6)*%
X125450000Y-100000000D03*
%TO.P,J1,7,0*%
%TO.N,unconnected-(J1-0-Pad7)*%
X122910000Y-100000000D03*
%TO.P,J1,8,1*%
%TO.N,unconnected-(J1-1-Pad8)*%
X120370000Y-100000000D03*
%TO.P,J1,9,8*%
%TO.N,unconnected-(J1-8-Pad9)*%
X117830000Y-100000000D03*
%TO.P,J1,10,10*%
%TO.N,unconnected-(J1-Pad10)*%
X115290000Y-100000000D03*
%TO.P,J1,11,11*%
%TO.N,unconnected-(J1-Pad11)*%
X112750000Y-100000000D03*
%TO.P,J1,12,2*%
%TO.N,Net-(J1-2)*%
X110210000Y-100000000D03*
%TO.P,J1,13,3*%
%TO.N,Net-(J1-3)*%
X107670000Y-100000000D03*
%TO.P,J1,14,5V*%
%TO.N,unconnected-(J1-5V-Pad14)*%
X105130000Y-100000000D03*
%TO.P,J1,15,G*%
%TO.N,GND*%
X102590000Y-100000000D03*
%TO.P,J1,16,16*%
%TO.N,unconnected-(J1-Pad16)*%
X100050000Y-100000000D03*
%TD*%
D11*
%TO.P,J3,1,Pin_1*%
%TO.N,VCC*%
X152000000Y-109600000D03*
D12*
%TO.P,J3,2,Pin_2*%
%TO.N,Net-(J3-Pin_2)*%
X154540000Y-109600000D03*
%TO.P,J3,3,Pin_3*%
%TO.N,GND*%
X157080000Y-109600000D03*
%TD*%
D11*
%TO.P,J16,1,Pin_1*%
%TO.N,VCC*%
X154500000Y-114980000D03*
D12*
%TO.P,J16,2,Pin_2*%
%TO.N,Net-(J16-Pin_2)*%
X157040000Y-114980000D03*
%TD*%
D13*
%TO.N,Net-(J1-2)*%
X124750000Y-112750000D03*
X113000000Y-110000000D03*
%TO.N,Net-(J1-3)*%
X124000000Y-113500000D03*
X115500000Y-111000000D03*
%TO.N,GND*%
X124500000Y-128500000D03*
X94000000Y-103500000D03*
X149500000Y-93500000D03*
X129500000Y-93500000D03*
X94000000Y-94300000D03*
X122075000Y-115575000D03*
X104500000Y-128500000D03*
X144500000Y-128500000D03*
X109500000Y-93500000D03*
X93750000Y-113750000D03*
X94000000Y-123500000D03*
%TD*%
D14*
%TO.N,Net-(J1-2)*%
X113000000Y-110000000D02*
X110160000Y-107160000D01*
X124750000Y-112750000D02*
X122000000Y-110000000D01*
X122000000Y-110000000D02*
X113000000Y-110000000D01*
X110160000Y-100000000D02*
X110160000Y-107160000D01*
%TO.N,Net-(J1-3)*%
X113150057Y-111000000D02*
X107620000Y-105469943D01*
X115500000Y-111000000D02*
X113150057Y-111000000D01*
X121500000Y-111000000D02*
X115500000Y-111000000D01*
X124000000Y-113500000D02*
X121500000Y-111000000D01*
X107620000Y-105469943D02*
X107620000Y-100000000D01*
%TD*%
%TA.AperFunction,Conductor*%
%TO.N,GND*%
G36*
X95092539Y-91519685D02*
G01*
X95138294Y-91572489D01*
X95148045Y-91617314D01*
X95149234Y-91617237D01*
X95149499Y-91621282D01*
X95181161Y-91861785D01*
X95243947Y-92096104D01*
X95336773Y-92320205D01*
X95336776Y-92320212D01*
X95458064Y-92530289D01*
X95458066Y-92530292D01*
X95458067Y-92530293D01*
X95605733Y-92722736D01*
X95605739Y-92722743D01*
X95777256Y-92894260D01*
X95777262Y-92894265D01*
X95969711Y-93041936D01*
X96179788Y-93163224D01*
X96403900Y-93256054D01*
X96638211Y-93318838D01*
X96818586Y-93342584D01*
X96878711Y-93350500D01*
X96878712Y-93350500D01*
X97121289Y-93350500D01*
X97169388Y-93344167D01*
X97361789Y-93318838D01*
X97596100Y-93256054D01*
X97820212Y-93163224D01*
X98030289Y-93041936D01*
X98222738Y-92894265D01*
X98394265Y-92722738D01*
X98541936Y-92530289D01*
X98663224Y-92320212D01*
X98756054Y-92096100D01*
X98818838Y-91861789D01*
X98850500Y-91621288D01*
X98850500Y-91621282D01*
X98850766Y-91617237D01*
X98852453Y-91617347D01*
X98870185Y-91556961D01*
X98922989Y-91511206D01*
X98974500Y-91500000D01*
X115025500Y-91500000D01*
X115092539Y-91519685D01*
X115138294Y-91572489D01*
X115148045Y-91617314D01*
X115149234Y-91617237D01*
X115149499Y-91621282D01*
X115181161Y-91861785D01*
X115243947Y-92096104D01*
X115336773Y-92320205D01*
X115336776Y-92320212D01*
X115458064Y-92530289D01*
X115458066Y-92530292D01*
X115458067Y-92530293D01*
X115605733Y-92722736D01*
X115605739Y-92722743D01*
X115777256Y-92894260D01*
X115777262Y-92894265D01*
X115969711Y-93041936D01*
X116179788Y-93163224D01*
X116403900Y-93256054D01*
X116638211Y-93318838D01*
X116818586Y-93342584D01*
X116878711Y-93350500D01*
X116878712Y-93350500D01*
X117121289Y-93350500D01*
X117169388Y-93344167D01*
X117361789Y-93318838D01*
X117596100Y-93256054D01*
X117820212Y-93163224D01*
X118030289Y-93041936D01*
X118222738Y-92894265D01*
X118394265Y-92722738D01*
X118541936Y-92530289D01*
X118663224Y-92320212D01*
X118756054Y-92096100D01*
X118818838Y-91861789D01*
X118850500Y-91621288D01*
X118850500Y-91621282D01*
X118850766Y-91617237D01*
X118852453Y-91617347D01*
X118870185Y-91556961D01*
X118922989Y-91511206D01*
X118974500Y-91500000D01*
X135025500Y-91500000D01*
X135092539Y-91519685D01*
X135138294Y-91572489D01*
X135148045Y-91617314D01*
X135149234Y-91617237D01*
X135149499Y-91621282D01*
X135181161Y-91861785D01*
X135243947Y-92096104D01*
X135336773Y-92320205D01*
X135336776Y-92320212D01*
X135458064Y-92530289D01*
X135458066Y-92530292D01*
X135458067Y-92530293D01*
X135605733Y-92722736D01*
X135605739Y-92722743D01*
X135777256Y-92894260D01*
X135777262Y-92894265D01*
X135969711Y-93041936D01*
X136179788Y-93163224D01*
X136403900Y-93256054D01*
X136638211Y-93318838D01*
X136818586Y-93342584D01*
X136878711Y-93350500D01*
X136878712Y-93350500D01*
X137121289Y-93350500D01*
X137169388Y-93344167D01*
X137361789Y-93318838D01*
X137596100Y-93256054D01*
X137820212Y-93163224D01*
X138030289Y-93041936D01*
X138222738Y-92894265D01*
X138394265Y-92722738D01*
X138541936Y-92530289D01*
X138663224Y-92320212D01*
X138756054Y-92096100D01*
X138818838Y-91861789D01*
X138850500Y-91621288D01*
X138850500Y-91621282D01*
X138850766Y-91617237D01*
X138852453Y-91617347D01*
X138870185Y-91556961D01*
X138922989Y-91511206D01*
X138974500Y-91500000D01*
X155025500Y-91500000D01*
X155092539Y-91519685D01*
X155138294Y-91572489D01*
X155148045Y-91617314D01*
X155149234Y-91617237D01*
X155149499Y-91621282D01*
X155181161Y-91861785D01*
X155243947Y-92096104D01*
X155336773Y-92320205D01*
X155336776Y-92320212D01*
X155458064Y-92530289D01*
X155458066Y-92530292D01*
X155458067Y-92530293D01*
X155605733Y-92722736D01*
X155605739Y-92722743D01*
X155777256Y-92894260D01*
X155777262Y-92894265D01*
X155969711Y-93041936D01*
X156179788Y-93163224D01*
X156403900Y-93256054D01*
X156638211Y-93318838D01*
X156818586Y-93342584D01*
X156878711Y-93350500D01*
X156878712Y-93350500D01*
X157121289Y-93350500D01*
X157169388Y-93344167D01*
X157361789Y-93318838D01*
X157596100Y-93256054D01*
X157820212Y-93163224D01*
X158030289Y-93041936D01*
X158222738Y-92894265D01*
X158394265Y-92722738D01*
X158541936Y-92530289D01*
X158663224Y-92320212D01*
X158756054Y-92096100D01*
X158756225Y-92095460D01*
X158756329Y-92095290D01*
X158757357Y-92092262D01*
X158758034Y-92092492D01*
X158792588Y-92035802D01*
X158855434Y-92005271D01*
X158924810Y-92013565D01*
X158978689Y-92058049D01*
X158999965Y-92124600D01*
X159000000Y-92127554D01*
X159000000Y-130872445D01*
X158980315Y-130939484D01*
X158927511Y-130985239D01*
X158858353Y-130995183D01*
X158794797Y-130966158D01*
X158757023Y-130907380D01*
X158756226Y-130904542D01*
X158756053Y-130903897D01*
X158715840Y-130806814D01*
X158663224Y-130679788D01*
X158541936Y-130469711D01*
X158394265Y-130277262D01*
X158394260Y-130277256D01*
X158222743Y-130105739D01*
X158222736Y-130105733D01*
X158030293Y-129958067D01*
X158030292Y-129958066D01*
X158030289Y-129958064D01*
X157820212Y-129836776D01*
X157820205Y-129836773D01*
X157596104Y-129743947D01*
X157361785Y-129681161D01*
X157121289Y-129649500D01*
X157121288Y-129649500D01*
X156878712Y-129649500D01*
X156878711Y-129649500D01*
X156638214Y-129681161D01*
X156403895Y-129743947D01*
X156179794Y-129836773D01*
X156179785Y-129836777D01*
X155969706Y-129958067D01*
X155777263Y-130105733D01*
X155777256Y-130105739D01*
X155605739Y-130277256D01*
X155605733Y-130277263D01*
X155458067Y-130469706D01*
X155336777Y-130679785D01*
X155336773Y-130679794D01*
X155243947Y-130903895D01*
X155181161Y-131138214D01*
X155149499Y-131378717D01*
X155149234Y-131382763D01*
X155147546Y-131382652D01*
X155129815Y-131443039D01*
X155077011Y-131488794D01*
X155025500Y-131500000D01*
X138974500Y-131500000D01*
X138907461Y-131480315D01*
X138861706Y-131427511D01*
X138851954Y-131382685D01*
X138850766Y-131382763D01*
X138850500Y-131378717D01*
X138850500Y-131378712D01*
X138818838Y-131138211D01*
X138756054Y-130903900D01*
X138663224Y-130679788D01*
X138541936Y-130469711D01*
X138394265Y-130277262D01*
X138394260Y-130277256D01*
X138222743Y-130105739D01*
X138222736Y-130105733D01*
X138030293Y-129958067D01*
X138030292Y-129958066D01*
X138030289Y-129958064D01*
X137820212Y-129836776D01*
X137820205Y-129836773D01*
X137596104Y-129743947D01*
X137361785Y-129681161D01*
X137121289Y-129649500D01*
X137121288Y-129649500D01*
X136878712Y-129649500D01*
X136878711Y-129649500D01*
X136638214Y-129681161D01*
X136403895Y-129743947D01*
X136179794Y-129836773D01*
X136179785Y-129836777D01*
X135969706Y-129958067D01*
X135777263Y-130105733D01*
X135777256Y-130105739D01*
X135605739Y-130277256D01*
X135605733Y-130277263D01*
X135458067Y-130469706D01*
X135336777Y-130679785D01*
X135336773Y-130679794D01*
X135243947Y-130903895D01*
X135181161Y-131138214D01*
X135149499Y-131378717D01*
X135149234Y-131382763D01*
X135147546Y-131382652D01*
X135129815Y-131443039D01*
X135077011Y-131488794D01*
X135025500Y-131500000D01*
X118974500Y-131500000D01*
X118907461Y-131480315D01*
X118861706Y-131427511D01*
X118851954Y-131382685D01*
X118850766Y-131382763D01*
X118850500Y-131378717D01*
X118850500Y-131378712D01*
X118818838Y-131138211D01*
X118756054Y-130903900D01*
X118663224Y-130679788D01*
X118541936Y-130469711D01*
X118394265Y-130277262D01*
X118394260Y-130277256D01*
X118222743Y-130105739D01*
X118222736Y-130105733D01*
X118030293Y-129958067D01*
X118030292Y-129958066D01*
X118030289Y-129958064D01*
X117820212Y-129836776D01*
X117820205Y-129836773D01*
X117596104Y-129743947D01*
X117361785Y-129681161D01*
X117121289Y-129649500D01*
X117121288Y-129649500D01*
X116878712Y-129649500D01*
X116878711Y-129649500D01*
X116638214Y-129681161D01*
X116403895Y-129743947D01*
X116179794Y-129836773D01*
X116179785Y-129836777D01*
X115969706Y-129958067D01*
X115777263Y-130105733D01*
X115777256Y-130105739D01*
X115605739Y-130277256D01*
X115605733Y-130277263D01*
X115458067Y-130469706D01*
X115336777Y-130679785D01*
X115336773Y-130679794D01*
X115243947Y-130903895D01*
X115181161Y-131138214D01*
X115149499Y-131378717D01*
X115149234Y-131382763D01*
X115147546Y-131382652D01*
X115129815Y-131443039D01*
X115077011Y-131488794D01*
X115025500Y-131500000D01*
X98974500Y-131500000D01*
X98907461Y-131480315D01*
X98861706Y-131427511D01*
X98851954Y-131382685D01*
X98850766Y-131382763D01*
X98850500Y-131378717D01*
X98850500Y-131378712D01*
X98818838Y-131138211D01*
X98756054Y-130903900D01*
X98663224Y-130679788D01*
X98541936Y-130469711D01*
X98394265Y-130277262D01*
X98394260Y-130277256D01*
X98222743Y-130105739D01*
X98222736Y-130105733D01*
X98030293Y-129958067D01*
X98030292Y-129958066D01*
X98030289Y-129958064D01*
X97820212Y-129836776D01*
X97820205Y-129836773D01*
X97596104Y-129743947D01*
X97361785Y-129681161D01*
X97121289Y-129649500D01*
X97121288Y-129649500D01*
X96878712Y-129649500D01*
X96878711Y-129649500D01*
X96638214Y-129681161D01*
X96403895Y-129743947D01*
X96179794Y-129836773D01*
X96179785Y-129836777D01*
X95969706Y-129958067D01*
X95777263Y-130105733D01*
X95777256Y-130105739D01*
X95605739Y-130277256D01*
X95605733Y-130277263D01*
X95458067Y-130469706D01*
X95336777Y-130679785D01*
X95336773Y-130679794D01*
X95243947Y-130903895D01*
X95181161Y-131138214D01*
X95149499Y-131378717D01*
X95149234Y-131382763D01*
X95147546Y-131382652D01*
X95129815Y-131443039D01*
X95077011Y-131488794D01*
X95025500Y-131500000D01*
X92124000Y-131500000D01*
X92056961Y-131480315D01*
X92011206Y-131427511D01*
X92000000Y-131376000D01*
X92000000Y-127381902D01*
X150999500Y-127381902D01*
X150999500Y-127618097D01*
X151036446Y-127851368D01*
X151109433Y-128075996D01*
X151216657Y-128286433D01*
X151355483Y-128477510D01*
X151522490Y-128644517D01*
X151713567Y-128783343D01*
X151812991Y-128834002D01*
X151924003Y-128890566D01*
X151924005Y-128890566D01*
X151924008Y-128890568D01*
X152044412Y-128929689D01*
X152148631Y-128963553D01*
X152381903Y-129000500D01*
X152381908Y-129000500D01*
X152618097Y-129000500D01*
X152851368Y-128963553D01*
X153075992Y-128890568D01*
X153286433Y-128783343D01*
X153477510Y-128644517D01*
X153644517Y-128477510D01*
X153783343Y-128286433D01*
X153890568Y-128075992D01*
X153963553Y-127851368D01*
X154000500Y-127618097D01*
X154000500Y-127381902D01*
X153963553Y-127148631D01*
X153890566Y-126924003D01*
X153783342Y-126713566D01*
X153644517Y-126522490D01*
X153477510Y-126355483D01*
X153286433Y-126216657D01*
X153075996Y-126109433D01*
X152851368Y-126036446D01*
X152618097Y-125999500D01*
X152618092Y-125999500D01*
X152381908Y-125999500D01*
X152381903Y-125999500D01*
X152148631Y-126036446D01*
X151924003Y-126109433D01*
X151713566Y-126216657D01*
X151604550Y-126295862D01*
X151522490Y-126355483D01*
X151522488Y-126355485D01*
X151522487Y-126355485D01*
X151355485Y-126522487D01*
X151355485Y-126522488D01*
X151355483Y-126522490D01*
X151295862Y-126604550D01*
X151216657Y-126713566D01*
X151109433Y-126924003D01*
X151036446Y-127148631D01*
X150999500Y-127381902D01*
X92000000Y-127381902D01*
X92000000Y-122753713D01*
X98699500Y-122753713D01*
X98699500Y-122966286D01*
X98732753Y-123176239D01*
X98798444Y-123378414D01*
X98894951Y-123567820D01*
X99019890Y-123739786D01*
X99170213Y-123890109D01*
X99342179Y-124015048D01*
X99342181Y-124015049D01*
X99342184Y-124015051D01*
X99531588Y-124111557D01*
X99733757Y-124177246D01*
X99943713Y-124210500D01*
X99943714Y-124210500D01*
X100156286Y-124210500D01*
X100156287Y-124210500D01*
X100366243Y-124177246D01*
X100568412Y-124111557D01*
X100757816Y-124015051D01*
X100844138Y-123952335D01*
X100929786Y-123890109D01*
X100929788Y-123890106D01*
X100929792Y-123890104D01*
X101080104Y-123739792D01*
X101080106Y-123739788D01*
X101080109Y-123739786D01*
X101205048Y-123567820D01*
X101205047Y-123567820D01*
X101205051Y-123567816D01*
X101209514Y-123559054D01*
X101257488Y-123508259D01*
X101325308Y-123491463D01*
X101391444Y-123513999D01*
X101430486Y-123559056D01*
X101434951Y-123567820D01*
X101559890Y-123739786D01*
X101710213Y-123890109D01*
X101882179Y-124015048D01*
X101882181Y-124015049D01*
X101882184Y-124015051D01*
X102071588Y-124111557D01*
X102273757Y-124177246D01*
X102483713Y-124210500D01*
X102483714Y-124210500D01*
X102696286Y-124210500D01*
X102696287Y-124210500D01*
X102906243Y-124177246D01*
X103108412Y-124111557D01*
X103297816Y-124015051D01*
X103384138Y-123952335D01*
X103469786Y-123890109D01*
X103469788Y-123890106D01*
X103469792Y-123890104D01*
X103620104Y-123739792D01*
X103620106Y-123739788D01*
X103620109Y-123739786D01*
X103745048Y-123567820D01*
X103745047Y-123567820D01*
X103745051Y-123567816D01*
X103749514Y-123559054D01*
X103797488Y-123508259D01*
X103865308Y-123491463D01*
X103931444Y-123513999D01*
X103970486Y-123559056D01*
X103974951Y-123567820D01*
X104099890Y-123739786D01*
X104250213Y-123890109D01*
X104422179Y-124015048D01*
X104422181Y-124015049D01*
X104422184Y-124015051D01*
X104611588Y-124111557D01*
X104813757Y-124177246D01*
X105023713Y-124210500D01*
X105023714Y-124210500D01*
X105236286Y-124210500D01*
X105236287Y-124210500D01*
X105446243Y-124177246D01*
X105648412Y-124111557D01*
X105837816Y-124015051D01*
X105924138Y-123952335D01*
X106009786Y-123890109D01*
X106009788Y-123890106D01*
X106009792Y-123890104D01*
X106160104Y-123739792D01*
X106160106Y-123739788D01*
X106160109Y-123739786D01*
X106285048Y-123567820D01*
X106285047Y-123567820D01*
X106285051Y-123567816D01*
X106289514Y-123559054D01*
X106337488Y-123508259D01*
X106405308Y-123491463D01*
X106471444Y-123513999D01*
X106510486Y-123559056D01*
X106514951Y-123567820D01*
X106639890Y-123739786D01*
X106790213Y-123890109D01*
X106962179Y-124015048D01*
X106962181Y-124015049D01*
X106962184Y-124015051D01*
X107151588Y-124111557D01*
X107353757Y-124177246D01*
X107563713Y-124210500D01*
X107563714Y-124210500D01*
X107776286Y-124210500D01*
X107776287Y-124210500D01*
X107986243Y-124177246D01*
X108188412Y-124111557D01*
X108377816Y-124015051D01*
X108464138Y-123952335D01*
X108549786Y-123890109D01*
X108549788Y-123890106D01*
X108549792Y-123890104D01*
X108700104Y-123739792D01*
X108700106Y-123739788D01*
X108700109Y-123739786D01*
X108825048Y-123567820D01*
X108825047Y-123567820D01*
X108825051Y-123567816D01*
X108829514Y-123559054D01*
X108877488Y-123508259D01*
X108945308Y-123491463D01*
X109011444Y-123513999D01*
X109050486Y-123559056D01*
X109054951Y-123567820D01*
X109179890Y-123739786D01*
X109330213Y-123890109D01*
X109502179Y-124015048D01*
X109502181Y-124015049D01*
X109502184Y-124015051D01*
X109691588Y-124111557D01*
X109893757Y-124177246D01*
X110103713Y-124210500D01*
X110103714Y-124210500D01*
X110316286Y-124210500D01*
X110316287Y-124210500D01*
X110526243Y-124177246D01*
X110728412Y-124111557D01*
X110917816Y-124015051D01*
X111004138Y-123952335D01*
X111089786Y-123890109D01*
X111089788Y-123890106D01*
X111089792Y-123890104D01*
X111240104Y-123739792D01*
X111240106Y-123739788D01*
X111240109Y-123739786D01*
X111365048Y-123567820D01*
X111365047Y-123567820D01*
X111365051Y-123567816D01*
X111369514Y-123559054D01*
X111417488Y-123508259D01*
X111485308Y-123491463D01*
X111551444Y-123513999D01*
X111590486Y-123559056D01*
X111594951Y-123567820D01*
X111719890Y-123739786D01*
X111870213Y-123890109D01*
X112042179Y-124015048D01*
X112042181Y-124015049D01*
X112042184Y-124015051D01*
X112231588Y-124111557D01*
X112433757Y-124177246D01*
X112643713Y-124210500D01*
X112643714Y-124210500D01*
X112856286Y-124210500D01*
X112856287Y-124210500D01*
X113066243Y-124177246D01*
X113268412Y-124111557D01*
X113457816Y-124015051D01*
X113544138Y-123952335D01*
X113629786Y-123890109D01*
X113629788Y-123890106D01*
X113629792Y-123890104D01*
X113780104Y-123739792D01*
X113780106Y-123739788D01*
X113780109Y-123739786D01*
X113905048Y-123567820D01*
X113905047Y-123567820D01*
X113905051Y-123567816D01*
X113909514Y-123559054D01*
X113957488Y-123508259D01*
X114025308Y-123491463D01*
X114091444Y-123513999D01*
X114130486Y-123559056D01*
X114134951Y-123567820D01*
X114259890Y-123739786D01*
X114410213Y-123890109D01*
X114582179Y-124015048D01*
X114582181Y-124015049D01*
X114582184Y-124015051D01*
X114771588Y-124111557D01*
X114973757Y-124177246D01*
X115183713Y-124210500D01*
X115183714Y-124210500D01*
X115396286Y-124210500D01*
X115396287Y-124210500D01*
X115606243Y-124177246D01*
X115808412Y-124111557D01*
X115997816Y-124015051D01*
X116084138Y-123952335D01*
X116169786Y-123890109D01*
X116169788Y-123890106D01*
X116169792Y-123890104D01*
X116320104Y-123739792D01*
X116320106Y-123739788D01*
X116320109Y-123739786D01*
X116445048Y-123567820D01*
X116445047Y-123567820D01*
X116445051Y-123567816D01*
X116449514Y-123559054D01*
X116497488Y-123508259D01*
X116565308Y-123491463D01*
X116631444Y-123513999D01*
X116670486Y-123559056D01*
X116674951Y-123567820D01*
X116799890Y-123739786D01*
X116950213Y-123890109D01*
X117122179Y-124015048D01*
X117122181Y-124015049D01*
X117122184Y-124015051D01*
X117311588Y-124111557D01*
X117513757Y-124177246D01*
X117723713Y-124210500D01*
X117723714Y-124210500D01*
X117936286Y-124210500D01*
X117936287Y-124210500D01*
X118146243Y-124177246D01*
X118348412Y-124111557D01*
X118537816Y-124015051D01*
X118624138Y-123952335D01*
X118709786Y-123890109D01*
X118709788Y-123890106D01*
X118709792Y-123890104D01*
X118860104Y-123739792D01*
X118860106Y-123739788D01*
X118860109Y-123739786D01*
X118985048Y-123567820D01*
X118985047Y-123567820D01*
X118985051Y-123567816D01*
X118989514Y-123559054D01*
X119037488Y-123508259D01*
X119105308Y-123491463D01*
X119171444Y-123513999D01*
X119210486Y-123559056D01*
X119214951Y-123567820D01*
X119339890Y-123739786D01*
X119490213Y-123890109D01*
X119662179Y-124015048D01*
X119662181Y-124015049D01*
X119662184Y-124015051D01*
X119851588Y-124111557D01*
X120053757Y-124177246D01*
X120263713Y-124210500D01*
X120263714Y-124210500D01*
X120476286Y-124210500D01*
X120476287Y-124210500D01*
X120686243Y-124177246D01*
X120888412Y-124111557D01*
X121077816Y-124015051D01*
X121164138Y-123952335D01*
X121249786Y-123890109D01*
X121249788Y-123890106D01*
X121249792Y-123890104D01*
X121400104Y-123739792D01*
X121400106Y-123739788D01*
X121400109Y-123739786D01*
X121525048Y-123567820D01*
X121525047Y-123567820D01*
X121525051Y-123567816D01*
X121529514Y-123559054D01*
X121577488Y-123508259D01*
X121645308Y-123491463D01*
X121711444Y-123513999D01*
X121750486Y-123559056D01*
X121754951Y-123567820D01*
X121879890Y-123739786D01*
X122030213Y-123890109D01*
X122202179Y-124015048D01*
X122202181Y-124015049D01*
X122202184Y-124015051D01*
X122391588Y-124111557D01*
X122593757Y-124177246D01*
X122803713Y-124210500D01*
X122803714Y-124210500D01*
X123016286Y-124210500D01*
X123016287Y-124210500D01*
X123226243Y-124177246D01*
X123428412Y-124111557D01*
X123617816Y-124015051D01*
X123704138Y-123952335D01*
X123789786Y-123890109D01*
X123789788Y-123890106D01*
X123789792Y-123890104D01*
X123940104Y-123739792D01*
X123940106Y-123739788D01*
X123940109Y-123739786D01*
X124065048Y-123567820D01*
X124065047Y-123567820D01*
X124065051Y-123567816D01*
X124069514Y-123559054D01*
X124117488Y-123508259D01*
X124185308Y-123491463D01*
X124251444Y-123513999D01*
X124290486Y-123559056D01*
X124294951Y-123567820D01*
X124419890Y-123739786D01*
X124570213Y-123890109D01*
X124742179Y-124015048D01*
X124742181Y-124015049D01*
X124742184Y-124015051D01*
X124931588Y-124111557D01*
X125133757Y-124177246D01*
X125343713Y-124210500D01*
X125343714Y-124210500D01*
X125556286Y-124210500D01*
X125556287Y-124210500D01*
X125766243Y-124177246D01*
X125968412Y-124111557D01*
X126157816Y-124015051D01*
X126244138Y-123952335D01*
X126329786Y-123890109D01*
X126329788Y-123890106D01*
X126329792Y-123890104D01*
X126480104Y-123739792D01*
X126480106Y-123739788D01*
X126480109Y-123739786D01*
X126605048Y-123567820D01*
X126605047Y-123567820D01*
X126605051Y-123567816D01*
X126609514Y-123559054D01*
X126657488Y-123508259D01*
X126725308Y-123491463D01*
X126791444Y-123513999D01*
X126830486Y-123559056D01*
X126834951Y-123567820D01*
X126959890Y-123739786D01*
X127110213Y-123890109D01*
X127282179Y-124015048D01*
X127282181Y-124015049D01*
X127282184Y-124015051D01*
X127471588Y-124111557D01*
X127673757Y-124177246D01*
X127883713Y-124210500D01*
X127883714Y-124210500D01*
X128096286Y-124210500D01*
X128096287Y-124210500D01*
X128306243Y-124177246D01*
X128508412Y-124111557D01*
X128697816Y-124015051D01*
X128784138Y-123952335D01*
X128869786Y-123890109D01*
X128869788Y-123890106D01*
X128869792Y-123890104D01*
X129020104Y-123739792D01*
X129020106Y-123739788D01*
X129020109Y-123739786D01*
X129145048Y-123567820D01*
X129145047Y-123567820D01*
X129145051Y-123567816D01*
X129149514Y-123559054D01*
X129197488Y-123508259D01*
X129265308Y-123491463D01*
X129331444Y-123513999D01*
X129370486Y-123559056D01*
X129374951Y-123567820D01*
X129499890Y-123739786D01*
X129650213Y-123890109D01*
X129822179Y-124015048D01*
X129822181Y-124015049D01*
X129822184Y-124015051D01*
X130011588Y-124111557D01*
X130213757Y-124177246D01*
X130423713Y-124210500D01*
X130423714Y-124210500D01*
X130636286Y-124210500D01*
X130636287Y-124210500D01*
X130846243Y-124177246D01*
X131048412Y-124111557D01*
X131237816Y-124015051D01*
X131324138Y-123952335D01*
X131409786Y-123890109D01*
X131409788Y-123890106D01*
X131409792Y-123890104D01*
X131560104Y-123739792D01*
X131560106Y-123739788D01*
X131560109Y-123739786D01*
X131685048Y-123567820D01*
X131685047Y-123567820D01*
X131685051Y-123567816D01*
X131689514Y-123559054D01*
X131737488Y-123508259D01*
X131805308Y-123491463D01*
X131871444Y-123513999D01*
X131910486Y-123559056D01*
X131914951Y-123567820D01*
X132039890Y-123739786D01*
X132190213Y-123890109D01*
X132362179Y-124015048D01*
X132362181Y-124015049D01*
X132362184Y-124015051D01*
X132551588Y-124111557D01*
X132753757Y-124177246D01*
X132963713Y-124210500D01*
X132963714Y-124210500D01*
X133176286Y-124210500D01*
X133176287Y-124210500D01*
X133386243Y-124177246D01*
X133588412Y-124111557D01*
X133777816Y-124015051D01*
X133864138Y-123952335D01*
X133949786Y-123890109D01*
X133949788Y-123890106D01*
X133949792Y-123890104D01*
X134100104Y-123739792D01*
X134100106Y-123739788D01*
X134100109Y-123739786D01*
X134225048Y-123567820D01*
X134225047Y-123567820D01*
X134225051Y-123567816D01*
X134229514Y-123559054D01*
X134277488Y-123508259D01*
X134345308Y-123491463D01*
X134411444Y-123513999D01*
X134450486Y-123559056D01*
X134454951Y-123567820D01*
X134579890Y-123739786D01*
X134730213Y-123890109D01*
X134902179Y-124015048D01*
X134902181Y-124015049D01*
X134902184Y-124015051D01*
X135091588Y-124111557D01*
X135293757Y-124177246D01*
X135503713Y-124210500D01*
X135503714Y-124210500D01*
X135716286Y-124210500D01*
X135716287Y-124210500D01*
X135926243Y-124177246D01*
X136128412Y-124111557D01*
X136317816Y-124015051D01*
X136489792Y-123890104D01*
X136603329Y-123776566D01*
X136664648Y-123743084D01*
X136734340Y-123748068D01*
X136790274Y-123789939D01*
X136807189Y-123820917D01*
X136856202Y-123952328D01*
X136856206Y-123952335D01*
X136942452Y-124067544D01*
X136942455Y-124067547D01*
X137057664Y-124153793D01*
X137057671Y-124153797D01*
X137192517Y-124204091D01*
X137192516Y-124204091D01*
X137199444Y-124204835D01*
X137252127Y-124210500D01*
X139047872Y-124210499D01*
X139107483Y-124204091D01*
X139242331Y-124153796D01*
X139357546Y-124067546D01*
X139443796Y-123952331D01*
X139494091Y-123817483D01*
X139500500Y-123757873D01*
X139500499Y-121962128D01*
X139494091Y-121902517D01*
X139492810Y-121899083D01*
X139443797Y-121767671D01*
X139443793Y-121767664D01*
X139357547Y-121652455D01*
X139357544Y-121652452D01*
X139242335Y-121566206D01*
X139242328Y-121566202D01*
X139107482Y-121515908D01*
X139107483Y-121515908D01*
X139047883Y-121509501D01*
X139047881Y-121509500D01*
X139047873Y-121509500D01*
X139047864Y-121509500D01*
X137252129Y-121509500D01*
X137252123Y-121509501D01*
X137192516Y-121515908D01*
X137057671Y-121566202D01*
X137057664Y-121566206D01*
X136942455Y-121652452D01*
X136942452Y-121652455D01*
X136856206Y-121767664D01*
X136856203Y-121767669D01*
X136807189Y-121899083D01*
X136765317Y-121955016D01*
X136699853Y-121979433D01*
X136631580Y-121964581D01*
X136603326Y-121943430D01*
X136489786Y-121829890D01*
X136317820Y-121704951D01*
X136128414Y-121608444D01*
X136128413Y-121608443D01*
X136128412Y-121608443D01*
X135926243Y-121542754D01*
X135926241Y-121542753D01*
X135926240Y-121542753D01*
X135764957Y-121517208D01*
X135716287Y-121509500D01*
X135503713Y-121509500D01*
X135455042Y-121517208D01*
X135293760Y-121542753D01*
X135091585Y-121608444D01*
X134902179Y-121704951D01*
X134730213Y-121829890D01*
X134579890Y-121980213D01*
X134454949Y-122152182D01*
X134450484Y-122160946D01*
X134402509Y-122211742D01*
X134334688Y-122228536D01*
X134268553Y-122205998D01*
X134229516Y-122160946D01*
X134225050Y-122152182D01*
X134100109Y-121980213D01*
X133949786Y-121829890D01*
X133777820Y-121704951D01*
X133588414Y-121608444D01*
X133588413Y-121608443D01*
X133588412Y-121608443D01*
X133386243Y-121542754D01*
X133386241Y-121542753D01*
X133386240Y-121542753D01*
X133224957Y-121517208D01*
X133176287Y-121509500D01*
X132963713Y-121509500D01*
X132915042Y-121517208D01*
X132753760Y-121542753D01*
X132551585Y-121608444D01*
X132362179Y-121704951D01*
X132190213Y-121829890D01*
X132039890Y-121980213D01*
X131914949Y-122152182D01*
X131910484Y-122160946D01*
X131862509Y-122211742D01*
X131794688Y-122228536D01*
X131728553Y-122205998D01*
X131689516Y-122160946D01*
X131685050Y-122152182D01*
X131560109Y-121980213D01*
X131409786Y-121829890D01*
X131237820Y-121704951D01*
X131048414Y-121608444D01*
X131048413Y-121608443D01*
X131048412Y-121608443D01*
X130846243Y-121542754D01*
X130846241Y-121542753D01*
X130846240Y-121542753D01*
X130684957Y-121517208D01*
X130636287Y-121509500D01*
X130423713Y-121509500D01*
X130375042Y-121517208D01*
X130213760Y-121542753D01*
X130011585Y-121608444D01*
X129822179Y-121704951D01*
X129650213Y-121829890D01*
X129499890Y-121980213D01*
X129374949Y-122152182D01*
X129370484Y-122160946D01*
X129322509Y-122211742D01*
X129254688Y-122228536D01*
X129188553Y-122205998D01*
X129149516Y-122160946D01*
X129145050Y-122152182D01*
X129020109Y-121980213D01*
X128869786Y-121829890D01*
X128697820Y-121704951D01*
X128508414Y-121608444D01*
X128508413Y-121608443D01*
X128508412Y-121608443D01*
X128306243Y-121542754D01*
X128306241Y-121542753D01*
X128306240Y-121542753D01*
X128144957Y-121517208D01*
X128096287Y-121509500D01*
X127883713Y-121509500D01*
X127835042Y-121517208D01*
X127673760Y-121542753D01*
X127471585Y-121608444D01*
X127282179Y-121704951D01*
X127110213Y-121829890D01*
X126959890Y-121980213D01*
X126834949Y-122152182D01*
X126830484Y-122160946D01*
X126782509Y-122211742D01*
X126714688Y-122228536D01*
X126648553Y-122205998D01*
X126609516Y-122160946D01*
X126605050Y-122152182D01*
X126480109Y-121980213D01*
X126329786Y-121829890D01*
X126157820Y-121704951D01*
X125968414Y-121608444D01*
X125968413Y-121608443D01*
X125968412Y-121608443D01*
X125766243Y-121542754D01*
X125766241Y-121542753D01*
X125766240Y-121542753D01*
X125604957Y-121517208D01*
X125556287Y-121509500D01*
X125343713Y-121509500D01*
X125295042Y-121517208D01*
X125133760Y-121542753D01*
X124931585Y-121608444D01*
X124742179Y-121704951D01*
X124570213Y-121829890D01*
X124419890Y-121980213D01*
X124294949Y-122152182D01*
X124290484Y-122160946D01*
X124242509Y-122211742D01*
X124174688Y-122228536D01*
X124108553Y-122205998D01*
X124069516Y-122160946D01*
X124065050Y-122152182D01*
X123940109Y-121980213D01*
X123789786Y-121829890D01*
X123617820Y-121704951D01*
X123428414Y-121608444D01*
X123428413Y-121608443D01*
X123428412Y-121608443D01*
X123226243Y-121542754D01*
X123226241Y-121542753D01*
X123226240Y-121542753D01*
X123064957Y-121517208D01*
X123016287Y-121509500D01*
X122803713Y-121509500D01*
X122755042Y-121517208D01*
X122593760Y-121542753D01*
X122391585Y-121608444D01*
X122202179Y-121704951D01*
X122030213Y-121829890D01*
X121879890Y-121980213D01*
X121754949Y-122152182D01*
X121750484Y-122160946D01*
X121702509Y-122211742D01*
X121634688Y-122228536D01*
X121568553Y-122205998D01*
X121529516Y-122160946D01*
X121525050Y-122152182D01*
X121400109Y-121980213D01*
X121249786Y-121829890D01*
X121077820Y-121704951D01*
X120888414Y-121608444D01*
X120888413Y-121608443D01*
X120888412Y-121608443D01*
X120686243Y-121542754D01*
X120686241Y-121542753D01*
X120686240Y-121542753D01*
X120524957Y-121517208D01*
X120476287Y-121509500D01*
X120263713Y-121509500D01*
X120215042Y-121517208D01*
X120053760Y-121542753D01*
X119851585Y-121608444D01*
X119662179Y-121704951D01*
X119490213Y-121829890D01*
X119339890Y-121980213D01*
X119214949Y-122152182D01*
X119210484Y-122160946D01*
X119162509Y-122211742D01*
X119094688Y-122228536D01*
X119028553Y-122205998D01*
X118989516Y-122160946D01*
X118985050Y-122152182D01*
X118860109Y-121980213D01*
X118709786Y-121829890D01*
X118537820Y-121704951D01*
X118348414Y-121608444D01*
X118348413Y-121608443D01*
X118348412Y-121608443D01*
X118146243Y-121542754D01*
X118146241Y-121542753D01*
X118146240Y-121542753D01*
X117984957Y-121517208D01*
X117936287Y-121509500D01*
X117723713Y-121509500D01*
X117675042Y-121517208D01*
X117513760Y-121542753D01*
X117311585Y-121608444D01*
X117122179Y-121704951D01*
X116950213Y-121829890D01*
X116799890Y-121980213D01*
X116674949Y-122152182D01*
X116670484Y-122160946D01*
X116622509Y-122211742D01*
X116554688Y-122228536D01*
X116488553Y-122205998D01*
X116449516Y-122160946D01*
X116445050Y-122152182D01*
X116320109Y-121980213D01*
X116169786Y-121829890D01*
X115997820Y-121704951D01*
X115808414Y-121608444D01*
X115808413Y-121608443D01*
X115808412Y-121608443D01*
X115606243Y-121542754D01*
X115606241Y-121542753D01*
X115606240Y-121542753D01*
X115444957Y-121517208D01*
X115396287Y-121509500D01*
X115183713Y-121509500D01*
X115135042Y-121517208D01*
X114973760Y-121542753D01*
X114771585Y-121608444D01*
X114582179Y-121704951D01*
X114410213Y-121829890D01*
X114259890Y-121980213D01*
X114134949Y-122152182D01*
X114130484Y-122160946D01*
X114082509Y-122211742D01*
X114014688Y-122228536D01*
X113948553Y-122205998D01*
X113909516Y-122160946D01*
X113905050Y-122152182D01*
X113780109Y-121980213D01*
X113629786Y-121829890D01*
X113457820Y-121704951D01*
X113268414Y-121608444D01*
X113268413Y-121608443D01*
X113268412Y-121608443D01*
X113066243Y-121542754D01*
X113066241Y-121542753D01*
X113066240Y-121542753D01*
X112904957Y-121517208D01*
X112856287Y-121509500D01*
X112643713Y-121509500D01*
X112595042Y-121517208D01*
X112433760Y-121542753D01*
X112231585Y-121608444D01*
X112042179Y-121704951D01*
X111870213Y-121829890D01*
X111719890Y-121980213D01*
X111594949Y-122152182D01*
X111590484Y-122160946D01*
X111542509Y-122211742D01*
X111474688Y-122228536D01*
X111408553Y-122205998D01*
X111369516Y-122160946D01*
X111365050Y-122152182D01*
X111240109Y-121980213D01*
X111089786Y-121829890D01*
X110917820Y-121704951D01*
X110728414Y-121608444D01*
X110728413Y-121608443D01*
X110728412Y-121608443D01*
X110526243Y-121542754D01*
X110526241Y-121542753D01*
X110526240Y-121542753D01*
X110364957Y-121517208D01*
X110316287Y-121509500D01*
X110103713Y-121509500D01*
X110055042Y-121517208D01*
X109893760Y-121542753D01*
X109691585Y-121608444D01*
X109502179Y-121704951D01*
X109330213Y-121829890D01*
X109179890Y-121980213D01*
X109054949Y-122152182D01*
X109050484Y-122160946D01*
X109002509Y-122211742D01*
X108934688Y-122228536D01*
X108868553Y-122205998D01*
X108829516Y-122160946D01*
X108825050Y-122152182D01*
X108700109Y-121980213D01*
X108549786Y-121829890D01*
X108377820Y-121704951D01*
X108188414Y-121608444D01*
X108188413Y-121608443D01*
X108188412Y-121608443D01*
X107986243Y-121542754D01*
X107986241Y-121542753D01*
X107986240Y-121542753D01*
X107824957Y-121517208D01*
X107776287Y-121509500D01*
X107563713Y-121509500D01*
X107515042Y-121517208D01*
X107353760Y-121542753D01*
X107151585Y-121608444D01*
X106962179Y-121704951D01*
X106790213Y-121829890D01*
X106639890Y-121980213D01*
X106514949Y-122152182D01*
X106510484Y-122160946D01*
X106462509Y-122211742D01*
X106394688Y-122228536D01*
X106328553Y-122205998D01*
X106289516Y-122160946D01*
X106285050Y-122152182D01*
X106160109Y-121980213D01*
X106009786Y-121829890D01*
X105837820Y-121704951D01*
X105648414Y-121608444D01*
X105648413Y-121608443D01*
X105648412Y-121608443D01*
X105446243Y-121542754D01*
X105446241Y-121542753D01*
X105446240Y-121542753D01*
X105284957Y-121517208D01*
X105236287Y-121509500D01*
X105023713Y-121509500D01*
X104975042Y-121517208D01*
X104813760Y-121542753D01*
X104611585Y-121608444D01*
X104422179Y-121704951D01*
X104250213Y-121829890D01*
X104099890Y-121980213D01*
X103974949Y-122152182D01*
X103970484Y-122160946D01*
X103922509Y-122211742D01*
X103854688Y-122228536D01*
X103788553Y-122205998D01*
X103749516Y-122160946D01*
X103745050Y-122152182D01*
X103620109Y-121980213D01*
X103469786Y-121829890D01*
X103297820Y-121704951D01*
X103108414Y-121608444D01*
X103108413Y-121608443D01*
X103108412Y-121608443D01*
X102906243Y-121542754D01*
X102906241Y-121542753D01*
X102906240Y-121542753D01*
X102744957Y-121517208D01*
X102696287Y-121509500D01*
X102483713Y-121509500D01*
X102435042Y-121517208D01*
X102273760Y-121542753D01*
X102071585Y-121608444D01*
X101882179Y-121704951D01*
X101710213Y-121829890D01*
X101559890Y-121980213D01*
X101434949Y-122152182D01*
X101430484Y-122160946D01*
X101382509Y-122211742D01*
X101314688Y-122228536D01*
X101248553Y-122205998D01*
X101209516Y-122160946D01*
X101205050Y-122152182D01*
X101080109Y-121980213D01*
X100929786Y-121829890D01*
X100757820Y-121704951D01*
X100568414Y-121608444D01*
X100568413Y-121608443D01*
X100568412Y-121608443D01*
X100366243Y-121542754D01*
X100366241Y-121542753D01*
X100366240Y-121542753D01*
X100204957Y-121517208D01*
X100156287Y-121509500D01*
X99943713Y-121509500D01*
X99895042Y-121517208D01*
X99733760Y-121542753D01*
X99531585Y-121608444D01*
X99342179Y-121704951D01*
X99170213Y-121829890D01*
X99019890Y-121980213D01*
X98894951Y-122152179D01*
X98798444Y-122341585D01*
X98732753Y-122543760D01*
X98699500Y-122753713D01*
X92000000Y-122753713D01*
X92000000Y-117743713D01*
X125489500Y-117743713D01*
X125489500Y-117956287D01*
X125522754Y-118166243D01*
X125538215Y-118213828D01*
X125588444Y-118368414D01*
X125684951Y-118557820D01*
X125809890Y-118729786D01*
X125960213Y-118880109D01*
X126132179Y-119005048D01*
X126132181Y-119005049D01*
X126132184Y-119005051D01*
X126321588Y-119101557D01*
X126523757Y-119167246D01*
X126733713Y-119200500D01*
X126733714Y-119200500D01*
X126946286Y-119200500D01*
X126946287Y-119200500D01*
X127156243Y-119167246D01*
X127358412Y-119101557D01*
X127547816Y-119005051D01*
X127645371Y-118934174D01*
X127719786Y-118880109D01*
X127719788Y-118880106D01*
X127719792Y-118880104D01*
X127870104Y-118729792D01*
X127870106Y-118729788D01*
X127870109Y-118729786D01*
X127995048Y-118557820D01*
X127995047Y-118557820D01*
X127995051Y-118557816D01*
X128091557Y-118368412D01*
X128157246Y-118166243D01*
X128190500Y-117956287D01*
X128190500Y-117743713D01*
X145809500Y-117743713D01*
X145809500Y-117956287D01*
X145842754Y-118166243D01*
X145858215Y-118213828D01*
X145908444Y-118368414D01*
X146004951Y-118557820D01*
X146129890Y-118729786D01*
X146280213Y-118880109D01*
X146452179Y-119005048D01*
X146452181Y-119005049D01*
X146452184Y-119005051D01*
X146641588Y-119101557D01*
X146843757Y-119167246D01*
X147053713Y-119200500D01*
X147053714Y-119200500D01*
X147266286Y-119200500D01*
X147266287Y-119200500D01*
X147476243Y-119167246D01*
X147678412Y-119101557D01*
X147867816Y-119005051D01*
X147965371Y-118934174D01*
X148037256Y-118881947D01*
X151000000Y-118881947D01*
X151000000Y-119118052D01*
X151036934Y-119351247D01*
X151109897Y-119575802D01*
X151217087Y-119786174D01*
X151277338Y-119869104D01*
X151277340Y-119869105D01*
X152017037Y-119129408D01*
X152034075Y-119192993D01*
X152099901Y-119307007D01*
X152192993Y-119400099D01*
X152307007Y-119465925D01*
X152370590Y-119482962D01*
X151630893Y-120222658D01*
X151713828Y-120282914D01*
X151924197Y-120390102D01*
X152148752Y-120463065D01*
X152148751Y-120463065D01*
X152381948Y-120500000D01*
X152618052Y-120500000D01*
X152851247Y-120463065D01*
X153075802Y-120390102D01*
X153286163Y-120282918D01*
X153286169Y-120282914D01*
X153369104Y-120222658D01*
X153369105Y-120222658D01*
X152629408Y-119482962D01*
X152692993Y-119465925D01*
X152807007Y-119400099D01*
X152900099Y-119307007D01*
X152965925Y-119192993D01*
X152982962Y-119129408D01*
X153722658Y-119869105D01*
X153722658Y-119869104D01*
X153782914Y-119786169D01*
X153782918Y-119786163D01*
X153890102Y-119575802D01*
X153963065Y-119351247D01*
X154000000Y-119118052D01*
X154000000Y-118881947D01*
X153963065Y-118648752D01*
X153890102Y-118424197D01*
X153782914Y-118213828D01*
X153722658Y-118130894D01*
X153722658Y-118130893D01*
X152982962Y-118870590D01*
X152965925Y-118807007D01*
X152900099Y-118692993D01*
X152807007Y-118599901D01*
X152692993Y-118534075D01*
X152629409Y-118517037D01*
X153369105Y-117777340D01*
X153369104Y-117777338D01*
X153286174Y-117717087D01*
X153075802Y-117609897D01*
X152851247Y-117536934D01*
X152851248Y-117536934D01*
X152618052Y-117500000D01*
X152381948Y-117500000D01*
X152148752Y-117536934D01*
X151924197Y-117609897D01*
X151713830Y-117717084D01*
X151630894Y-117777340D01*
X152370591Y-118517037D01*
X152307007Y-118534075D01*
X152192993Y-118599901D01*
X152099901Y-118692993D01*
X152034075Y-118807007D01*
X152017037Y-118870591D01*
X151277340Y-118130894D01*
X151217084Y-118213830D01*
X151109897Y-118424197D01*
X151036934Y-118648752D01*
X151000000Y-118881947D01*
X148037256Y-118881947D01*
X148039786Y-118880109D01*
X148039788Y-118880106D01*
X148039792Y-118880104D01*
X148190104Y-118729792D01*
X148190106Y-118729788D01*
X148190109Y-118729786D01*
X148315048Y-118557820D01*
X148315047Y-118557820D01*
X148315051Y-118557816D01*
X148411557Y-118368412D01*
X148477246Y-118166243D01*
X148510500Y-117956287D01*
X148510500Y-117743713D01*
X148477246Y-117533757D01*
X148411557Y-117331588D01*
X148315051Y-117142184D01*
X148315049Y-117142181D01*
X148315048Y-117142179D01*
X148190109Y-116970213D01*
X148039786Y-116819890D01*
X147867820Y-116694951D01*
X147678414Y-116598444D01*
X147678413Y-116598443D01*
X147678412Y-116598443D01*
X147476243Y-116532754D01*
X147476241Y-116532753D01*
X147476240Y-116532753D01*
X147314957Y-116507208D01*
X147266287Y-116499500D01*
X147053713Y-116499500D01*
X147005042Y-116507208D01*
X146843760Y-116532753D01*
X146641585Y-116598444D01*
X146452179Y-116694951D01*
X146280213Y-116819890D01*
X146129890Y-116970213D01*
X146004951Y-117142179D01*
X145908444Y-117331585D01*
X145842753Y-117533760D01*
X145813718Y-117717084D01*
X145809500Y-117743713D01*
X128190500Y-117743713D01*
X128157246Y-117533757D01*
X128091557Y-117331588D01*
X127995051Y-117142184D01*
X127995049Y-117142181D01*
X127995048Y-117142179D01*
X127870109Y-116970213D01*
X127719786Y-116819890D01*
X127547820Y-116694951D01*
X127358414Y-116598444D01*
X127358413Y-116598443D01*
X127358412Y-116598443D01*
X127156243Y-116532754D01*
X127156241Y-116532753D01*
X127156240Y-116532753D01*
X126994957Y-116507208D01*
X126946287Y-116499500D01*
X126733713Y-116499500D01*
X126685042Y-116507208D01*
X126523760Y-116532753D01*
X126321585Y-116598444D01*
X126132179Y-116694951D01*
X125960213Y-116819890D01*
X125809890Y-116970213D01*
X125684951Y-117142179D01*
X125588444Y-117331585D01*
X125522753Y-117533760D01*
X125493718Y-117717084D01*
X125489500Y-117743713D01*
X92000000Y-117743713D01*
X92000000Y-111378711D01*
X95149500Y-111378711D01*
X95149500Y-111621288D01*
X95181161Y-111861785D01*
X95243947Y-112096104D01*
X95303430Y-112239707D01*
X95336776Y-112320212D01*
X95458064Y-112530289D01*
X95458066Y-112530292D01*
X95458067Y-112530293D01*
X95605733Y-112722736D01*
X95605739Y-112722743D01*
X95777256Y-112894260D01*
X95777262Y-112894265D01*
X95969711Y-113041936D01*
X96179788Y-113163224D01*
X96403900Y-113256054D01*
X96638211Y-113318838D01*
X96818586Y-113342584D01*
X96878711Y-113350500D01*
X96878712Y-113350500D01*
X97121289Y-113350500D01*
X97169388Y-113344167D01*
X97361789Y-113318838D01*
X97596100Y-113256054D01*
X97820212Y-113163224D01*
X98030289Y-113041936D01*
X98222738Y-112894265D01*
X98394265Y-112722738D01*
X98541936Y-112530289D01*
X98663224Y-112320212D01*
X98756054Y-112096100D01*
X98818838Y-111861789D01*
X98850500Y-111621288D01*
X98850500Y-111378712D01*
X98818838Y-111138211D01*
X98756054Y-110903900D01*
X98663224Y-110679788D01*
X98541936Y-110469711D01*
X98481018Y-110390321D01*
X98394266Y-110277263D01*
X98394260Y-110277256D01*
X98222743Y-110105739D01*
X98222736Y-110105733D01*
X98030293Y-109958067D01*
X98030292Y-109958066D01*
X98030289Y-109958064D01*
X97820212Y-109836776D01*
X97820205Y-109836773D01*
X97596104Y-109743947D01*
X97361785Y-109681161D01*
X97121289Y-109649500D01*
X97121288Y-109649500D01*
X96878712Y-109649500D01*
X96878711Y-109649500D01*
X96638214Y-109681161D01*
X96403895Y-109743947D01*
X96179794Y-109836773D01*
X96179785Y-109836777D01*
X95969706Y-109958067D01*
X95777263Y-110105733D01*
X95777256Y-110105739D01*
X95605739Y-110277256D01*
X95605733Y-110277263D01*
X95458067Y-110469706D01*
X95336777Y-110679785D01*
X95336773Y-110679794D01*
X95243947Y-110903895D01*
X95181161Y-111138214D01*
X95149500Y-111378711D01*
X92000000Y-111378711D01*
X92000000Y-99893713D01*
X98699500Y-99893713D01*
X98699500Y-100106286D01*
X98729185Y-100293713D01*
X98732754Y-100316243D01*
X98794503Y-100506287D01*
X98798444Y-100518414D01*
X98894951Y-100707820D01*
X99019890Y-100879786D01*
X99170213Y-101030109D01*
X99342179Y-101155048D01*
X99342181Y-101155049D01*
X99342184Y-101155051D01*
X99531588Y-101251557D01*
X99733757Y-101317246D01*
X99943713Y-101350500D01*
X99943714Y-101350500D01*
X100156286Y-101350500D01*
X100156287Y-101350500D01*
X100366243Y-101317246D01*
X100568412Y-101251557D01*
X100757816Y-101155051D01*
X100822830Y-101107816D01*
X100929786Y-101030109D01*
X100929788Y-101030106D01*
X100929792Y-101030104D01*
X101080104Y-100879792D01*
X101080106Y-100879788D01*
X101080109Y-100879786D01*
X101165890Y-100761717D01*
X101205051Y-100707816D01*
X101209793Y-100698508D01*
X101257763Y-100647711D01*
X101325583Y-100630911D01*
X101391719Y-100653445D01*
X101430763Y-100698500D01*
X101435373Y-100707547D01*
X101474728Y-100761716D01*
X102107037Y-100129408D01*
X102124075Y-100192993D01*
X102189901Y-100307007D01*
X102282993Y-100400099D01*
X102397007Y-100465925D01*
X102460590Y-100482962D01*
X101828282Y-101115269D01*
X101828282Y-101115270D01*
X101882449Y-101154624D01*
X102071782Y-101251095D01*
X102273870Y-101316757D01*
X102483754Y-101350000D01*
X102696246Y-101350000D01*
X102906127Y-101316757D01*
X102906130Y-101316757D01*
X103108217Y-101251095D01*
X103297554Y-101154622D01*
X103351716Y-101115270D01*
X103351717Y-101115270D01*
X102719408Y-100482962D01*
X102782993Y-100465925D01*
X102897007Y-100400099D01*
X102990099Y-100307007D01*
X103055925Y-100192993D01*
X103072962Y-100129408D01*
X103705270Y-100761717D01*
X103705270Y-100761716D01*
X103744622Y-100707555D01*
X103749232Y-100698507D01*
X103797205Y-100647709D01*
X103865025Y-100630912D01*
X103931161Y-100653447D01*
X103970204Y-100698504D01*
X103974949Y-100707817D01*
X104099890Y-100879786D01*
X104250213Y-101030109D01*
X104422179Y-101155048D01*
X104422181Y-101155049D01*
X104422184Y-101155051D01*
X104611588Y-101251557D01*
X104813757Y-101317246D01*
X105023713Y-101350500D01*
X105023714Y-101350500D01*
X105236286Y-101350500D01*
X105236287Y-101350500D01*
X105446243Y-101317246D01*
X105648412Y-101251557D01*
X105837816Y-101155051D01*
X105902830Y-101107816D01*
X106009786Y-101030109D01*
X106009788Y-101030106D01*
X106009792Y-101030104D01*
X106160104Y-100879792D01*
X106160106Y-100879788D01*
X106160109Y-100879786D01*
X106285048Y-100707820D01*
X106285047Y-100707820D01*
X106285051Y-100707816D01*
X106289514Y-100699054D01*
X106337488Y-100648259D01*
X106405308Y-100631463D01*
X106471444Y-100653999D01*
X106510486Y-100699056D01*
X106514951Y-100707820D01*
X106639890Y-100879786D01*
X106639896Y-100879792D01*
X106790208Y-101030104D01*
X106962184Y-101155051D01*
X106962188Y-101155053D01*
X106966126Y-101157914D01*
X106965146Y-101159262D01*
X107007160Y-101205690D01*
X107019500Y-101259617D01*
X107019500Y-105383273D01*
X107019499Y-105383291D01*
X107019499Y-105548997D01*
X107019498Y-105548997D01*
X107060423Y-105701728D01*
X107063935Y-105707810D01*
X107063936Y-105707816D01*
X107063938Y-105707816D01*
X107139477Y-105838655D01*
X107139481Y-105838660D01*
X107258349Y-105957528D01*
X107258354Y-105957532D01*
X112781341Y-111480520D01*
X112781343Y-111480521D01*
X112781347Y-111480524D01*
X112918266Y-111559573D01*
X112918273Y-111559577D01*
X113071000Y-111600501D01*
X113071002Y-111600501D01*
X113236711Y-111600501D01*
X113236727Y-111600500D01*
X114920234Y-111600500D01*
X114987273Y-111620185D01*
X114989125Y-111621398D01*
X115120814Y-111709390D01*
X115120827Y-111709397D01*
X115266498Y-111769735D01*
X115266503Y-111769737D01*
X115421153Y-111800499D01*
X115421156Y-111800500D01*
X115421158Y-111800500D01*
X115578844Y-111800500D01*
X115578845Y-111800499D01*
X115733497Y-111769737D01*
X115879179Y-111709394D01*
X115879185Y-111709390D01*
X116010875Y-111621398D01*
X116077553Y-111600520D01*
X116079766Y-111600500D01*
X121199903Y-111600500D01*
X121266942Y-111620185D01*
X121287584Y-111636819D01*
X123165425Y-113514660D01*
X123198910Y-113575983D01*
X123199361Y-113578149D01*
X123230261Y-113733491D01*
X123230264Y-113733501D01*
X123290602Y-113879172D01*
X123290609Y-113879185D01*
X123378210Y-114010288D01*
X123378213Y-114010292D01*
X123489707Y-114121786D01*
X123489711Y-114121789D01*
X123620814Y-114209390D01*
X123620827Y-114209397D01*
X123766498Y-114269735D01*
X123766503Y-114269737D01*
X123921153Y-114300499D01*
X123921156Y-114300500D01*
X123921158Y-114300500D01*
X124078844Y-114300500D01*
X124078845Y-114300499D01*
X124233497Y-114269737D01*
X124379179Y-114209394D01*
X124510289Y-114121789D01*
X124549943Y-114082135D01*
X153149500Y-114082135D01*
X153149500Y-115877870D01*
X153149501Y-115877876D01*
X153155908Y-115937483D01*
X153206202Y-116072328D01*
X153206206Y-116072335D01*
X153292452Y-116187544D01*
X153292455Y-116187547D01*
X153407664Y-116273793D01*
X153407671Y-116273797D01*
X153542517Y-116324091D01*
X153542516Y-116324091D01*
X153549444Y-116324835D01*
X153602127Y-116330500D01*
X155397872Y-116330499D01*
X155457483Y-116324091D01*
X155592331Y-116273796D01*
X155707546Y-116187546D01*
X155793796Y-116072331D01*
X155842810Y-115940916D01*
X155884681Y-115884984D01*
X155950145Y-115860566D01*
X156018418Y-115875417D01*
X156046673Y-115896569D01*
X156160213Y-116010109D01*
X156332179Y-116135048D01*
X156332181Y-116135049D01*
X156332184Y-116135051D01*
X156521588Y-116231557D01*
X156723757Y-116297246D01*
X156933713Y-116330500D01*
X156933714Y-116330500D01*
X157146286Y-116330500D01*
X157146287Y-116330500D01*
X157356243Y-116297246D01*
X157558412Y-116231557D01*
X157747816Y-116135051D01*
X157834138Y-116072335D01*
X157919786Y-116010109D01*
X157919788Y-116010106D01*
X157919792Y-116010104D01*
X158070104Y-115859792D01*
X158070106Y-115859788D01*
X158070109Y-115859786D01*
X158195048Y-115687820D01*
X158195047Y-115687820D01*
X158195051Y-115687816D01*
X158291557Y-115498412D01*
X158357246Y-115296243D01*
X158390500Y-115086287D01*
X158390500Y-114873713D01*
X158357246Y-114663757D01*
X158291557Y-114461588D01*
X158195051Y-114272184D01*
X158195049Y-114272181D01*
X158195048Y-114272179D01*
X158070109Y-114100213D01*
X157919786Y-113949890D01*
X157747820Y-113824951D01*
X157558414Y-113728444D01*
X157558413Y-113728443D01*
X157558412Y-113728443D01*
X157356243Y-113662754D01*
X157356241Y-113662753D01*
X157356240Y-113662753D01*
X157190256Y-113636464D01*
X157146287Y-113629500D01*
X156933713Y-113629500D01*
X156889744Y-113636464D01*
X156723760Y-113662753D01*
X156521585Y-113728444D01*
X156332179Y-113824951D01*
X156160215Y-113949889D01*
X156046673Y-114063431D01*
X155985350Y-114096915D01*
X155915658Y-114091931D01*
X155859725Y-114050059D01*
X155842810Y-114019082D01*
X155793797Y-113887671D01*
X155793793Y-113887664D01*
X155707547Y-113772455D01*
X155707544Y-113772452D01*
X155592335Y-113686206D01*
X155592328Y-113686202D01*
X155457482Y-113635908D01*
X155457483Y-113635908D01*
X155397883Y-113629501D01*
X155397881Y-113629500D01*
X155397873Y-113629500D01*
X155397864Y-113629500D01*
X153602129Y-113629500D01*
X153602123Y-113629501D01*
X153542516Y-113635908D01*
X153407671Y-113686202D01*
X153407664Y-113686206D01*
X153292455Y-113772452D01*
X153292452Y-113772455D01*
X153206206Y-113887664D01*
X153206202Y-113887671D01*
X153155908Y-114022517D01*
X153149501Y-114082116D01*
X153149500Y-114082135D01*
X124549943Y-114082135D01*
X124621789Y-114010289D01*
X124703725Y-113887664D01*
X124709390Y-113879185D01*
X124709390Y-113879184D01*
X124709394Y-113879179D01*
X124769737Y-113733497D01*
X124789038Y-113636460D01*
X124821422Y-113574553D01*
X124882138Y-113539979D01*
X124886400Y-113539050D01*
X124983497Y-113519737D01*
X125129179Y-113459394D01*
X125260289Y-113371789D01*
X125371789Y-113260289D01*
X125459394Y-113129179D01*
X125519737Y-112983497D01*
X125550500Y-112828842D01*
X125550500Y-112671158D01*
X125550500Y-112671155D01*
X125550499Y-112671153D01*
X125519738Y-112516510D01*
X125519737Y-112516503D01*
X125519735Y-112516498D01*
X125459397Y-112370827D01*
X125459390Y-112370814D01*
X125371789Y-112239711D01*
X125371786Y-112239707D01*
X125260292Y-112128213D01*
X125260288Y-112128210D01*
X125129185Y-112040609D01*
X125129172Y-112040602D01*
X124983501Y-111980264D01*
X124983491Y-111980261D01*
X124828149Y-111949361D01*
X124766238Y-111916976D01*
X124764660Y-111915425D01*
X124227946Y-111378711D01*
X135149500Y-111378711D01*
X135149500Y-111621288D01*
X135181161Y-111861785D01*
X135243947Y-112096104D01*
X135303430Y-112239707D01*
X135336776Y-112320212D01*
X135458064Y-112530289D01*
X135458066Y-112530292D01*
X135458067Y-112530293D01*
X135605733Y-112722736D01*
X135605739Y-112722743D01*
X135777256Y-112894260D01*
X135777262Y-112894265D01*
X135969711Y-113041936D01*
X136179788Y-113163224D01*
X136403900Y-113256054D01*
X136638211Y-113318838D01*
X136818586Y-113342584D01*
X136878711Y-113350500D01*
X136878712Y-113350500D01*
X137121289Y-113350500D01*
X137169388Y-113344167D01*
X137361789Y-113318838D01*
X137596100Y-113256054D01*
X137820212Y-113163224D01*
X138030289Y-113041936D01*
X138222738Y-112894265D01*
X138394265Y-112722738D01*
X138541936Y-112530289D01*
X138663224Y-112320212D01*
X138756054Y-112096100D01*
X138818838Y-111861789D01*
X138850500Y-111621288D01*
X138850500Y-111378712D01*
X138818838Y-111138211D01*
X138756054Y-110903900D01*
X138663224Y-110679788D01*
X138541936Y-110469711D01*
X138481018Y-110390321D01*
X138394266Y-110277263D01*
X138394260Y-110277256D01*
X138222743Y-110105739D01*
X138222736Y-110105733D01*
X138030293Y-109958067D01*
X138030292Y-109958066D01*
X138030289Y-109958064D01*
X137820212Y-109836776D01*
X137820205Y-109836773D01*
X137596104Y-109743947D01*
X137361785Y-109681161D01*
X137121289Y-109649500D01*
X137121288Y-109649500D01*
X136878712Y-109649500D01*
X136878711Y-109649500D01*
X136638214Y-109681161D01*
X136403895Y-109743947D01*
X136179794Y-109836773D01*
X136179785Y-109836777D01*
X135969706Y-109958067D01*
X135777263Y-110105733D01*
X135777256Y-110105739D01*
X135605739Y-110277256D01*
X135605733Y-110277263D01*
X135458067Y-110469706D01*
X135336777Y-110679785D01*
X135336773Y-110679794D01*
X135243947Y-110903895D01*
X135181161Y-111138214D01*
X135149500Y-111378711D01*
X124227946Y-111378711D01*
X122487590Y-109638355D01*
X122487588Y-109638352D01*
X122368717Y-109519481D01*
X122368716Y-109519480D01*
X122281904Y-109469360D01*
X122281904Y-109469359D01*
X122281900Y-109469358D01*
X122231785Y-109440423D01*
X122079057Y-109399499D01*
X121920943Y-109399499D01*
X121913347Y-109399499D01*
X121913331Y-109399500D01*
X113579766Y-109399500D01*
X113512727Y-109379815D01*
X113510875Y-109378602D01*
X113379185Y-109290609D01*
X113379172Y-109290602D01*
X113233501Y-109230264D01*
X113233491Y-109230261D01*
X113078151Y-109199362D01*
X113016241Y-109166977D01*
X113014662Y-109165426D01*
X112551371Y-108702135D01*
X150649500Y-108702135D01*
X150649500Y-110497870D01*
X150649501Y-110497876D01*
X150655908Y-110557483D01*
X150706202Y-110692328D01*
X150706206Y-110692335D01*
X150792452Y-110807544D01*
X150792455Y-110807547D01*
X150907664Y-110893793D01*
X150907671Y-110893797D01*
X151042517Y-110944091D01*
X151042516Y-110944091D01*
X151049444Y-110944835D01*
X151102127Y-110950500D01*
X152897872Y-110950499D01*
X152957483Y-110944091D01*
X153092331Y-110893796D01*
X153207546Y-110807546D01*
X153293796Y-110692331D01*
X153342810Y-110560916D01*
X153384681Y-110504984D01*
X153450145Y-110480566D01*
X153518418Y-110495417D01*
X153546673Y-110516569D01*
X153660213Y-110630109D01*
X153832179Y-110755048D01*
X153832181Y-110755049D01*
X153832184Y-110755051D01*
X154021588Y-110851557D01*
X154223757Y-110917246D01*
X154433713Y-110950500D01*
X154433714Y-110950500D01*
X154646286Y-110950500D01*
X154646287Y-110950500D01*
X154856243Y-110917246D01*
X155058412Y-110851557D01*
X155247816Y-110755051D01*
X155334138Y-110692335D01*
X155419786Y-110630109D01*
X155419788Y-110630106D01*
X155419792Y-110630104D01*
X155570104Y-110479792D01*
X155570106Y-110479788D01*
X155570109Y-110479786D01*
X155655890Y-110361717D01*
X155695051Y-110307816D01*
X155699793Y-110298508D01*
X155747763Y-110247711D01*
X155815583Y-110230911D01*
X155881719Y-110253445D01*
X155920763Y-110298500D01*
X155925373Y-110307547D01*
X155964728Y-110361716D01*
X156597037Y-109729408D01*
X156614075Y-109792993D01*
X156679901Y-109907007D01*
X156772993Y-110000099D01*
X156887007Y-110065925D01*
X156950590Y-110082962D01*
X156318282Y-110715269D01*
X156318282Y-110715270D01*
X156372449Y-110754624D01*
X156561782Y-110851095D01*
X156763870Y-110916757D01*
X156973754Y-110950000D01*
X157186246Y-110950000D01*
X157396127Y-110916757D01*
X157396130Y-110916757D01*
X157598217Y-110851095D01*
X157787554Y-110754622D01*
X157841716Y-110715270D01*
X157841717Y-110715270D01*
X157209408Y-110082962D01*
X157272993Y-110065925D01*
X157387007Y-110000099D01*
X157480099Y-109907007D01*
X157545925Y-109792993D01*
X157562962Y-109729409D01*
X158195270Y-110361717D01*
X158195270Y-110361716D01*
X158234622Y-110307554D01*
X158331095Y-110118217D01*
X158396757Y-109916130D01*
X158396757Y-109916127D01*
X158430000Y-109706246D01*
X158430000Y-109493753D01*
X158396757Y-109283872D01*
X158396757Y-109283869D01*
X158331095Y-109081782D01*
X158234624Y-108892449D01*
X158195270Y-108838282D01*
X158195269Y-108838282D01*
X157562962Y-109470590D01*
X157545925Y-109407007D01*
X157480099Y-109292993D01*
X157387007Y-109199901D01*
X157272993Y-109134075D01*
X157209409Y-109117037D01*
X157841716Y-108484728D01*
X157787550Y-108445375D01*
X157598217Y-108348904D01*
X157396129Y-108283242D01*
X157186246Y-108250000D01*
X156973754Y-108250000D01*
X156763872Y-108283242D01*
X156763869Y-108283242D01*
X156561782Y-108348904D01*
X156372439Y-108445380D01*
X156318282Y-108484727D01*
X156318282Y-108484728D01*
X156950591Y-109117037D01*
X156887007Y-109134075D01*
X156772993Y-109199901D01*
X156679901Y-109292993D01*
X156614075Y-109407007D01*
X156597037Y-109470591D01*
X155964728Y-108838282D01*
X155964727Y-108838282D01*
X155925380Y-108892440D01*
X155925376Y-108892446D01*
X155920760Y-108901505D01*
X155872781Y-108952297D01*
X155804959Y-108969087D01*
X155738826Y-108946543D01*
X155699794Y-108901493D01*
X155695051Y-108892184D01*
X155695049Y-108892181D01*
X155695048Y-108892179D01*
X155570109Y-108720213D01*
X155419786Y-108569890D01*
X155247820Y-108444951D01*
X155058414Y-108348444D01*
X155058413Y-108348443D01*
X155058412Y-108348443D01*
X154856243Y-108282754D01*
X154856241Y-108282753D01*
X154856240Y-108282753D01*
X154694957Y-108257208D01*
X154646287Y-108249500D01*
X154433713Y-108249500D01*
X154385042Y-108257208D01*
X154223760Y-108282753D01*
X154021585Y-108348444D01*
X153832179Y-108444951D01*
X153660215Y-108569889D01*
X153546673Y-108683431D01*
X153485350Y-108716915D01*
X153415658Y-108711931D01*
X153359725Y-108670059D01*
X153342810Y-108639082D01*
X153293797Y-108507671D01*
X153293793Y-108507664D01*
X153207547Y-108392455D01*
X153207544Y-108392452D01*
X153092335Y-108306206D01*
X153092328Y-108306202D01*
X152957482Y-108255908D01*
X152957483Y-108255908D01*
X152897883Y-108249501D01*
X152897881Y-108249500D01*
X152897873Y-108249500D01*
X152897864Y-108249500D01*
X151102129Y-108249500D01*
X151102123Y-108249501D01*
X151042516Y-108255908D01*
X150907671Y-108306202D01*
X150907664Y-108306206D01*
X150792455Y-108392452D01*
X150792452Y-108392455D01*
X150706206Y-108507664D01*
X150706202Y-108507671D01*
X150655908Y-108642517D01*
X150649501Y-108702116D01*
X150649500Y-108702135D01*
X112551371Y-108702135D01*
X110796819Y-106947583D01*
X110763334Y-106886260D01*
X110760500Y-106859902D01*
X110760500Y-105043713D01*
X125489500Y-105043713D01*
X125489500Y-105256286D01*
X125522703Y-105465925D01*
X125522754Y-105466243D01*
X125539641Y-105518217D01*
X125588444Y-105668414D01*
X125684951Y-105857820D01*
X125809890Y-106029786D01*
X125960213Y-106180109D01*
X126132179Y-106305048D01*
X126132181Y-106305049D01*
X126132184Y-106305051D01*
X126321588Y-106401557D01*
X126523757Y-106467246D01*
X126733713Y-106500500D01*
X126733714Y-106500500D01*
X126946286Y-106500500D01*
X126946287Y-106500500D01*
X127156243Y-106467246D01*
X127358412Y-106401557D01*
X127547816Y-106305051D01*
X127621445Y-106251557D01*
X127719786Y-106180109D01*
X127719788Y-106180106D01*
X127719792Y-106180104D01*
X127870104Y-106029792D01*
X127870106Y-106029788D01*
X127870109Y-106029786D01*
X127995048Y-105857820D01*
X127995047Y-105857820D01*
X127995051Y-105857816D01*
X128091557Y-105668412D01*
X128157246Y-105466243D01*
X128190500Y-105256287D01*
X128190500Y-105043713D01*
X145809500Y-105043713D01*
X145809500Y-105256286D01*
X145842703Y-105465925D01*
X145842754Y-105466243D01*
X145859641Y-105518217D01*
X145908444Y-105668414D01*
X146004951Y-105857820D01*
X146129890Y-106029786D01*
X146280213Y-106180109D01*
X146452179Y-106305048D01*
X146452181Y-106305049D01*
X146452184Y-106305051D01*
X146641588Y-106401557D01*
X146843757Y-106467246D01*
X147053713Y-106500500D01*
X147053714Y-106500500D01*
X147266286Y-106500500D01*
X147266287Y-106500500D01*
X147476243Y-106467246D01*
X147678412Y-106401557D01*
X147867816Y-106305051D01*
X147941445Y-106251557D01*
X148039786Y-106180109D01*
X148039788Y-106180106D01*
X148039792Y-106180104D01*
X148190104Y-106029792D01*
X148190106Y-106029788D01*
X148190109Y-106029786D01*
X148315048Y-105857820D01*
X148315047Y-105857820D01*
X148315051Y-105857816D01*
X148411557Y-105668412D01*
X148477246Y-105466243D01*
X148510500Y-105256287D01*
X148510500Y-105043713D01*
X148477246Y-104833757D01*
X148411557Y-104631588D01*
X148315051Y-104442184D01*
X148315049Y-104442181D01*
X148315048Y-104442179D01*
X148190109Y-104270213D01*
X148039786Y-104119890D01*
X148015348Y-104102135D01*
X150649500Y-104102135D01*
X150649500Y-105897870D01*
X150649501Y-105897876D01*
X150655908Y-105957483D01*
X150706202Y-106092328D01*
X150706206Y-106092335D01*
X150792452Y-106207544D01*
X150792455Y-106207547D01*
X150907664Y-106293793D01*
X150907671Y-106293797D01*
X151042517Y-106344091D01*
X151042516Y-106344091D01*
X151049444Y-106344835D01*
X151102127Y-106350500D01*
X152897872Y-106350499D01*
X152957483Y-106344091D01*
X153092331Y-106293796D01*
X153207546Y-106207546D01*
X153293796Y-106092331D01*
X153342810Y-105960916D01*
X153384681Y-105904984D01*
X153450145Y-105880566D01*
X153518418Y-105895417D01*
X153546673Y-105916569D01*
X153660213Y-106030109D01*
X153832179Y-106155048D01*
X153832181Y-106155049D01*
X153832184Y-106155051D01*
X154021588Y-106251557D01*
X154223757Y-106317246D01*
X154433713Y-106350500D01*
X154433714Y-106350500D01*
X154646286Y-106350500D01*
X154646287Y-106350500D01*
X154856243Y-106317246D01*
X155058412Y-106251557D01*
X155247816Y-106155051D01*
X155334138Y-106092335D01*
X155419786Y-106030109D01*
X155419788Y-106030106D01*
X155419792Y-106030104D01*
X155570104Y-105879792D01*
X155570106Y-105879788D01*
X155570109Y-105879786D01*
X155655890Y-105761717D01*
X155695051Y-105707816D01*
X155699793Y-105698508D01*
X155747763Y-105647711D01*
X155815583Y-105630911D01*
X155881719Y-105653445D01*
X155920763Y-105698500D01*
X155925373Y-105707547D01*
X155964728Y-105761716D01*
X156597037Y-105129408D01*
X156614075Y-105192993D01*
X156679901Y-105307007D01*
X156772993Y-105400099D01*
X156887007Y-105465925D01*
X156950590Y-105482962D01*
X156318282Y-106115269D01*
X156318282Y-106115270D01*
X156372449Y-106154624D01*
X156561782Y-106251095D01*
X156763870Y-106316757D01*
X156973754Y-106350000D01*
X157186246Y-106350000D01*
X157396127Y-106316757D01*
X157396130Y-106316757D01*
X157598217Y-106251095D01*
X157787554Y-106154622D01*
X157841716Y-106115270D01*
X157841717Y-106115270D01*
X157209408Y-105482962D01*
X157272993Y-105465925D01*
X157387007Y-105400099D01*
X157480099Y-105307007D01*
X157545925Y-105192993D01*
X157562962Y-105129409D01*
X158195270Y-105761717D01*
X158195270Y-105761716D01*
X158234622Y-105707554D01*
X158331095Y-105518217D01*
X158396757Y-105316130D01*
X158396757Y-105316127D01*
X158430000Y-105106246D01*
X158430000Y-104893753D01*
X158396757Y-104683872D01*
X158396757Y-104683869D01*
X158331095Y-104481782D01*
X158234624Y-104292449D01*
X158195270Y-104238282D01*
X158195269Y-104238282D01*
X157562962Y-104870590D01*
X157545925Y-104807007D01*
X157480099Y-104692993D01*
X157387007Y-104599901D01*
X157272993Y-104534075D01*
X157209409Y-104517037D01*
X157841716Y-103884728D01*
X157787550Y-103845375D01*
X157598217Y-103748904D01*
X157396129Y-103683242D01*
X157186246Y-103650000D01*
X156973754Y-103650000D01*
X156763872Y-103683242D01*
X156763869Y-103683242D01*
X156561782Y-103748904D01*
X156372439Y-103845380D01*
X156318282Y-103884727D01*
X156318282Y-103884728D01*
X156950591Y-104517037D01*
X156887007Y-104534075D01*
X156772993Y-104599901D01*
X156679901Y-104692993D01*
X156614075Y-104807007D01*
X156597037Y-104870591D01*
X155964728Y-104238282D01*
X155964727Y-104238282D01*
X155925380Y-104292440D01*
X155925376Y-104292446D01*
X155920760Y-104301505D01*
X155872781Y-104352297D01*
X155804959Y-104369087D01*
X155738826Y-104346543D01*
X155699794Y-104301493D01*
X155695051Y-104292184D01*
X155695049Y-104292181D01*
X155695048Y-104292179D01*
X155570109Y-104120213D01*
X155419786Y-103969890D01*
X155247820Y-103844951D01*
X155058414Y-103748444D01*
X155058413Y-103748443D01*
X155058412Y-103748443D01*
X154856243Y-103682754D01*
X154856241Y-103682753D01*
X154856240Y-103682753D01*
X154694957Y-103657208D01*
X154646287Y-103649500D01*
X154433713Y-103649500D01*
X154385042Y-103657208D01*
X154223760Y-103682753D01*
X154021585Y-103748444D01*
X153832179Y-103844951D01*
X153660215Y-103969889D01*
X153546673Y-104083431D01*
X153485350Y-104116915D01*
X153415658Y-104111931D01*
X153359725Y-104070059D01*
X153342810Y-104039082D01*
X153293797Y-103907671D01*
X153293793Y-103907664D01*
X153207547Y-103792455D01*
X153207544Y-103792452D01*
X153092335Y-103706206D01*
X153092328Y-103706202D01*
X152957482Y-103655908D01*
X152957483Y-103655908D01*
X152897883Y-103649501D01*
X152897881Y-103649500D01*
X152897873Y-103649500D01*
X152897864Y-103649500D01*
X151102129Y-103649500D01*
X151102123Y-103649501D01*
X151042516Y-103655908D01*
X150907671Y-103706202D01*
X150907664Y-103706206D01*
X150792455Y-103792452D01*
X150792452Y-103792455D01*
X150706206Y-103907664D01*
X150706202Y-103907671D01*
X150655908Y-104042517D01*
X150649501Y-104102116D01*
X150649500Y-104102135D01*
X148015348Y-104102135D01*
X147867820Y-103994951D01*
X147678414Y-103898444D01*
X147678413Y-103898443D01*
X147678412Y-103898443D01*
X147476243Y-103832754D01*
X147476241Y-103832753D01*
X147476240Y-103832753D01*
X147314957Y-103807208D01*
X147266287Y-103799500D01*
X147053713Y-103799500D01*
X147005042Y-103807208D01*
X146843760Y-103832753D01*
X146641585Y-103898444D01*
X146452179Y-103994951D01*
X146280213Y-104119890D01*
X146129890Y-104270213D01*
X146004951Y-104442179D01*
X145908444Y-104631585D01*
X145842753Y-104833760D01*
X145809500Y-105043713D01*
X128190500Y-105043713D01*
X128157246Y-104833757D01*
X128091557Y-104631588D01*
X127995051Y-104442184D01*
X127995049Y-104442181D01*
X127995048Y-104442179D01*
X127870109Y-104270213D01*
X127719786Y-104119890D01*
X127547820Y-103994951D01*
X127358414Y-103898444D01*
X127358413Y-103898443D01*
X127358412Y-103898443D01*
X127156243Y-103832754D01*
X127156241Y-103832753D01*
X127156240Y-103832753D01*
X126994957Y-103807208D01*
X126946287Y-103799500D01*
X126733713Y-103799500D01*
X126685042Y-103807208D01*
X126523760Y-103832753D01*
X126321585Y-103898444D01*
X126132179Y-103994951D01*
X125960213Y-104119890D01*
X125809890Y-104270213D01*
X125684951Y-104442179D01*
X125588444Y-104631585D01*
X125522753Y-104833760D01*
X125489500Y-105043713D01*
X110760500Y-105043713D01*
X110760500Y-101311194D01*
X110780185Y-101244155D01*
X110828205Y-101200709D01*
X110917816Y-101155051D01*
X111065558Y-101047711D01*
X111089786Y-101030109D01*
X111089788Y-101030106D01*
X111089792Y-101030104D01*
X111240104Y-100879792D01*
X111240106Y-100879788D01*
X111240109Y-100879786D01*
X111365048Y-100707820D01*
X111365047Y-100707820D01*
X111365051Y-100707816D01*
X111369514Y-100699054D01*
X111417488Y-100648259D01*
X111485308Y-100631463D01*
X111551444Y-100653999D01*
X111590486Y-100699056D01*
X111594951Y-100707820D01*
X111719890Y-100879786D01*
X111870213Y-101030109D01*
X112042179Y-101155048D01*
X112042181Y-101155049D01*
X112042184Y-101155051D01*
X112231588Y-101251557D01*
X112433757Y-101317246D01*
X112643713Y-101350500D01*
X112643714Y-101350500D01*
X112856286Y-101350500D01*
X112856287Y-101350500D01*
X113066243Y-101317246D01*
X113268412Y-101251557D01*
X113457816Y-101155051D01*
X113522830Y-101107816D01*
X113629786Y-101030109D01*
X113629788Y-101030106D01*
X113629792Y-101030104D01*
X113780104Y-100879792D01*
X113780106Y-100879788D01*
X113780109Y-100879786D01*
X113905048Y-100707820D01*
X113905047Y-100707820D01*
X113905051Y-100707816D01*
X113909514Y-100699054D01*
X113957488Y-100648259D01*
X114025308Y-100631463D01*
X114091444Y-100653999D01*
X114130486Y-100699056D01*
X114134951Y-100707820D01*
X114259890Y-100879786D01*
X114410213Y-101030109D01*
X114582179Y-101155048D01*
X114582181Y-101155049D01*
X114582184Y-101155051D01*
X114771588Y-101251557D01*
X114973757Y-101317246D01*
X115183713Y-101350500D01*
X115183714Y-101350500D01*
X115396286Y-101350500D01*
X115396287Y-101350500D01*
X115606243Y-101317246D01*
X115808412Y-101251557D01*
X115997816Y-101155051D01*
X116062830Y-101107816D01*
X116169786Y-101030109D01*
X116169788Y-101030106D01*
X116169792Y-101030104D01*
X116320104Y-100879792D01*
X116320106Y-100879788D01*
X116320109Y-100879786D01*
X116445048Y-100707820D01*
X116445047Y-100707820D01*
X116445051Y-100707816D01*
X116449514Y-100699054D01*
X116497488Y-100648259D01*
X116565308Y-100631463D01*
X116631444Y-100653999D01*
X116670486Y-100699056D01*
X116674951Y-100707820D01*
X116799890Y-100879786D01*
X116950213Y-101030109D01*
X117122179Y-101155048D01*
X117122181Y-101155049D01*
X117122184Y-101155051D01*
X117311588Y-101251557D01*
X117513757Y-101317246D01*
X117723713Y-101350500D01*
X117723714Y-101350500D01*
X117936286Y-101350500D01*
X117936287Y-101350500D01*
X118146243Y-101317246D01*
X118348412Y-101251557D01*
X118537816Y-101155051D01*
X118602830Y-101107816D01*
X118709786Y-101030109D01*
X118709788Y-101030106D01*
X118709792Y-101030104D01*
X118860104Y-100879792D01*
X118860106Y-100879788D01*
X118860109Y-100879786D01*
X118985048Y-100707820D01*
X118985047Y-100707820D01*
X118985051Y-100707816D01*
X118989514Y-100699054D01*
X119037488Y-100648259D01*
X119105308Y-100631463D01*
X119171444Y-100653999D01*
X119210486Y-100699056D01*
X119214951Y-100707820D01*
X119339890Y-100879786D01*
X119490213Y-101030109D01*
X119662179Y-101155048D01*
X119662181Y-101155049D01*
X119662184Y-101155051D01*
X119851588Y-101251557D01*
X120053757Y-101317246D01*
X120263713Y-101350500D01*
X120263714Y-101350500D01*
X120476286Y-101350500D01*
X120476287Y-101350500D01*
X120686243Y-101317246D01*
X120888412Y-101251557D01*
X121077816Y-101155051D01*
X121142830Y-101107816D01*
X121249786Y-101030109D01*
X121249788Y-101030106D01*
X121249792Y-101030104D01*
X121400104Y-100879792D01*
X121400106Y-100879788D01*
X121400109Y-100879786D01*
X121525048Y-100707820D01*
X121525047Y-100707820D01*
X121525051Y-100707816D01*
X121529514Y-100699054D01*
X121577488Y-100648259D01*
X121645308Y-100631463D01*
X121711444Y-100653999D01*
X121750486Y-100699056D01*
X121754951Y-100707820D01*
X121879890Y-100879786D01*
X122030213Y-101030109D01*
X122202179Y-101155048D01*
X122202181Y-101155049D01*
X122202184Y-101155051D01*
X122391588Y-101251557D01*
X122593757Y-101317246D01*
X122803713Y-101350500D01*
X122803714Y-101350500D01*
X123016286Y-101350500D01*
X123016287Y-101350500D01*
X123226243Y-101317246D01*
X123428412Y-101251557D01*
X123617816Y-101155051D01*
X123682830Y-101107816D01*
X123789786Y-101030109D01*
X123789788Y-101030106D01*
X123789792Y-101030104D01*
X123940104Y-100879792D01*
X123940106Y-100879788D01*
X123940109Y-100879786D01*
X124065048Y-100707820D01*
X124065047Y-100707820D01*
X124065051Y-100707816D01*
X124069514Y-100699054D01*
X124117488Y-100648259D01*
X124185308Y-100631463D01*
X124251444Y-100653999D01*
X124290486Y-100699056D01*
X124294951Y-100707820D01*
X124419890Y-100879786D01*
X124570213Y-101030109D01*
X124742179Y-101155048D01*
X124742181Y-101155049D01*
X124742184Y-101155051D01*
X124931588Y-101251557D01*
X125133757Y-101317246D01*
X125343713Y-101350500D01*
X125343714Y-101350500D01*
X125556286Y-101350500D01*
X125556287Y-101350500D01*
X125766243Y-101317246D01*
X125968412Y-101251557D01*
X126157816Y-101155051D01*
X126222830Y-101107816D01*
X126329786Y-101030109D01*
X126329788Y-101030106D01*
X126329792Y-101030104D01*
X126480104Y-100879792D01*
X126480106Y-100879788D01*
X126480109Y-100879786D01*
X126605048Y-100707820D01*
X126605047Y-100707820D01*
X126605051Y-100707816D01*
X126609514Y-100699054D01*
X126657488Y-100648259D01*
X126725308Y-100631463D01*
X126791444Y-100653999D01*
X126830486Y-100699056D01*
X126834951Y-100707820D01*
X126959890Y-100879786D01*
X127110213Y-101030109D01*
X127282179Y-101155048D01*
X127282181Y-101155049D01*
X127282184Y-101155051D01*
X127471588Y-101251557D01*
X127673757Y-101317246D01*
X127883713Y-101350500D01*
X127883714Y-101350500D01*
X128096286Y-101350500D01*
X128096287Y-101350500D01*
X128306243Y-101317246D01*
X128508412Y-101251557D01*
X128697816Y-101155051D01*
X128762830Y-101107816D01*
X128869786Y-101030109D01*
X128869788Y-101030106D01*
X128869792Y-101030104D01*
X129020104Y-100879792D01*
X129020106Y-100879788D01*
X129020109Y-100879786D01*
X129145048Y-100707820D01*
X129145047Y-100707820D01*
X129145051Y-100707816D01*
X129149514Y-100699054D01*
X129197488Y-100648259D01*
X129265308Y-100631463D01*
X129331444Y-100653999D01*
X129370486Y-100699056D01*
X129374951Y-100707820D01*
X129499890Y-100879786D01*
X129650213Y-101030109D01*
X129822179Y-101155048D01*
X129822181Y-101155049D01*
X129822184Y-101155051D01*
X130011588Y-101251557D01*
X130213757Y-101317246D01*
X130423713Y-101350500D01*
X130423714Y-101350500D01*
X130636286Y-101350500D01*
X130636287Y-101350500D01*
X130846243Y-101317246D01*
X131048412Y-101251557D01*
X131237816Y-101155051D01*
X131302830Y-101107816D01*
X131409786Y-101030109D01*
X131409788Y-101030106D01*
X131409792Y-101030104D01*
X131560104Y-100879792D01*
X131560106Y-100879788D01*
X131560109Y-100879786D01*
X131685048Y-100707820D01*
X131685047Y-100707820D01*
X131685051Y-100707816D01*
X131689514Y-100699054D01*
X131737488Y-100648259D01*
X131805308Y-100631463D01*
X131871444Y-100653999D01*
X131910486Y-100699056D01*
X131914951Y-100707820D01*
X132039890Y-100879786D01*
X132190213Y-101030109D01*
X132362179Y-101155048D01*
X132362181Y-101155049D01*
X132362184Y-101155051D01*
X132551588Y-101251557D01*
X132753757Y-101317246D01*
X132963713Y-101350500D01*
X132963714Y-101350500D01*
X133176286Y-101350500D01*
X133176287Y-101350500D01*
X133386243Y-101317246D01*
X133588412Y-101251557D01*
X133777816Y-101155051D01*
X133842830Y-101107816D01*
X133949786Y-101030109D01*
X133949788Y-101030106D01*
X133949792Y-101030104D01*
X134100104Y-100879792D01*
X134100106Y-100879788D01*
X134100109Y-100879786D01*
X134225048Y-100707820D01*
X134225047Y-100707820D01*
X134225051Y-100707816D01*
X134229514Y-100699054D01*
X134277488Y-100648259D01*
X134345308Y-100631463D01*
X134411444Y-100653999D01*
X134450486Y-100699056D01*
X134454951Y-100707820D01*
X134579890Y-100879786D01*
X134730213Y-101030109D01*
X134902179Y-101155048D01*
X134902181Y-101155049D01*
X134902184Y-101155051D01*
X135091588Y-101251557D01*
X135293757Y-101317246D01*
X135503713Y-101350500D01*
X135503714Y-101350500D01*
X135716286Y-101350500D01*
X135716287Y-101350500D01*
X135926243Y-101317246D01*
X136128412Y-101251557D01*
X136317816Y-101155051D01*
X136475889Y-101040205D01*
X136489784Y-101030110D01*
X136489784Y-101030109D01*
X136489792Y-101030104D01*
X136603329Y-100916566D01*
X136664648Y-100883084D01*
X136734340Y-100888068D01*
X136790274Y-100929939D01*
X136807189Y-100960917D01*
X136856202Y-101092328D01*
X136856206Y-101092335D01*
X136942452Y-101207544D01*
X136942455Y-101207547D01*
X137057664Y-101293793D01*
X137057671Y-101293797D01*
X137192517Y-101344091D01*
X137192516Y-101344091D01*
X137199444Y-101344835D01*
X137252127Y-101350500D01*
X139047872Y-101350499D01*
X139107483Y-101344091D01*
X139242331Y-101293796D01*
X139357546Y-101207546D01*
X139443796Y-101092331D01*
X139494091Y-100957483D01*
X139500500Y-100897873D01*
X139500499Y-99502135D01*
X150649500Y-99502135D01*
X150649500Y-101297870D01*
X150649501Y-101297876D01*
X150655908Y-101357483D01*
X150706202Y-101492328D01*
X150706206Y-101492335D01*
X150792452Y-101607544D01*
X150792455Y-101607547D01*
X150907664Y-101693793D01*
X150907671Y-101693797D01*
X151042517Y-101744091D01*
X151042516Y-101744091D01*
X151049444Y-101744835D01*
X151102127Y-101750500D01*
X152897872Y-101750499D01*
X152957483Y-101744091D01*
X153092331Y-101693796D01*
X153207546Y-101607546D01*
X153293796Y-101492331D01*
X153342810Y-101360916D01*
X153384681Y-101304984D01*
X153450145Y-101280566D01*
X153518418Y-101295417D01*
X153546673Y-101316569D01*
X153660213Y-101430109D01*
X153832179Y-101555048D01*
X153832181Y-101555049D01*
X153832184Y-101555051D01*
X154021588Y-101651557D01*
X154223757Y-101717246D01*
X154433713Y-101750500D01*
X154433714Y-101750500D01*
X154646286Y-101750500D01*
X154646287Y-101750500D01*
X154856243Y-101717246D01*
X155058412Y-101651557D01*
X155247816Y-101555051D01*
X155334138Y-101492335D01*
X155419786Y-101430109D01*
X155419788Y-101430106D01*
X155419792Y-101430104D01*
X155570104Y-101279792D01*
X155570106Y-101279788D01*
X155570109Y-101279786D01*
X155655890Y-101161717D01*
X155695051Y-101107816D01*
X155699793Y-101098508D01*
X155747763Y-101047711D01*
X155815583Y-101030911D01*
X155881719Y-101053445D01*
X155920763Y-101098500D01*
X155925373Y-101107547D01*
X155964728Y-101161716D01*
X156597037Y-100529408D01*
X156614075Y-100592993D01*
X156679901Y-100707007D01*
X156772993Y-100800099D01*
X156887007Y-100865925D01*
X156950590Y-100882962D01*
X156318282Y-101515269D01*
X156318282Y-101515270D01*
X156372449Y-101554624D01*
X156561782Y-101651095D01*
X156763870Y-101716757D01*
X156973754Y-101750000D01*
X157186246Y-101750000D01*
X157396127Y-101716757D01*
X157396130Y-101716757D01*
X157598217Y-101651095D01*
X157787554Y-101554622D01*
X157841716Y-101515270D01*
X157841717Y-101515270D01*
X157209408Y-100882962D01*
X157272993Y-100865925D01*
X157387007Y-100800099D01*
X157480099Y-100707007D01*
X157545925Y-100592993D01*
X157562962Y-100529409D01*
X158195270Y-101161717D01*
X158195270Y-101161716D01*
X158234622Y-101107554D01*
X158331095Y-100918217D01*
X158396757Y-100716130D01*
X158396757Y-100716127D01*
X158430000Y-100506246D01*
X158430000Y-100293753D01*
X158396757Y-100083872D01*
X158396757Y-100083869D01*
X158331095Y-99881782D01*
X158234624Y-99692449D01*
X158195270Y-99638282D01*
X158195269Y-99638282D01*
X157562962Y-100270590D01*
X157545925Y-100207007D01*
X157480099Y-100092993D01*
X157387007Y-99999901D01*
X157272993Y-99934075D01*
X157209409Y-99917037D01*
X157841716Y-99284728D01*
X157787550Y-99245375D01*
X157598217Y-99148904D01*
X157396129Y-99083242D01*
X157186246Y-99050000D01*
X156973754Y-99050000D01*
X156763872Y-99083242D01*
X156763869Y-99083242D01*
X156561782Y-99148904D01*
X156372439Y-99245380D01*
X156318282Y-99284727D01*
X156318282Y-99284728D01*
X156950591Y-99917037D01*
X156887007Y-99934075D01*
X156772993Y-99999901D01*
X156679901Y-100092993D01*
X156614075Y-100207007D01*
X156597037Y-100270591D01*
X155964728Y-99638282D01*
X155964727Y-99638282D01*
X155925380Y-99692440D01*
X155925376Y-99692446D01*
X155920760Y-99701505D01*
X155872781Y-99752297D01*
X155804959Y-99769087D01*
X155738826Y-99746543D01*
X155699794Y-99701493D01*
X155695051Y-99692184D01*
X155695049Y-99692181D01*
X155695048Y-99692179D01*
X155570109Y-99520213D01*
X155419786Y-99369890D01*
X155247820Y-99244951D01*
X155058414Y-99148444D01*
X155058413Y-99148443D01*
X155058412Y-99148443D01*
X154856243Y-99082754D01*
X154856241Y-99082753D01*
X154856240Y-99082753D01*
X154694957Y-99057208D01*
X154646287Y-99049500D01*
X154433713Y-99049500D01*
X154385042Y-99057208D01*
X154223760Y-99082753D01*
X154021585Y-99148444D01*
X153832179Y-99244951D01*
X153660215Y-99369889D01*
X153546673Y-99483431D01*
X153485350Y-99516915D01*
X153415658Y-99511931D01*
X153359725Y-99470059D01*
X153342810Y-99439082D01*
X153293797Y-99307671D01*
X153293793Y-99307664D01*
X153207547Y-99192455D01*
X153207544Y-99192452D01*
X153092335Y-99106206D01*
X153092328Y-99106202D01*
X152957482Y-99055908D01*
X152957483Y-99055908D01*
X152897883Y-99049501D01*
X152897881Y-99049500D01*
X152897873Y-99049500D01*
X152897864Y-99049500D01*
X151102129Y-99049500D01*
X151102123Y-99049501D01*
X151042516Y-99055908D01*
X150907671Y-99106202D01*
X150907664Y-99106206D01*
X150792455Y-99192452D01*
X150792452Y-99192455D01*
X150706206Y-99307664D01*
X150706202Y-99307671D01*
X150655908Y-99442517D01*
X150649501Y-99502116D01*
X150649500Y-99502135D01*
X139500499Y-99502135D01*
X139500499Y-99102128D01*
X139494091Y-99042517D01*
X139492810Y-99039083D01*
X139443797Y-98907671D01*
X139443793Y-98907664D01*
X139357547Y-98792455D01*
X139357544Y-98792452D01*
X139242335Y-98706206D01*
X139242328Y-98706202D01*
X139107482Y-98655908D01*
X139107483Y-98655908D01*
X139047883Y-98649501D01*
X139047881Y-98649500D01*
X139047873Y-98649500D01*
X139047864Y-98649500D01*
X137252129Y-98649500D01*
X137252123Y-98649501D01*
X137192516Y-98655908D01*
X137057671Y-98706202D01*
X137057664Y-98706206D01*
X136942455Y-98792452D01*
X136942452Y-98792455D01*
X136856206Y-98907664D01*
X136856203Y-98907669D01*
X136807189Y-99039083D01*
X136765317Y-99095016D01*
X136699853Y-99119433D01*
X136631580Y-99104581D01*
X136603326Y-99083430D01*
X136489786Y-98969890D01*
X136317820Y-98844951D01*
X136128414Y-98748444D01*
X136128413Y-98748443D01*
X136128412Y-98748443D01*
X135926243Y-98682754D01*
X135926241Y-98682753D01*
X135926240Y-98682753D01*
X135764957Y-98657208D01*
X135716287Y-98649500D01*
X135503713Y-98649500D01*
X135455042Y-98657208D01*
X135293760Y-98682753D01*
X135091585Y-98748444D01*
X134902179Y-98844951D01*
X134730213Y-98969890D01*
X134579890Y-99120213D01*
X134454949Y-99292182D01*
X134450484Y-99300946D01*
X134402509Y-99351742D01*
X134334688Y-99368536D01*
X134268553Y-99345998D01*
X134229516Y-99300946D01*
X134225050Y-99292182D01*
X134100109Y-99120213D01*
X133949786Y-98969890D01*
X133777820Y-98844951D01*
X133588414Y-98748444D01*
X133588413Y-98748443D01*
X133588412Y-98748443D01*
X133386243Y-98682754D01*
X133386241Y-98682753D01*
X133386240Y-98682753D01*
X133224957Y-98657208D01*
X133176287Y-98649500D01*
X132963713Y-98649500D01*
X132915042Y-98657208D01*
X132753760Y-98682753D01*
X132551585Y-98748444D01*
X132362179Y-98844951D01*
X132190213Y-98969890D01*
X132039890Y-99120213D01*
X131914949Y-99292182D01*
X131910484Y-99300946D01*
X131862509Y-99351742D01*
X131794688Y-99368536D01*
X131728553Y-99345998D01*
X131689516Y-99300946D01*
X131685050Y-99292182D01*
X131560109Y-99120213D01*
X131409786Y-98969890D01*
X131237820Y-98844951D01*
X131048414Y-98748444D01*
X131048413Y-98748443D01*
X131048412Y-98748443D01*
X130846243Y-98682754D01*
X130846241Y-98682753D01*
X130846240Y-98682753D01*
X130684957Y-98657208D01*
X130636287Y-98649500D01*
X130423713Y-98649500D01*
X130375042Y-98657208D01*
X130213760Y-98682753D01*
X130011585Y-98748444D01*
X129822179Y-98844951D01*
X129650213Y-98969890D01*
X129499890Y-99120213D01*
X129374949Y-99292182D01*
X129370484Y-99300946D01*
X129322509Y-99351742D01*
X129254688Y-99368536D01*
X129188553Y-99345998D01*
X129149516Y-99300946D01*
X129145050Y-99292182D01*
X129020109Y-99120213D01*
X128869786Y-98969890D01*
X128697820Y-98844951D01*
X128508414Y-98748444D01*
X128508413Y-98748443D01*
X128508412Y-98748443D01*
X128306243Y-98682754D01*
X128306241Y-98682753D01*
X128306240Y-98682753D01*
X128144957Y-98657208D01*
X128096287Y-98649500D01*
X127883713Y-98649500D01*
X127835042Y-98657208D01*
X127673760Y-98682753D01*
X127471585Y-98748444D01*
X127282179Y-98844951D01*
X127110213Y-98969890D01*
X126959890Y-99120213D01*
X126834949Y-99292182D01*
X126830484Y-99300946D01*
X126782509Y-99351742D01*
X126714688Y-99368536D01*
X126648553Y-99345998D01*
X126609516Y-99300946D01*
X126605050Y-99292182D01*
X126480109Y-99120213D01*
X126329786Y-98969890D01*
X126157820Y-98844951D01*
X125968414Y-98748444D01*
X125968413Y-98748443D01*
X125968412Y-98748443D01*
X125766243Y-98682754D01*
X125766241Y-98682753D01*
X125766240Y-98682753D01*
X125604957Y-98657208D01*
X125556287Y-98649500D01*
X125343713Y-98649500D01*
X125295042Y-98657208D01*
X125133760Y-98682753D01*
X124931585Y-98748444D01*
X124742179Y-98844951D01*
X124570213Y-98969890D01*
X124419890Y-99120213D01*
X124294949Y-99292182D01*
X124290484Y-99300946D01*
X124242509Y-99351742D01*
X124174688Y-99368536D01*
X124108553Y-99345998D01*
X124069516Y-99300946D01*
X124065050Y-99292182D01*
X123940109Y-99120213D01*
X123789786Y-98969890D01*
X123617820Y-98844951D01*
X123428414Y-98748444D01*
X123428413Y-98748443D01*
X123428412Y-98748443D01*
X123226243Y-98682754D01*
X123226241Y-98682753D01*
X123226240Y-98682753D01*
X123064957Y-98657208D01*
X123016287Y-98649500D01*
X122803713Y-98649500D01*
X122755042Y-98657208D01*
X122593760Y-98682753D01*
X122391585Y-98748444D01*
X122202179Y-98844951D01*
X122030213Y-98969890D01*
X121879890Y-99120213D01*
X121754949Y-99292182D01*
X121750484Y-99300946D01*
X121702509Y-99351742D01*
X121634688Y-99368536D01*
X121568553Y-99345998D01*
X121529516Y-99300946D01*
X121525050Y-99292182D01*
X121400109Y-99120213D01*
X121249786Y-98969890D01*
X121077820Y-98844951D01*
X120888414Y-98748444D01*
X120888413Y-98748443D01*
X120888412Y-98748443D01*
X120686243Y-98682754D01*
X120686241Y-98682753D01*
X120686240Y-98682753D01*
X120524957Y-98657208D01*
X120476287Y-98649500D01*
X120263713Y-98649500D01*
X120215042Y-98657208D01*
X120053760Y-98682753D01*
X119851585Y-98748444D01*
X119662179Y-98844951D01*
X119490213Y-98969890D01*
X119339890Y-99120213D01*
X119214949Y-99292182D01*
X119210484Y-99300946D01*
X119162509Y-99351742D01*
X119094688Y-99368536D01*
X119028553Y-99345998D01*
X118989516Y-99300946D01*
X118985050Y-99292182D01*
X118860109Y-99120213D01*
X118709786Y-98969890D01*
X118537820Y-98844951D01*
X118348414Y-98748444D01*
X118348413Y-98748443D01*
X118348412Y-98748443D01*
X118146243Y-98682754D01*
X118146241Y-98682753D01*
X118146240Y-98682753D01*
X117984957Y-98657208D01*
X117936287Y-98649500D01*
X117723713Y-98649500D01*
X117675042Y-98657208D01*
X117513760Y-98682753D01*
X117311585Y-98748444D01*
X117122179Y-98844951D01*
X116950213Y-98969890D01*
X116799890Y-99120213D01*
X116674949Y-99292182D01*
X116670484Y-99300946D01*
X116622509Y-99351742D01*
X116554688Y-99368536D01*
X116488553Y-99345998D01*
X116449516Y-99300946D01*
X116445050Y-99292182D01*
X116320109Y-99120213D01*
X116169786Y-98969890D01*
X115997820Y-98844951D01*
X115808414Y-98748444D01*
X115808413Y-98748443D01*
X115808412Y-98748443D01*
X115606243Y-98682754D01*
X115606241Y-98682753D01*
X115606240Y-98682753D01*
X115444957Y-98657208D01*
X115396287Y-98649500D01*
X115183713Y-98649500D01*
X115135042Y-98657208D01*
X114973760Y-98682753D01*
X114771585Y-98748444D01*
X114582179Y-98844951D01*
X114410213Y-98969890D01*
X114259890Y-99120213D01*
X114134949Y-99292182D01*
X114130484Y-99300946D01*
X114082509Y-99351742D01*
X114014688Y-99368536D01*
X113948553Y-99345998D01*
X113909516Y-99300946D01*
X113905050Y-99292182D01*
X113780109Y-99120213D01*
X113629786Y-98969890D01*
X113457820Y-98844951D01*
X113268414Y-98748444D01*
X113268413Y-98748443D01*
X113268412Y-98748443D01*
X113066243Y-98682754D01*
X113066241Y-98682753D01*
X113066240Y-98682753D01*
X112904957Y-98657208D01*
X112856287Y-98649500D01*
X112643713Y-98649500D01*
X112595042Y-98657208D01*
X112433760Y-98682753D01*
X112231585Y-98748444D01*
X112042179Y-98844951D01*
X111870213Y-98969890D01*
X111719890Y-99120213D01*
X111594949Y-99292182D01*
X111590484Y-99300946D01*
X111542509Y-99351742D01*
X111474688Y-99368536D01*
X111408553Y-99345998D01*
X111369516Y-99300946D01*
X111365050Y-99292182D01*
X111240109Y-99120213D01*
X111089786Y-98969890D01*
X110917820Y-98844951D01*
X110728414Y-98748444D01*
X110728413Y-98748443D01*
X110728412Y-98748443D01*
X110526243Y-98682754D01*
X110526241Y-98682753D01*
X110526240Y-98682753D01*
X110364957Y-98657208D01*
X110316287Y-98649500D01*
X110103713Y-98649500D01*
X110055042Y-98657208D01*
X109893760Y-98682753D01*
X109691585Y-98748444D01*
X109502179Y-98844951D01*
X109330213Y-98969890D01*
X109179890Y-99120213D01*
X109054949Y-99292182D01*
X109050484Y-99300946D01*
X109002509Y-99351742D01*
X108934688Y-99368536D01*
X108868553Y-99345998D01*
X108829516Y-99300946D01*
X108825050Y-99292182D01*
X108700109Y-99120213D01*
X108549786Y-98969890D01*
X108377820Y-98844951D01*
X108188414Y-98748444D01*
X108188413Y-98748443D01*
X108188412Y-98748443D01*
X107986243Y-98682754D01*
X107986241Y-98682753D01*
X107986240Y-98682753D01*
X107824957Y-98657208D01*
X107776287Y-98649500D01*
X107563713Y-98649500D01*
X107515042Y-98657208D01*
X107353760Y-98682753D01*
X107151585Y-98748444D01*
X106962179Y-98844951D01*
X106790213Y-98969890D01*
X106639890Y-99120213D01*
X106514949Y-99292182D01*
X106510484Y-99300946D01*
X106462509Y-99351742D01*
X106394688Y-99368536D01*
X106328553Y-99345998D01*
X106289516Y-99300946D01*
X106285050Y-99292182D01*
X106160109Y-99120213D01*
X106009786Y-98969890D01*
X105837820Y-98844951D01*
X105648414Y-98748444D01*
X105648413Y-98748443D01*
X105648412Y-98748443D01*
X105446243Y-98682754D01*
X105446241Y-98682753D01*
X105446240Y-98682753D01*
X105284957Y-98657208D01*
X105236287Y-98649500D01*
X105023713Y-98649500D01*
X104975042Y-98657208D01*
X104813760Y-98682753D01*
X104611585Y-98748444D01*
X104422179Y-98844951D01*
X104250213Y-98969890D01*
X104099890Y-99120213D01*
X103974949Y-99292182D01*
X103970202Y-99301499D01*
X103922227Y-99352293D01*
X103854405Y-99369087D01*
X103788271Y-99346548D01*
X103749234Y-99301495D01*
X103744626Y-99292452D01*
X103705270Y-99238282D01*
X103705269Y-99238282D01*
X103072962Y-99870590D01*
X103055925Y-99807007D01*
X102990099Y-99692993D01*
X102897007Y-99599901D01*
X102782993Y-99534075D01*
X102719409Y-99517037D01*
X103351716Y-98884728D01*
X103297550Y-98845375D01*
X103108217Y-98748904D01*
X102906129Y-98683242D01*
X102696246Y-98650000D01*
X102483754Y-98650000D01*
X102273872Y-98683242D01*
X102273869Y-98683242D01*
X102071782Y-98748904D01*
X101882439Y-98845380D01*
X101828282Y-98884727D01*
X101828282Y-98884728D01*
X102460591Y-99517037D01*
X102397007Y-99534075D01*
X102282993Y-99599901D01*
X102189901Y-99692993D01*
X102124075Y-99807007D01*
X102107037Y-99870591D01*
X101474728Y-99238282D01*
X101474727Y-99238282D01*
X101435380Y-99292440D01*
X101435376Y-99292446D01*
X101430760Y-99301505D01*
X101382781Y-99352297D01*
X101314959Y-99369087D01*
X101248826Y-99346543D01*
X101209794Y-99301493D01*
X101205051Y-99292184D01*
X101205049Y-99292181D01*
X101205048Y-99292179D01*
X101080109Y-99120213D01*
X100929786Y-98969890D01*
X100757820Y-98844951D01*
X100568414Y-98748444D01*
X100568413Y-98748443D01*
X100568412Y-98748443D01*
X100366243Y-98682754D01*
X100366241Y-98682753D01*
X100366240Y-98682753D01*
X100204957Y-98657208D01*
X100156287Y-98649500D01*
X99943713Y-98649500D01*
X99895042Y-98657208D01*
X99733760Y-98682753D01*
X99531585Y-98748444D01*
X99342179Y-98844951D01*
X99170213Y-98969890D01*
X99019890Y-99120213D01*
X98894951Y-99292179D01*
X98798444Y-99481585D01*
X98732753Y-99683760D01*
X98699500Y-99893713D01*
X92000000Y-99893713D01*
X92000000Y-91624000D01*
X92019685Y-91556961D01*
X92072489Y-91511206D01*
X92124000Y-91500000D01*
X95025500Y-91500000D01*
X95092539Y-91519685D01*
G37*
%TD.AperFunction*%
%TD*%
M02*
