%TF.GenerationSoftware,KiCad,Pcbnew,9.0.7-9.0.7~ubuntu24.04.1*%
%TF.CreationDate,2026-03-08T15:27:07-07:00*%
%TF.ProjectId,fimur-electrical-v0-1,66696d75-722d-4656-9c65-637472696361,rev?*%
%TF.SameCoordinates,Original*%
%TF.FileFunction,Soldermask,Top*%
%TF.FilePolarity,Negative*%
%FSLAX46Y46*%
G04 Gerber Fmt 4.6, Leading zero omitted, Abs format (unit mm)*
G04 Created by KiCad (PCBNEW 9.0.7-9.0.7~ubuntu24.04.1) date 2026-03-08 15:27:07*
%MOMM*%
%LPD*%
G01*
G04 APERTURE LIST*
G04 Aperture macros list*
%AMRoundRect*
0 Rectangle with rounded corners*
0 $1 Rounding radius*
0 $2 $3 $4 $5 $6 $7 $8 $9 X,Y pos of 4 corners*
0 Add a 4 corners polygon primitive as box body*
4,1,4,$2,$3,$4,$5,$6,$7,$8,$9,$2,$3,0*
0 Add four circle primitives for the rounded corners*
1,1,$1+$1,$2,$3*
1,1,$1+$1,$4,$5*
1,1,$1+$1,$6,$7*
1,1,$1+$1,$8,$9*
0 Add four rect primitives between the rounded corners*
20,1,$1+$1,$2,$3,$4,$5,0*
20,1,$1+$1,$4,$5,$6,$7,0*
20,1,$1+$1,$6,$7,$8,$9,0*
20,1,$1+$1,$8,$9,$2,$3,0*%
G04 Aperture macros list end*
%ADD10C,2.000000*%
%ADD11RoundRect,0.150000X0.150000X0.625000X-0.150000X0.625000X-0.150000X-0.625000X0.150000X-0.625000X0*%
%ADD12RoundRect,0.250000X0.350000X0.650000X-0.350000X0.650000X-0.350000X-0.650000X0.350000X-0.650000X0*%
%ADD13RoundRect,0.250000X0.625000X-0.312500X0.625000X0.312500X-0.625000X0.312500X-0.625000X-0.312500X0*%
%ADD14C,3.200000*%
%ADD15RoundRect,0.225000X-0.225000X-0.250000X0.225000X-0.250000X0.225000X0.250000X-0.225000X0.250000X0*%
%ADD16R,1.700000X1.700000*%
%ADD17C,1.700000*%
%ADD18RoundRect,0.225000X0.250000X-0.225000X0.250000X0.225000X-0.250000X0.225000X-0.250000X-0.225000X0*%
%ADD19RoundRect,0.225000X0.225000X0.250000X-0.225000X0.250000X-0.225000X-0.250000X0.225000X-0.250000X0*%
%ADD20RoundRect,0.050000X-0.225000X-0.050000X0.225000X-0.050000X0.225000X0.050000X-0.225000X0.050000X0*%
%ADD21RoundRect,0.050000X0.050000X-0.225000X0.050000X0.225000X-0.050000X0.225000X-0.050000X-0.225000X0*%
%ADD22C,0.210000*%
G04 APERTURE END LIST*
D10*
%TO.C,1V8*%
X104000000Y-103000000D03*
%TD*%
D11*
%TO.C,J2*%
X112500000Y-92000000D03*
X111500000Y-92000000D03*
X110500000Y-92000000D03*
X109500000Y-92000000D03*
D12*
X113800000Y-88125000D03*
X108200000Y-88125000D03*
%TD*%
D13*
%TO.C,R2*%
X107000000Y-96462500D03*
X107000000Y-93537500D03*
%TD*%
D14*
%TO.C,REF\u002A\u002A*%
X120000000Y-90000000D03*
%TD*%
D15*
%TO.C,C1*%
X90862500Y-103500000D03*
X92412500Y-103500000D03*
%TD*%
D10*
%TO.C,VCC*%
X86000000Y-97000000D03*
%TD*%
D16*
%TO.C,J3*%
X100000000Y-96500000D03*
D17*
X100000000Y-93960000D03*
X97460000Y-96500000D03*
X97460000Y-93960000D03*
%TD*%
D14*
%TO.C,REF\u002A\u002A*%
X120000000Y-110000000D03*
%TD*%
D10*
%TO.C,GND*%
X114500000Y-95000000D03*
%TD*%
D18*
%TO.C,C2*%
X92900000Y-100775000D03*
X92900000Y-99225000D03*
%TD*%
D19*
%TO.C,C3*%
X88775000Y-103500000D03*
X87225000Y-103500000D03*
%TD*%
%TO.C,C6*%
X109025000Y-102900000D03*
X107475000Y-102900000D03*
%TD*%
D20*
%TO.C,U2*%
X88500000Y-99000000D03*
X88500000Y-99400000D03*
X88500000Y-99800000D03*
X88500000Y-100200000D03*
X88500000Y-100600000D03*
X88500000Y-101000000D03*
D21*
X89000000Y-101500000D03*
X89400000Y-101500000D03*
X89800000Y-101500000D03*
X90200000Y-101500000D03*
X90600000Y-101500000D03*
X91000000Y-101500000D03*
D20*
X91500000Y-101000000D03*
X91500000Y-100600000D03*
X91500000Y-100200000D03*
X91500000Y-99800000D03*
X91500000Y-99400000D03*
X91500000Y-99000000D03*
D21*
X91000000Y-98500000D03*
X90600000Y-98500000D03*
X90200000Y-98500000D03*
X89800000Y-98500000D03*
X89400000Y-98500000D03*
X89000000Y-98500000D03*
%TD*%
D14*
%TO.C,REF\u002A\u002A*%
X80000000Y-110000000D03*
%TD*%
D22*
%TO.C,U1*%
X99825000Y-103000000D03*
X100175000Y-103000000D03*
X99825000Y-103350000D03*
X100175000Y-103350000D03*
%TD*%
D20*
%TO.C,U3*%
X108500000Y-99000000D03*
X108500000Y-99400000D03*
X108500000Y-99800000D03*
X108500000Y-100200000D03*
X108500000Y-100600000D03*
X108500000Y-101000000D03*
D21*
X109000000Y-101500000D03*
X109400000Y-101500000D03*
X109800000Y-101500000D03*
X110200000Y-101500000D03*
X110600000Y-101500000D03*
X111000000Y-101500000D03*
D20*
X111500000Y-101000000D03*
X111500000Y-100600000D03*
X111500000Y-100200000D03*
X111500000Y-99800000D03*
X111500000Y-99400000D03*
X111500000Y-99000000D03*
D21*
X111000000Y-98500000D03*
X110600000Y-98500000D03*
X110200000Y-98500000D03*
X109800000Y-98500000D03*
X109400000Y-98500000D03*
X109000000Y-98500000D03*
%TD*%
D11*
%TO.C,J1*%
X90500000Y-92000000D03*
X89500000Y-92000000D03*
X88500000Y-92000000D03*
X87500000Y-92000000D03*
D12*
X91800000Y-88125000D03*
X86200000Y-88125000D03*
%TD*%
D14*
%TO.C,REF\u002A\u002A*%
X80000000Y-90000000D03*
%TD*%
D15*
%TO.C,C4*%
X110975000Y-102900000D03*
X112525000Y-102900000D03*
%TD*%
D13*
%TO.C,R1*%
X104500000Y-96462500D03*
X104500000Y-93537500D03*
%TD*%
D18*
%TO.C,C5*%
X112900000Y-100675000D03*
X112900000Y-99125000D03*
%TD*%
M02*
