%TF.GenerationSoftware,KiCad,Pcbnew,9.0.7-9.0.7~ubuntu24.04.1*%
%TF.CreationDate,2026-03-08T15:27:07-07:00*%
%TF.ProjectId,fimur-electrical-v0-1,66696d75-722d-4656-9c65-637472696361,rev?*%
%TF.SameCoordinates,Original*%
%TF.FileFunction,Legend,Top*%
%TF.FilePolarity,Positive*%
%FSLAX46Y46*%
G04 Gerber Fmt 4.6, Leading zero omitted, Abs format (unit mm)*
G04 Created by KiCad (PCBNEW 9.0.7-9.0.7~ubuntu24.04.1) date 2026-03-08 15:27:07*
%MOMM*%
%LPD*%
G01*
G04 APERTURE LIST*
%ADD10C,0.200000*%
%ADD11C,0.100000*%
%ADD12C,0.150000*%
%ADD13C,0.120000*%
G04 APERTURE END LIST*
D10*
X84132780Y-86869673D02*
X85132780Y-86869673D01*
X85132780Y-86869673D02*
X84418495Y-87203006D01*
X84418495Y-87203006D02*
X85132780Y-87536339D01*
X85132780Y-87536339D02*
X84132780Y-87536339D01*
X84418495Y-87964911D02*
X84418495Y-88441101D01*
X84132780Y-87869673D02*
X85132780Y-88203006D01*
X85132780Y-88203006D02*
X84132780Y-88536339D01*
X84132780Y-88869673D02*
X85132780Y-88869673D01*
X84132780Y-89345863D02*
X85132780Y-89345863D01*
X85132780Y-89345863D02*
X84132780Y-89917291D01*
X84132780Y-89917291D02*
X85132780Y-89917291D01*
X106132780Y-86869673D02*
X107132780Y-86869673D01*
X107132780Y-86869673D02*
X106418495Y-87203006D01*
X106418495Y-87203006D02*
X107132780Y-87536339D01*
X107132780Y-87536339D02*
X106132780Y-87536339D01*
X106418495Y-87964911D02*
X106418495Y-88441101D01*
X106132780Y-87869673D02*
X107132780Y-88203006D01*
X107132780Y-88203006D02*
X106132780Y-88536339D01*
X106132780Y-88869673D02*
X107132780Y-88869673D01*
X106132780Y-89345863D02*
X107132780Y-89345863D01*
X107132780Y-89345863D02*
X106132780Y-89917291D01*
X106132780Y-89917291D02*
X107132780Y-89917291D01*
D11*
X84000000Y-90000000D02*
X84000000Y-91000000D01*
X84000000Y-106000000D02*
X85000000Y-106000000D01*
X116000000Y-106000000D02*
X115000000Y-106000000D01*
X117500000Y-106000000D02*
X116500000Y-106000000D01*
X84000000Y-110000000D02*
X84000000Y-109000000D01*
X100500000Y-106000000D02*
X99500000Y-107000000D01*
X80000000Y-106000000D02*
X80500000Y-106500000D01*
X100000000Y-98500000D02*
X100000000Y-98000000D01*
X80000000Y-106000000D02*
X82000000Y-106000000D01*
X120000000Y-106000000D02*
X118000000Y-106000000D01*
X82500000Y-106000000D02*
X83500000Y-106000000D01*
X90500000Y-106000000D02*
X90000000Y-106500000D01*
X102000000Y-100000000D02*
X101500000Y-100500000D01*
X84000000Y-91500000D02*
X84000000Y-92000000D01*
X90500000Y-107000000D02*
X90000000Y-106500000D01*
X100000000Y-100000000D02*
X101000000Y-100000000D01*
X101500000Y-100000000D02*
X102000000Y-100000000D01*
X84000000Y-90000000D02*
X84500000Y-90500000D01*
X84000000Y-90000000D02*
X83500000Y-90500000D01*
X100000000Y-99000000D02*
X100000000Y-98500000D01*
X100000000Y-106500000D02*
X110000000Y-106500000D01*
X100000000Y-98000000D02*
X100500000Y-98500000D01*
X90000000Y-106500000D02*
X100000000Y-106500000D01*
X84000000Y-108500000D02*
X84000000Y-108000000D01*
X109500000Y-107000000D02*
X110000000Y-106500000D01*
X84000000Y-92500000D02*
X84000000Y-92700000D01*
X84000000Y-110000000D02*
X83500000Y-109500000D01*
X100000000Y-98000000D02*
X99500000Y-98500000D01*
X110000000Y-106500000D02*
X110000000Y-107000000D01*
X100000000Y-100000000D02*
X100000000Y-99000000D01*
X90000000Y-106500000D02*
X90000000Y-107000000D01*
X84000000Y-110000000D02*
X84500000Y-109500000D01*
X110000000Y-106500000D02*
X110000000Y-102000000D01*
X110000000Y-106500000D02*
X109500000Y-106000000D01*
X120000000Y-106000000D02*
X119500000Y-106500000D01*
X84000000Y-107500000D02*
X84000000Y-107300000D01*
X120000000Y-106000000D02*
X119500000Y-105500000D01*
X102000000Y-100000000D02*
X101500000Y-99500000D01*
X100500000Y-100000000D02*
G75*
G02*
X99500000Y-100000000I-500000J0D01*
G01*
X99500000Y-100000000D02*
G75*
G02*
X100500000Y-100000000I500000J0D01*
G01*
X100000000Y-106500000D02*
X100500000Y-106000000D01*
X101000000Y-100000000D02*
X101500000Y-100000000D01*
X90000000Y-106500000D02*
X90000000Y-102000000D01*
X100500000Y-107000000D02*
X99500000Y-106000000D01*
X80000000Y-106000000D02*
X80500000Y-105500000D01*
D10*
X102867219Y-93130326D02*
X101867219Y-93130326D01*
X101867219Y-93130326D02*
X101867219Y-92749374D01*
X101867219Y-92749374D02*
X101914838Y-92654136D01*
X101914838Y-92654136D02*
X101962457Y-92606517D01*
X101962457Y-92606517D02*
X102057695Y-92558898D01*
X102057695Y-92558898D02*
X102200552Y-92558898D01*
X102200552Y-92558898D02*
X102295790Y-92606517D01*
X102295790Y-92606517D02*
X102343409Y-92654136D01*
X102343409Y-92654136D02*
X102391028Y-92749374D01*
X102391028Y-92749374D02*
X102391028Y-93130326D01*
X101867219Y-92130326D02*
X102676742Y-92130326D01*
X102676742Y-92130326D02*
X102771980Y-92082707D01*
X102771980Y-92082707D02*
X102819600Y-92035088D01*
X102819600Y-92035088D02*
X102867219Y-91939850D01*
X102867219Y-91939850D02*
X102867219Y-91749374D01*
X102867219Y-91749374D02*
X102819600Y-91654136D01*
X102819600Y-91654136D02*
X102771980Y-91606517D01*
X102771980Y-91606517D02*
X102676742Y-91558898D01*
X102676742Y-91558898D02*
X101867219Y-91558898D01*
X102867219Y-90606517D02*
X102867219Y-91082707D01*
X102867219Y-91082707D02*
X101867219Y-91082707D01*
X102867219Y-89796993D02*
X102867219Y-90273183D01*
X102867219Y-90273183D02*
X101867219Y-90273183D01*
X101867219Y-89463659D02*
X102676742Y-89463659D01*
X102676742Y-89463659D02*
X102771980Y-89416040D01*
X102771980Y-89416040D02*
X102819600Y-89368421D01*
X102819600Y-89368421D02*
X102867219Y-89273183D01*
X102867219Y-89273183D02*
X102867219Y-89082707D01*
X102867219Y-89082707D02*
X102819600Y-88987469D01*
X102819600Y-88987469D02*
X102771980Y-88939850D01*
X102771980Y-88939850D02*
X102676742Y-88892231D01*
X102676742Y-88892231D02*
X101867219Y-88892231D01*
X102867219Y-88416040D02*
X101867219Y-88416040D01*
X101867219Y-88416040D02*
X101867219Y-88035088D01*
X101867219Y-88035088D02*
X101914838Y-87939850D01*
X101914838Y-87939850D02*
X101962457Y-87892231D01*
X101962457Y-87892231D02*
X102057695Y-87844612D01*
X102057695Y-87844612D02*
X102200552Y-87844612D01*
X102200552Y-87844612D02*
X102295790Y-87892231D01*
X102295790Y-87892231D02*
X102343409Y-87939850D01*
X102343409Y-87939850D02*
X102391028Y-88035088D01*
X102391028Y-88035088D02*
X102391028Y-88416040D01*
X90106517Y-94085161D02*
X90201755Y-94132780D01*
X90201755Y-94132780D02*
X90344612Y-94132780D01*
X90344612Y-94132780D02*
X90487469Y-94085161D01*
X90487469Y-94085161D02*
X90582707Y-93989923D01*
X90582707Y-93989923D02*
X90630326Y-93894685D01*
X90630326Y-93894685D02*
X90677945Y-93704209D01*
X90677945Y-93704209D02*
X90677945Y-93561352D01*
X90677945Y-93561352D02*
X90630326Y-93370876D01*
X90630326Y-93370876D02*
X90582707Y-93275638D01*
X90582707Y-93275638D02*
X90487469Y-93180400D01*
X90487469Y-93180400D02*
X90344612Y-93132780D01*
X90344612Y-93132780D02*
X90249374Y-93132780D01*
X90249374Y-93132780D02*
X90106517Y-93180400D01*
X90106517Y-93180400D02*
X90058898Y-93228019D01*
X90058898Y-93228019D02*
X90058898Y-93561352D01*
X90058898Y-93561352D02*
X90249374Y-93561352D01*
X89773183Y-94132780D02*
X89439850Y-93132780D01*
X89439850Y-93132780D02*
X89106517Y-94132780D01*
X88773183Y-93132780D02*
X88773183Y-94132780D01*
X88773183Y-94132780D02*
X88535088Y-94132780D01*
X88535088Y-94132780D02*
X88392231Y-94085161D01*
X88392231Y-94085161D02*
X88296993Y-93989923D01*
X88296993Y-93989923D02*
X88249374Y-93894685D01*
X88249374Y-93894685D02*
X88201755Y-93704209D01*
X88201755Y-93704209D02*
X88201755Y-93561352D01*
X88201755Y-93561352D02*
X88249374Y-93370876D01*
X88249374Y-93370876D02*
X88296993Y-93275638D01*
X88296993Y-93275638D02*
X88392231Y-93180400D01*
X88392231Y-93180400D02*
X88535088Y-93132780D01*
X88535088Y-93132780D02*
X88773183Y-93132780D01*
X87201755Y-93228019D02*
X87249374Y-93180400D01*
X87249374Y-93180400D02*
X87392231Y-93132780D01*
X87392231Y-93132780D02*
X87487469Y-93132780D01*
X87487469Y-93132780D02*
X87630326Y-93180400D01*
X87630326Y-93180400D02*
X87725564Y-93275638D01*
X87725564Y-93275638D02*
X87773183Y-93370876D01*
X87773183Y-93370876D02*
X87820802Y-93561352D01*
X87820802Y-93561352D02*
X87820802Y-93704209D01*
X87820802Y-93704209D02*
X87773183Y-93894685D01*
X87773183Y-93894685D02*
X87725564Y-93989923D01*
X87725564Y-93989923D02*
X87630326Y-94085161D01*
X87630326Y-94085161D02*
X87487469Y-94132780D01*
X87487469Y-94132780D02*
X87392231Y-94132780D01*
X87392231Y-94132780D02*
X87249374Y-94085161D01*
X87249374Y-94085161D02*
X87201755Y-94037542D01*
X94843409Y-92296993D02*
X94843409Y-92630326D01*
X95367219Y-92630326D02*
X94367219Y-92630326D01*
X94367219Y-92630326D02*
X94367219Y-92154136D01*
X95319600Y-91820802D02*
X95367219Y-91677945D01*
X95367219Y-91677945D02*
X95367219Y-91439850D01*
X95367219Y-91439850D02*
X95319600Y-91344612D01*
X95319600Y-91344612D02*
X95271980Y-91296993D01*
X95271980Y-91296993D02*
X95176742Y-91249374D01*
X95176742Y-91249374D02*
X95081504Y-91249374D01*
X95081504Y-91249374D02*
X94986266Y-91296993D01*
X94986266Y-91296993D02*
X94938647Y-91344612D01*
X94938647Y-91344612D02*
X94891028Y-91439850D01*
X94891028Y-91439850D02*
X94843409Y-91630326D01*
X94843409Y-91630326D02*
X94795790Y-91725564D01*
X94795790Y-91725564D02*
X94748171Y-91773183D01*
X94748171Y-91773183D02*
X94652933Y-91820802D01*
X94652933Y-91820802D02*
X94557695Y-91820802D01*
X94557695Y-91820802D02*
X94462457Y-91773183D01*
X94462457Y-91773183D02*
X94414838Y-91725564D01*
X94414838Y-91725564D02*
X94367219Y-91630326D01*
X94367219Y-91630326D02*
X94367219Y-91392231D01*
X94367219Y-91392231D02*
X94414838Y-91249374D01*
X94891028Y-90630326D02*
X95367219Y-90630326D01*
X94367219Y-90963659D02*
X94891028Y-90630326D01*
X94891028Y-90630326D02*
X94367219Y-90296993D01*
X95367219Y-89963659D02*
X94367219Y-89963659D01*
X94367219Y-89963659D02*
X95367219Y-89392231D01*
X95367219Y-89392231D02*
X94367219Y-89392231D01*
X95271980Y-88344612D02*
X95319600Y-88392231D01*
X95319600Y-88392231D02*
X95367219Y-88535088D01*
X95367219Y-88535088D02*
X95367219Y-88630326D01*
X95367219Y-88630326D02*
X95319600Y-88773183D01*
X95319600Y-88773183D02*
X95224361Y-88868421D01*
X95224361Y-88868421D02*
X95129123Y-88916040D01*
X95129123Y-88916040D02*
X94938647Y-88963659D01*
X94938647Y-88963659D02*
X94795790Y-88963659D01*
X94795790Y-88963659D02*
X94605314Y-88916040D01*
X94605314Y-88916040D02*
X94510076Y-88868421D01*
X94510076Y-88868421D02*
X94414838Y-88773183D01*
X94414838Y-88773183D02*
X94367219Y-88630326D01*
X94367219Y-88630326D02*
X94367219Y-88535088D01*
X94367219Y-88535088D02*
X94414838Y-88392231D01*
X94414838Y-88392231D02*
X94462457Y-88344612D01*
X103893482Y-107867219D02*
X103322054Y-107867219D01*
X103607768Y-107867219D02*
X103607768Y-106867219D01*
X103607768Y-106867219D02*
X103512530Y-107010076D01*
X103512530Y-107010076D02*
X103417292Y-107105314D01*
X103417292Y-107105314D02*
X103322054Y-107152933D01*
X104750625Y-107819600D02*
X104655387Y-107867219D01*
X104655387Y-107867219D02*
X104464911Y-107867219D01*
X104464911Y-107867219D02*
X104369673Y-107819600D01*
X104369673Y-107819600D02*
X104322054Y-107771980D01*
X104322054Y-107771980D02*
X104274435Y-107676742D01*
X104274435Y-107676742D02*
X104274435Y-107391028D01*
X104274435Y-107391028D02*
X104322054Y-107295790D01*
X104322054Y-107295790D02*
X104369673Y-107248171D01*
X104369673Y-107248171D02*
X104464911Y-107200552D01*
X104464911Y-107200552D02*
X104655387Y-107200552D01*
X104655387Y-107200552D02*
X104750625Y-107248171D01*
X105179197Y-107867219D02*
X105179197Y-107200552D01*
X105179197Y-107295790D02*
X105226816Y-107248171D01*
X105226816Y-107248171D02*
X105322054Y-107200552D01*
X105322054Y-107200552D02*
X105464911Y-107200552D01*
X105464911Y-107200552D02*
X105560149Y-107248171D01*
X105560149Y-107248171D02*
X105607768Y-107343409D01*
X105607768Y-107343409D02*
X105607768Y-107867219D01*
X105607768Y-107343409D02*
X105655387Y-107248171D01*
X105655387Y-107248171D02*
X105750625Y-107200552D01*
X105750625Y-107200552D02*
X105893482Y-107200552D01*
X105893482Y-107200552D02*
X105988721Y-107248171D01*
X105988721Y-107248171D02*
X106036340Y-107343409D01*
X106036340Y-107343409D02*
X106036340Y-107867219D01*
X112106517Y-94085161D02*
X112201755Y-94132780D01*
X112201755Y-94132780D02*
X112344612Y-94132780D01*
X112344612Y-94132780D02*
X112487469Y-94085161D01*
X112487469Y-94085161D02*
X112582707Y-93989923D01*
X112582707Y-93989923D02*
X112630326Y-93894685D01*
X112630326Y-93894685D02*
X112677945Y-93704209D01*
X112677945Y-93704209D02*
X112677945Y-93561352D01*
X112677945Y-93561352D02*
X112630326Y-93370876D01*
X112630326Y-93370876D02*
X112582707Y-93275638D01*
X112582707Y-93275638D02*
X112487469Y-93180400D01*
X112487469Y-93180400D02*
X112344612Y-93132780D01*
X112344612Y-93132780D02*
X112249374Y-93132780D01*
X112249374Y-93132780D02*
X112106517Y-93180400D01*
X112106517Y-93180400D02*
X112058898Y-93228019D01*
X112058898Y-93228019D02*
X112058898Y-93561352D01*
X112058898Y-93561352D02*
X112249374Y-93561352D01*
X111773183Y-94132780D02*
X111439850Y-93132780D01*
X111439850Y-93132780D02*
X111106517Y-94132780D01*
X110773183Y-93132780D02*
X110773183Y-94132780D01*
X110773183Y-94132780D02*
X110535088Y-94132780D01*
X110535088Y-94132780D02*
X110392231Y-94085161D01*
X110392231Y-94085161D02*
X110296993Y-93989923D01*
X110296993Y-93989923D02*
X110249374Y-93894685D01*
X110249374Y-93894685D02*
X110201755Y-93704209D01*
X110201755Y-93704209D02*
X110201755Y-93561352D01*
X110201755Y-93561352D02*
X110249374Y-93370876D01*
X110249374Y-93370876D02*
X110296993Y-93275638D01*
X110296993Y-93275638D02*
X110392231Y-93180400D01*
X110392231Y-93180400D02*
X110535088Y-93132780D01*
X110535088Y-93132780D02*
X110773183Y-93132780D01*
X109201755Y-93228019D02*
X109249374Y-93180400D01*
X109249374Y-93180400D02*
X109392231Y-93132780D01*
X109392231Y-93132780D02*
X109487469Y-93132780D01*
X109487469Y-93132780D02*
X109630326Y-93180400D01*
X109630326Y-93180400D02*
X109725564Y-93275638D01*
X109725564Y-93275638D02*
X109773183Y-93370876D01*
X109773183Y-93370876D02*
X109820802Y-93561352D01*
X109820802Y-93561352D02*
X109820802Y-93704209D01*
X109820802Y-93704209D02*
X109773183Y-93894685D01*
X109773183Y-93894685D02*
X109725564Y-93989923D01*
X109725564Y-93989923D02*
X109630326Y-94085161D01*
X109630326Y-94085161D02*
X109487469Y-94132780D01*
X109487469Y-94132780D02*
X109392231Y-94132780D01*
X109392231Y-94132780D02*
X109249374Y-94085161D01*
X109249374Y-94085161D02*
X109201755Y-94037542D01*
X100869673Y-98486266D02*
X101631578Y-98486266D01*
X101250625Y-98867219D02*
X101250625Y-98105314D01*
X102298244Y-98391028D02*
X102298244Y-98867219D01*
X101964911Y-97867219D02*
X102298244Y-98391028D01*
X102298244Y-98391028D02*
X102631577Y-97867219D01*
D12*
X107520364Y-107373320D02*
X107901316Y-107373320D01*
X107663221Y-108039987D02*
X107663221Y-107182844D01*
X107663221Y-107182844D02*
X107710840Y-107087606D01*
X107710840Y-107087606D02*
X107806078Y-107039987D01*
X107806078Y-107039987D02*
X107901316Y-107039987D01*
X108234650Y-108039987D02*
X108234650Y-107373320D01*
X108234650Y-107039987D02*
X108187031Y-107087606D01*
X108187031Y-107087606D02*
X108234650Y-107135225D01*
X108234650Y-107135225D02*
X108282269Y-107087606D01*
X108282269Y-107087606D02*
X108234650Y-107039987D01*
X108234650Y-107039987D02*
X108234650Y-107135225D01*
X108710840Y-108039987D02*
X108710840Y-107373320D01*
X108710840Y-107468558D02*
X108758459Y-107420939D01*
X108758459Y-107420939D02*
X108853697Y-107373320D01*
X108853697Y-107373320D02*
X108996554Y-107373320D01*
X108996554Y-107373320D02*
X109091792Y-107420939D01*
X109091792Y-107420939D02*
X109139411Y-107516177D01*
X109139411Y-107516177D02*
X109139411Y-108039987D01*
X109139411Y-107516177D02*
X109187030Y-107420939D01*
X109187030Y-107420939D02*
X109282268Y-107373320D01*
X109282268Y-107373320D02*
X109425125Y-107373320D01*
X109425125Y-107373320D02*
X109520364Y-107420939D01*
X109520364Y-107420939D02*
X109567983Y-107516177D01*
X109567983Y-107516177D02*
X109567983Y-108039987D01*
X110472744Y-107373320D02*
X110472744Y-108039987D01*
X110044173Y-107373320D02*
X110044173Y-107897129D01*
X110044173Y-107897129D02*
X110091792Y-107992368D01*
X110091792Y-107992368D02*
X110187030Y-108039987D01*
X110187030Y-108039987D02*
X110329887Y-108039987D01*
X110329887Y-108039987D02*
X110425125Y-107992368D01*
X110425125Y-107992368D02*
X110472744Y-107944748D01*
X110948935Y-108039987D02*
X110948935Y-107373320D01*
X110948935Y-107563796D02*
X110996554Y-107468558D01*
X110996554Y-107468558D02*
X111044173Y-107420939D01*
X111044173Y-107420939D02*
X111139411Y-107373320D01*
X111139411Y-107373320D02*
X111234649Y-107373320D01*
X112520364Y-107039987D02*
X112615602Y-107039987D01*
X112615602Y-107039987D02*
X112710840Y-107087606D01*
X112710840Y-107087606D02*
X112758459Y-107135225D01*
X112758459Y-107135225D02*
X112806078Y-107230463D01*
X112806078Y-107230463D02*
X112853697Y-107420939D01*
X112853697Y-107420939D02*
X112853697Y-107659034D01*
X112853697Y-107659034D02*
X112806078Y-107849510D01*
X112806078Y-107849510D02*
X112758459Y-107944748D01*
X112758459Y-107944748D02*
X112710840Y-107992368D01*
X112710840Y-107992368D02*
X112615602Y-108039987D01*
X112615602Y-108039987D02*
X112520364Y-108039987D01*
X112520364Y-108039987D02*
X112425126Y-107992368D01*
X112425126Y-107992368D02*
X112377507Y-107944748D01*
X112377507Y-107944748D02*
X112329888Y-107849510D01*
X112329888Y-107849510D02*
X112282269Y-107659034D01*
X112282269Y-107659034D02*
X112282269Y-107420939D01*
X112282269Y-107420939D02*
X112329888Y-107230463D01*
X112329888Y-107230463D02*
X112377507Y-107135225D01*
X112377507Y-107135225D02*
X112425126Y-107087606D01*
X112425126Y-107087606D02*
X112520364Y-107039987D01*
X113282269Y-107944748D02*
X113329888Y-107992368D01*
X113329888Y-107992368D02*
X113282269Y-108039987D01*
X113282269Y-108039987D02*
X113234650Y-107992368D01*
X113234650Y-107992368D02*
X113282269Y-107944748D01*
X113282269Y-107944748D02*
X113282269Y-108039987D01*
X114282268Y-108039987D02*
X113710840Y-108039987D01*
X113996554Y-108039987D02*
X113996554Y-107039987D01*
X113996554Y-107039987D02*
X113901316Y-107182844D01*
X113901316Y-107182844D02*
X113806078Y-107278082D01*
X113806078Y-107278082D02*
X113710840Y-107325701D01*
X114710840Y-107944748D02*
X114758459Y-107992368D01*
X114758459Y-107992368D02*
X114710840Y-108039987D01*
X114710840Y-108039987D02*
X114663221Y-107992368D01*
X114663221Y-107992368D02*
X114710840Y-107944748D01*
X114710840Y-107944748D02*
X114710840Y-108039987D01*
X115710839Y-108039987D02*
X115139411Y-108039987D01*
X115425125Y-108039987D02*
X115425125Y-107039987D01*
X115425125Y-107039987D02*
X115329887Y-107182844D01*
X115329887Y-107182844D02*
X115234649Y-107278082D01*
X115234649Y-107278082D02*
X115139411Y-107325701D01*
X102758459Y-108745169D02*
X102806078Y-108697550D01*
X102806078Y-108697550D02*
X102901316Y-108649931D01*
X102901316Y-108649931D02*
X103139411Y-108649931D01*
X103139411Y-108649931D02*
X103234649Y-108697550D01*
X103234649Y-108697550D02*
X103282268Y-108745169D01*
X103282268Y-108745169D02*
X103329887Y-108840407D01*
X103329887Y-108840407D02*
X103329887Y-108935645D01*
X103329887Y-108935645D02*
X103282268Y-109078502D01*
X103282268Y-109078502D02*
X102710840Y-109649931D01*
X102710840Y-109649931D02*
X103329887Y-109649931D01*
X103663221Y-109649931D02*
X104187030Y-108983264D01*
X103663221Y-108983264D02*
X104187030Y-109649931D01*
X105329888Y-109649931D02*
X105329888Y-108649931D01*
X106377506Y-109554692D02*
X106329887Y-109602312D01*
X106329887Y-109602312D02*
X106187030Y-109649931D01*
X106187030Y-109649931D02*
X106091792Y-109649931D01*
X106091792Y-109649931D02*
X105948935Y-109602312D01*
X105948935Y-109602312D02*
X105853697Y-109507073D01*
X105853697Y-109507073D02*
X105806078Y-109411835D01*
X105806078Y-109411835D02*
X105758459Y-109221359D01*
X105758459Y-109221359D02*
X105758459Y-109078502D01*
X105758459Y-109078502D02*
X105806078Y-108888026D01*
X105806078Y-108888026D02*
X105853697Y-108792788D01*
X105853697Y-108792788D02*
X105948935Y-108697550D01*
X105948935Y-108697550D02*
X106091792Y-108649931D01*
X106091792Y-108649931D02*
X106187030Y-108649931D01*
X106187030Y-108649931D02*
X106329887Y-108697550D01*
X106329887Y-108697550D02*
X106377506Y-108745169D01*
X106806078Y-109649931D02*
X106806078Y-108649931D01*
X106806078Y-108649931D02*
X107139411Y-109364216D01*
X107139411Y-109364216D02*
X107472744Y-108649931D01*
X107472744Y-108649931D02*
X107472744Y-109649931D01*
X107901316Y-108745169D02*
X107948935Y-108697550D01*
X107948935Y-108697550D02*
X108044173Y-108649931D01*
X108044173Y-108649931D02*
X108282268Y-108649931D01*
X108282268Y-108649931D02*
X108377506Y-108697550D01*
X108377506Y-108697550D02*
X108425125Y-108745169D01*
X108425125Y-108745169D02*
X108472744Y-108840407D01*
X108472744Y-108840407D02*
X108472744Y-108935645D01*
X108472744Y-108935645D02*
X108425125Y-109078502D01*
X108425125Y-109078502D02*
X107853697Y-109649931D01*
X107853697Y-109649931D02*
X108472744Y-109649931D01*
X109091792Y-108649931D02*
X109187030Y-108649931D01*
X109187030Y-108649931D02*
X109282268Y-108697550D01*
X109282268Y-108697550D02*
X109329887Y-108745169D01*
X109329887Y-108745169D02*
X109377506Y-108840407D01*
X109377506Y-108840407D02*
X109425125Y-109030883D01*
X109425125Y-109030883D02*
X109425125Y-109268978D01*
X109425125Y-109268978D02*
X109377506Y-109459454D01*
X109377506Y-109459454D02*
X109329887Y-109554692D01*
X109329887Y-109554692D02*
X109282268Y-109602312D01*
X109282268Y-109602312D02*
X109187030Y-109649931D01*
X109187030Y-109649931D02*
X109091792Y-109649931D01*
X109091792Y-109649931D02*
X108996554Y-109602312D01*
X108996554Y-109602312D02*
X108948935Y-109554692D01*
X108948935Y-109554692D02*
X108901316Y-109459454D01*
X108901316Y-109459454D02*
X108853697Y-109268978D01*
X108853697Y-109268978D02*
X108853697Y-109030883D01*
X108853697Y-109030883D02*
X108901316Y-108840407D01*
X108901316Y-108840407D02*
X108948935Y-108745169D01*
X108948935Y-108745169D02*
X108996554Y-108697550D01*
X108996554Y-108697550D02*
X109091792Y-108649931D01*
X109901316Y-109649931D02*
X110091792Y-109649931D01*
X110091792Y-109649931D02*
X110187030Y-109602312D01*
X110187030Y-109602312D02*
X110234649Y-109554692D01*
X110234649Y-109554692D02*
X110329887Y-109411835D01*
X110329887Y-109411835D02*
X110377506Y-109221359D01*
X110377506Y-109221359D02*
X110377506Y-108840407D01*
X110377506Y-108840407D02*
X110329887Y-108745169D01*
X110329887Y-108745169D02*
X110282268Y-108697550D01*
X110282268Y-108697550D02*
X110187030Y-108649931D01*
X110187030Y-108649931D02*
X109996554Y-108649931D01*
X109996554Y-108649931D02*
X109901316Y-108697550D01*
X109901316Y-108697550D02*
X109853697Y-108745169D01*
X109853697Y-108745169D02*
X109806078Y-108840407D01*
X109806078Y-108840407D02*
X109806078Y-109078502D01*
X109806078Y-109078502D02*
X109853697Y-109173740D01*
X109853697Y-109173740D02*
X109901316Y-109221359D01*
X109901316Y-109221359D02*
X109996554Y-109268978D01*
X109996554Y-109268978D02*
X110187030Y-109268978D01*
X110187030Y-109268978D02*
X110282268Y-109221359D01*
X110282268Y-109221359D02*
X110329887Y-109173740D01*
X110329887Y-109173740D02*
X110377506Y-109078502D01*
X111234649Y-108983264D02*
X111234649Y-109649931D01*
X110996554Y-108602312D02*
X110758459Y-109316597D01*
X110758459Y-109316597D02*
X111377506Y-109316597D01*
X111901316Y-109078502D02*
X111806078Y-109030883D01*
X111806078Y-109030883D02*
X111758459Y-108983264D01*
X111758459Y-108983264D02*
X111710840Y-108888026D01*
X111710840Y-108888026D02*
X111710840Y-108840407D01*
X111710840Y-108840407D02*
X111758459Y-108745169D01*
X111758459Y-108745169D02*
X111806078Y-108697550D01*
X111806078Y-108697550D02*
X111901316Y-108649931D01*
X111901316Y-108649931D02*
X112091792Y-108649931D01*
X112091792Y-108649931D02*
X112187030Y-108697550D01*
X112187030Y-108697550D02*
X112234649Y-108745169D01*
X112234649Y-108745169D02*
X112282268Y-108840407D01*
X112282268Y-108840407D02*
X112282268Y-108888026D01*
X112282268Y-108888026D02*
X112234649Y-108983264D01*
X112234649Y-108983264D02*
X112187030Y-109030883D01*
X112187030Y-109030883D02*
X112091792Y-109078502D01*
X112091792Y-109078502D02*
X111901316Y-109078502D01*
X111901316Y-109078502D02*
X111806078Y-109126121D01*
X111806078Y-109126121D02*
X111758459Y-109173740D01*
X111758459Y-109173740D02*
X111710840Y-109268978D01*
X111710840Y-109268978D02*
X111710840Y-109459454D01*
X111710840Y-109459454D02*
X111758459Y-109554692D01*
X111758459Y-109554692D02*
X111806078Y-109602312D01*
X111806078Y-109602312D02*
X111901316Y-109649931D01*
X111901316Y-109649931D02*
X112091792Y-109649931D01*
X112091792Y-109649931D02*
X112187030Y-109602312D01*
X112187030Y-109602312D02*
X112234649Y-109554692D01*
X112234649Y-109554692D02*
X112282268Y-109459454D01*
X112282268Y-109459454D02*
X112282268Y-109268978D01*
X112282268Y-109268978D02*
X112234649Y-109173740D01*
X112234649Y-109173740D02*
X112187030Y-109126121D01*
X112187030Y-109126121D02*
X112091792Y-109078502D01*
X113472745Y-109649931D02*
X113472745Y-108649931D01*
X113948935Y-109649931D02*
X113948935Y-108649931D01*
X113948935Y-108649931D02*
X114282268Y-109364216D01*
X114282268Y-109364216D02*
X114615601Y-108649931D01*
X114615601Y-108649931D02*
X114615601Y-109649931D01*
X115091792Y-108649931D02*
X115091792Y-109459454D01*
X115091792Y-109459454D02*
X115139411Y-109554692D01*
X115139411Y-109554692D02*
X115187030Y-109602312D01*
X115187030Y-109602312D02*
X115282268Y-109649931D01*
X115282268Y-109649931D02*
X115472744Y-109649931D01*
X115472744Y-109649931D02*
X115567982Y-109602312D01*
X115567982Y-109602312D02*
X115615601Y-109554692D01*
X115615601Y-109554692D02*
X115663220Y-109459454D01*
X115663220Y-109459454D02*
X115663220Y-108649931D01*
X103520364Y-110259875D02*
X103853697Y-111259875D01*
X103853697Y-111259875D02*
X104187030Y-110259875D01*
X105091792Y-111164636D02*
X105044173Y-111212256D01*
X105044173Y-111212256D02*
X104901316Y-111259875D01*
X104901316Y-111259875D02*
X104806078Y-111259875D01*
X104806078Y-111259875D02*
X104663221Y-111212256D01*
X104663221Y-111212256D02*
X104567983Y-111117017D01*
X104567983Y-111117017D02*
X104520364Y-111021779D01*
X104520364Y-111021779D02*
X104472745Y-110831303D01*
X104472745Y-110831303D02*
X104472745Y-110688446D01*
X104472745Y-110688446D02*
X104520364Y-110497970D01*
X104520364Y-110497970D02*
X104567983Y-110402732D01*
X104567983Y-110402732D02*
X104663221Y-110307494D01*
X104663221Y-110307494D02*
X104806078Y-110259875D01*
X104806078Y-110259875D02*
X104901316Y-110259875D01*
X104901316Y-110259875D02*
X105044173Y-110307494D01*
X105044173Y-110307494D02*
X105091792Y-110355113D01*
X106091792Y-111164636D02*
X106044173Y-111212256D01*
X106044173Y-111212256D02*
X105901316Y-111259875D01*
X105901316Y-111259875D02*
X105806078Y-111259875D01*
X105806078Y-111259875D02*
X105663221Y-111212256D01*
X105663221Y-111212256D02*
X105567983Y-111117017D01*
X105567983Y-111117017D02*
X105520364Y-111021779D01*
X105520364Y-111021779D02*
X105472745Y-110831303D01*
X105472745Y-110831303D02*
X105472745Y-110688446D01*
X105472745Y-110688446D02*
X105520364Y-110497970D01*
X105520364Y-110497970D02*
X105567983Y-110402732D01*
X105567983Y-110402732D02*
X105663221Y-110307494D01*
X105663221Y-110307494D02*
X105806078Y-110259875D01*
X105806078Y-110259875D02*
X105901316Y-110259875D01*
X105901316Y-110259875D02*
X106044173Y-110307494D01*
X106044173Y-110307494D02*
X106091792Y-110355113D01*
X106520364Y-111164636D02*
X106567983Y-111212256D01*
X106567983Y-111212256D02*
X106520364Y-111259875D01*
X106520364Y-111259875D02*
X106472745Y-111212256D01*
X106472745Y-111212256D02*
X106520364Y-111164636D01*
X106520364Y-111164636D02*
X106520364Y-111259875D01*
X106520364Y-110640827D02*
X106567983Y-110688446D01*
X106567983Y-110688446D02*
X106520364Y-110736065D01*
X106520364Y-110736065D02*
X106472745Y-110688446D01*
X106472745Y-110688446D02*
X106520364Y-110640827D01*
X106520364Y-110640827D02*
X106520364Y-110736065D01*
X107710840Y-110355113D02*
X107758459Y-110307494D01*
X107758459Y-110307494D02*
X107853697Y-110259875D01*
X107853697Y-110259875D02*
X108091792Y-110259875D01*
X108091792Y-110259875D02*
X108187030Y-110307494D01*
X108187030Y-110307494D02*
X108234649Y-110355113D01*
X108234649Y-110355113D02*
X108282268Y-110450351D01*
X108282268Y-110450351D02*
X108282268Y-110545589D01*
X108282268Y-110545589D02*
X108234649Y-110688446D01*
X108234649Y-110688446D02*
X107663221Y-111259875D01*
X107663221Y-111259875D02*
X108282268Y-111259875D01*
X108710840Y-111164636D02*
X108758459Y-111212256D01*
X108758459Y-111212256D02*
X108710840Y-111259875D01*
X108710840Y-111259875D02*
X108663221Y-111212256D01*
X108663221Y-111212256D02*
X108710840Y-111164636D01*
X108710840Y-111164636D02*
X108710840Y-111259875D01*
X109139411Y-110355113D02*
X109187030Y-110307494D01*
X109187030Y-110307494D02*
X109282268Y-110259875D01*
X109282268Y-110259875D02*
X109520363Y-110259875D01*
X109520363Y-110259875D02*
X109615601Y-110307494D01*
X109615601Y-110307494D02*
X109663220Y-110355113D01*
X109663220Y-110355113D02*
X109710839Y-110450351D01*
X109710839Y-110450351D02*
X109710839Y-110545589D01*
X109710839Y-110545589D02*
X109663220Y-110688446D01*
X109663220Y-110688446D02*
X109091792Y-111259875D01*
X109091792Y-111259875D02*
X109710839Y-111259875D01*
X110901316Y-110878922D02*
X111663221Y-110878922D01*
X113377506Y-110259875D02*
X112901316Y-110259875D01*
X112901316Y-110259875D02*
X112853697Y-110736065D01*
X112853697Y-110736065D02*
X112901316Y-110688446D01*
X112901316Y-110688446D02*
X112996554Y-110640827D01*
X112996554Y-110640827D02*
X113234649Y-110640827D01*
X113234649Y-110640827D02*
X113329887Y-110688446D01*
X113329887Y-110688446D02*
X113377506Y-110736065D01*
X113377506Y-110736065D02*
X113425125Y-110831303D01*
X113425125Y-110831303D02*
X113425125Y-111069398D01*
X113425125Y-111069398D02*
X113377506Y-111164636D01*
X113377506Y-111164636D02*
X113329887Y-111212256D01*
X113329887Y-111212256D02*
X113234649Y-111259875D01*
X113234649Y-111259875D02*
X112996554Y-111259875D01*
X112996554Y-111259875D02*
X112901316Y-111212256D01*
X112901316Y-111212256D02*
X112853697Y-111164636D01*
X113853697Y-111164636D02*
X113901316Y-111212256D01*
X113901316Y-111212256D02*
X113853697Y-111259875D01*
X113853697Y-111259875D02*
X113806078Y-111212256D01*
X113806078Y-111212256D02*
X113853697Y-111164636D01*
X113853697Y-111164636D02*
X113853697Y-111259875D01*
X114806077Y-110259875D02*
X114329887Y-110259875D01*
X114329887Y-110259875D02*
X114282268Y-110736065D01*
X114282268Y-110736065D02*
X114329887Y-110688446D01*
X114329887Y-110688446D02*
X114425125Y-110640827D01*
X114425125Y-110640827D02*
X114663220Y-110640827D01*
X114663220Y-110640827D02*
X114758458Y-110688446D01*
X114758458Y-110688446D02*
X114806077Y-110736065D01*
X114806077Y-110736065D02*
X114853696Y-110831303D01*
X114853696Y-110831303D02*
X114853696Y-111069398D01*
X114853696Y-111069398D02*
X114806077Y-111164636D01*
X114806077Y-111164636D02*
X114758458Y-111212256D01*
X114758458Y-111212256D02*
X114663220Y-111259875D01*
X114663220Y-111259875D02*
X114425125Y-111259875D01*
X114425125Y-111259875D02*
X114329887Y-111212256D01*
X114329887Y-111212256D02*
X114282268Y-111164636D01*
X115139411Y-110259875D02*
X115472744Y-111259875D01*
X115472744Y-111259875D02*
X115806077Y-110259875D01*
X113853697Y-112869819D02*
X113853697Y-112203152D01*
X113853697Y-111869819D02*
X113806078Y-111917438D01*
X113806078Y-111917438D02*
X113853697Y-111965057D01*
X113853697Y-111965057D02*
X113901316Y-111917438D01*
X113901316Y-111917438D02*
X113853697Y-111869819D01*
X113853697Y-111869819D02*
X113853697Y-111965057D01*
X114282268Y-111965057D02*
X114329887Y-111917438D01*
X114329887Y-111917438D02*
X114425125Y-111869819D01*
X114425125Y-111869819D02*
X114663220Y-111869819D01*
X114663220Y-111869819D02*
X114758458Y-111917438D01*
X114758458Y-111917438D02*
X114806077Y-111965057D01*
X114806077Y-111965057D02*
X114853696Y-112060295D01*
X114853696Y-112060295D02*
X114853696Y-112155533D01*
X114853696Y-112155533D02*
X114806077Y-112298390D01*
X114806077Y-112298390D02*
X114234649Y-112869819D01*
X114234649Y-112869819D02*
X114853696Y-112869819D01*
X115710839Y-112822200D02*
X115615601Y-112869819D01*
X115615601Y-112869819D02*
X115425125Y-112869819D01*
X115425125Y-112869819D02*
X115329887Y-112822200D01*
X115329887Y-112822200D02*
X115282268Y-112774580D01*
X115282268Y-112774580D02*
X115234649Y-112679342D01*
X115234649Y-112679342D02*
X115234649Y-112393628D01*
X115234649Y-112393628D02*
X115282268Y-112298390D01*
X115282268Y-112298390D02*
X115329887Y-112250771D01*
X115329887Y-112250771D02*
X115425125Y-112203152D01*
X115425125Y-112203152D02*
X115615601Y-112203152D01*
X115615601Y-112203152D02*
X115710839Y-112250771D01*
D10*
X81798244Y-104700552D02*
X81798244Y-105367219D01*
X81560149Y-104319600D02*
X81322054Y-105033885D01*
X81322054Y-105033885D02*
X81941101Y-105033885D01*
X82750625Y-105319600D02*
X82655387Y-105367219D01*
X82655387Y-105367219D02*
X82464911Y-105367219D01*
X82464911Y-105367219D02*
X82369673Y-105319600D01*
X82369673Y-105319600D02*
X82322054Y-105271980D01*
X82322054Y-105271980D02*
X82274435Y-105176742D01*
X82274435Y-105176742D02*
X82274435Y-104891028D01*
X82274435Y-104891028D02*
X82322054Y-104795790D01*
X82322054Y-104795790D02*
X82369673Y-104748171D01*
X82369673Y-104748171D02*
X82464911Y-104700552D01*
X82464911Y-104700552D02*
X82655387Y-104700552D01*
X82655387Y-104700552D02*
X82750625Y-104748171D01*
X83179197Y-105367219D02*
X83179197Y-104700552D01*
X83179197Y-104795790D02*
X83226816Y-104748171D01*
X83226816Y-104748171D02*
X83322054Y-104700552D01*
X83322054Y-104700552D02*
X83464911Y-104700552D01*
X83464911Y-104700552D02*
X83560149Y-104748171D01*
X83560149Y-104748171D02*
X83607768Y-104843409D01*
X83607768Y-104843409D02*
X83607768Y-105367219D01*
X83607768Y-104843409D02*
X83655387Y-104748171D01*
X83655387Y-104748171D02*
X83750625Y-104700552D01*
X83750625Y-104700552D02*
X83893482Y-104700552D01*
X83893482Y-104700552D02*
X83988721Y-104748171D01*
X83988721Y-104748171D02*
X84036340Y-104843409D01*
X84036340Y-104843409D02*
X84036340Y-105367219D01*
X94393482Y-107867219D02*
X93822054Y-107867219D01*
X94107768Y-107867219D02*
X94107768Y-106867219D01*
X94107768Y-106867219D02*
X94012530Y-107010076D01*
X94012530Y-107010076D02*
X93917292Y-107105314D01*
X93917292Y-107105314D02*
X93822054Y-107152933D01*
X95250625Y-107819600D02*
X95155387Y-107867219D01*
X95155387Y-107867219D02*
X94964911Y-107867219D01*
X94964911Y-107867219D02*
X94869673Y-107819600D01*
X94869673Y-107819600D02*
X94822054Y-107771980D01*
X94822054Y-107771980D02*
X94774435Y-107676742D01*
X94774435Y-107676742D02*
X94774435Y-107391028D01*
X94774435Y-107391028D02*
X94822054Y-107295790D01*
X94822054Y-107295790D02*
X94869673Y-107248171D01*
X94869673Y-107248171D02*
X94964911Y-107200552D01*
X94964911Y-107200552D02*
X95155387Y-107200552D01*
X95155387Y-107200552D02*
X95250625Y-107248171D01*
X95679197Y-107867219D02*
X95679197Y-107200552D01*
X95679197Y-107295790D02*
X95726816Y-107248171D01*
X95726816Y-107248171D02*
X95822054Y-107200552D01*
X95822054Y-107200552D02*
X95964911Y-107200552D01*
X95964911Y-107200552D02*
X96060149Y-107248171D01*
X96060149Y-107248171D02*
X96107768Y-107343409D01*
X96107768Y-107343409D02*
X96107768Y-107867219D01*
X96107768Y-107343409D02*
X96155387Y-107248171D01*
X96155387Y-107248171D02*
X96250625Y-107200552D01*
X96250625Y-107200552D02*
X96393482Y-107200552D01*
X96393482Y-107200552D02*
X96488721Y-107248171D01*
X96488721Y-107248171D02*
X96536340Y-107343409D01*
X96536340Y-107343409D02*
X96536340Y-107867219D01*
X97369673Y-100486266D02*
X98131578Y-100486266D01*
X97750625Y-100867219D02*
X97750625Y-100105314D01*
X98512530Y-99867219D02*
X99179196Y-99867219D01*
X99179196Y-99867219D02*
X98512530Y-100867219D01*
X98512530Y-100867219D02*
X99179196Y-100867219D01*
X84822054Y-107962457D02*
X84869673Y-107914838D01*
X84869673Y-107914838D02*
X84964911Y-107867219D01*
X84964911Y-107867219D02*
X85203006Y-107867219D01*
X85203006Y-107867219D02*
X85298244Y-107914838D01*
X85298244Y-107914838D02*
X85345863Y-107962457D01*
X85345863Y-107962457D02*
X85393482Y-108057695D01*
X85393482Y-108057695D02*
X85393482Y-108152933D01*
X85393482Y-108152933D02*
X85345863Y-108295790D01*
X85345863Y-108295790D02*
X84774435Y-108867219D01*
X84774435Y-108867219D02*
X85393482Y-108867219D01*
X86250625Y-108819600D02*
X86155387Y-108867219D01*
X86155387Y-108867219D02*
X85964911Y-108867219D01*
X85964911Y-108867219D02*
X85869673Y-108819600D01*
X85869673Y-108819600D02*
X85822054Y-108771980D01*
X85822054Y-108771980D02*
X85774435Y-108676742D01*
X85774435Y-108676742D02*
X85774435Y-108391028D01*
X85774435Y-108391028D02*
X85822054Y-108295790D01*
X85822054Y-108295790D02*
X85869673Y-108248171D01*
X85869673Y-108248171D02*
X85964911Y-108200552D01*
X85964911Y-108200552D02*
X86155387Y-108200552D01*
X86155387Y-108200552D02*
X86250625Y-108248171D01*
X86679197Y-108867219D02*
X86679197Y-108200552D01*
X86679197Y-108295790D02*
X86726816Y-108248171D01*
X86726816Y-108248171D02*
X86822054Y-108200552D01*
X86822054Y-108200552D02*
X86964911Y-108200552D01*
X86964911Y-108200552D02*
X87060149Y-108248171D01*
X87060149Y-108248171D02*
X87107768Y-108343409D01*
X87107768Y-108343409D02*
X87107768Y-108867219D01*
X87107768Y-108343409D02*
X87155387Y-108248171D01*
X87155387Y-108248171D02*
X87250625Y-108200552D01*
X87250625Y-108200552D02*
X87393482Y-108200552D01*
X87393482Y-108200552D02*
X87488721Y-108248171D01*
X87488721Y-108248171D02*
X87536340Y-108343409D01*
X87536340Y-108343409D02*
X87536340Y-108867219D01*
X100869673Y-100986266D02*
X101631578Y-100986266D01*
X101250625Y-101367219D02*
X101250625Y-100605314D01*
X102012530Y-100367219D02*
X102679196Y-101367219D01*
X102679196Y-100367219D02*
X102012530Y-101367219D01*
X103380952Y-105952219D02*
X102809524Y-105952219D01*
X103095238Y-105952219D02*
X103095238Y-104952219D01*
X103095238Y-104952219D02*
X103000000Y-105095076D01*
X103000000Y-105095076D02*
X102904762Y-105190314D01*
X102904762Y-105190314D02*
X102809524Y-105237933D01*
X103666667Y-104952219D02*
X104000000Y-105952219D01*
X104000000Y-105952219D02*
X104333333Y-104952219D01*
X104809524Y-105380790D02*
X104714286Y-105333171D01*
X104714286Y-105333171D02*
X104666667Y-105285552D01*
X104666667Y-105285552D02*
X104619048Y-105190314D01*
X104619048Y-105190314D02*
X104619048Y-105142695D01*
X104619048Y-105142695D02*
X104666667Y-105047457D01*
X104666667Y-105047457D02*
X104714286Y-104999838D01*
X104714286Y-104999838D02*
X104809524Y-104952219D01*
X104809524Y-104952219D02*
X105000000Y-104952219D01*
X105000000Y-104952219D02*
X105095238Y-104999838D01*
X105095238Y-104999838D02*
X105142857Y-105047457D01*
X105142857Y-105047457D02*
X105190476Y-105142695D01*
X105190476Y-105142695D02*
X105190476Y-105190314D01*
X105190476Y-105190314D02*
X105142857Y-105285552D01*
X105142857Y-105285552D02*
X105095238Y-105333171D01*
X105095238Y-105333171D02*
X105000000Y-105380790D01*
X105000000Y-105380790D02*
X104809524Y-105380790D01*
X104809524Y-105380790D02*
X104714286Y-105428409D01*
X104714286Y-105428409D02*
X104666667Y-105476028D01*
X104666667Y-105476028D02*
X104619048Y-105571266D01*
X104619048Y-105571266D02*
X104619048Y-105761742D01*
X104619048Y-105761742D02*
X104666667Y-105856980D01*
X104666667Y-105856980D02*
X104714286Y-105904600D01*
X104714286Y-105904600D02*
X104809524Y-105952219D01*
X104809524Y-105952219D02*
X105000000Y-105952219D01*
X105000000Y-105952219D02*
X105095238Y-105904600D01*
X105095238Y-105904600D02*
X105142857Y-105856980D01*
X105142857Y-105856980D02*
X105190476Y-105761742D01*
X105190476Y-105761742D02*
X105190476Y-105571266D01*
X105190476Y-105571266D02*
X105142857Y-105476028D01*
X105142857Y-105476028D02*
X105095238Y-105428409D01*
X105095238Y-105428409D02*
X105000000Y-105380790D01*
D12*
X114666666Y-91454819D02*
X114666666Y-92169104D01*
X114666666Y-92169104D02*
X114619047Y-92311961D01*
X114619047Y-92311961D02*
X114523809Y-92407200D01*
X114523809Y-92407200D02*
X114380952Y-92454819D01*
X114380952Y-92454819D02*
X114285714Y-92454819D01*
X115095238Y-91550057D02*
X115142857Y-91502438D01*
X115142857Y-91502438D02*
X115238095Y-91454819D01*
X115238095Y-91454819D02*
X115476190Y-91454819D01*
X115476190Y-91454819D02*
X115571428Y-91502438D01*
X115571428Y-91502438D02*
X115619047Y-91550057D01*
X115619047Y-91550057D02*
X115666666Y-91645295D01*
X115666666Y-91645295D02*
X115666666Y-91740533D01*
X115666666Y-91740533D02*
X115619047Y-91883390D01*
X115619047Y-91883390D02*
X115047619Y-92454819D01*
X115047619Y-92454819D02*
X115666666Y-92454819D01*
X106333333Y-92454819D02*
X106000000Y-91978628D01*
X105761905Y-92454819D02*
X105761905Y-91454819D01*
X105761905Y-91454819D02*
X106142857Y-91454819D01*
X106142857Y-91454819D02*
X106238095Y-91502438D01*
X106238095Y-91502438D02*
X106285714Y-91550057D01*
X106285714Y-91550057D02*
X106333333Y-91645295D01*
X106333333Y-91645295D02*
X106333333Y-91788152D01*
X106333333Y-91788152D02*
X106285714Y-91883390D01*
X106285714Y-91883390D02*
X106238095Y-91931009D01*
X106238095Y-91931009D02*
X106142857Y-91978628D01*
X106142857Y-91978628D02*
X105761905Y-91978628D01*
X106714286Y-91550057D02*
X106761905Y-91502438D01*
X106761905Y-91502438D02*
X106857143Y-91454819D01*
X106857143Y-91454819D02*
X107095238Y-91454819D01*
X107095238Y-91454819D02*
X107190476Y-91502438D01*
X107190476Y-91502438D02*
X107238095Y-91550057D01*
X107238095Y-91550057D02*
X107285714Y-91645295D01*
X107285714Y-91645295D02*
X107285714Y-91740533D01*
X107285714Y-91740533D02*
X107238095Y-91883390D01*
X107238095Y-91883390D02*
X106666667Y-92454819D01*
X106666667Y-92454819D02*
X107285714Y-92454819D01*
X91470833Y-105859580D02*
X91423214Y-105907200D01*
X91423214Y-105907200D02*
X91280357Y-105954819D01*
X91280357Y-105954819D02*
X91185119Y-105954819D01*
X91185119Y-105954819D02*
X91042262Y-105907200D01*
X91042262Y-105907200D02*
X90947024Y-105811961D01*
X90947024Y-105811961D02*
X90899405Y-105716723D01*
X90899405Y-105716723D02*
X90851786Y-105526247D01*
X90851786Y-105526247D02*
X90851786Y-105383390D01*
X90851786Y-105383390D02*
X90899405Y-105192914D01*
X90899405Y-105192914D02*
X90947024Y-105097676D01*
X90947024Y-105097676D02*
X91042262Y-105002438D01*
X91042262Y-105002438D02*
X91185119Y-104954819D01*
X91185119Y-104954819D02*
X91280357Y-104954819D01*
X91280357Y-104954819D02*
X91423214Y-105002438D01*
X91423214Y-105002438D02*
X91470833Y-105050057D01*
X92423214Y-105954819D02*
X91851786Y-105954819D01*
X92137500Y-105954819D02*
X92137500Y-104954819D01*
X92137500Y-104954819D02*
X92042262Y-105097676D01*
X92042262Y-105097676D02*
X91947024Y-105192914D01*
X91947024Y-105192914D02*
X91851786Y-105240533D01*
D10*
X81166667Y-96452219D02*
X81500000Y-97452219D01*
X81500000Y-97452219D02*
X81833333Y-96452219D01*
X82738095Y-97356980D02*
X82690476Y-97404600D01*
X82690476Y-97404600D02*
X82547619Y-97452219D01*
X82547619Y-97452219D02*
X82452381Y-97452219D01*
X82452381Y-97452219D02*
X82309524Y-97404600D01*
X82309524Y-97404600D02*
X82214286Y-97309361D01*
X82214286Y-97309361D02*
X82166667Y-97214123D01*
X82166667Y-97214123D02*
X82119048Y-97023647D01*
X82119048Y-97023647D02*
X82119048Y-96880790D01*
X82119048Y-96880790D02*
X82166667Y-96690314D01*
X82166667Y-96690314D02*
X82214286Y-96595076D01*
X82214286Y-96595076D02*
X82309524Y-96499838D01*
X82309524Y-96499838D02*
X82452381Y-96452219D01*
X82452381Y-96452219D02*
X82547619Y-96452219D01*
X82547619Y-96452219D02*
X82690476Y-96499838D01*
X82690476Y-96499838D02*
X82738095Y-96547457D01*
X83738095Y-97356980D02*
X83690476Y-97404600D01*
X83690476Y-97404600D02*
X83547619Y-97452219D01*
X83547619Y-97452219D02*
X83452381Y-97452219D01*
X83452381Y-97452219D02*
X83309524Y-97404600D01*
X83309524Y-97404600D02*
X83214286Y-97309361D01*
X83214286Y-97309361D02*
X83166667Y-97214123D01*
X83166667Y-97214123D02*
X83119048Y-97023647D01*
X83119048Y-97023647D02*
X83119048Y-96880790D01*
X83119048Y-96880790D02*
X83166667Y-96690314D01*
X83166667Y-96690314D02*
X83214286Y-96595076D01*
X83214286Y-96595076D02*
X83309524Y-96499838D01*
X83309524Y-96499838D02*
X83452381Y-96452219D01*
X83452381Y-96452219D02*
X83547619Y-96452219D01*
X83547619Y-96452219D02*
X83690476Y-96499838D01*
X83690476Y-96499838D02*
X83738095Y-96547457D01*
D12*
X101666666Y-94454819D02*
X101666666Y-95169104D01*
X101666666Y-95169104D02*
X101619047Y-95311961D01*
X101619047Y-95311961D02*
X101523809Y-95407200D01*
X101523809Y-95407200D02*
X101380952Y-95454819D01*
X101380952Y-95454819D02*
X101285714Y-95454819D01*
X102047619Y-94454819D02*
X102666666Y-94454819D01*
X102666666Y-94454819D02*
X102333333Y-94835771D01*
X102333333Y-94835771D02*
X102476190Y-94835771D01*
X102476190Y-94835771D02*
X102571428Y-94883390D01*
X102571428Y-94883390D02*
X102619047Y-94931009D01*
X102619047Y-94931009D02*
X102666666Y-95026247D01*
X102666666Y-95026247D02*
X102666666Y-95264342D01*
X102666666Y-95264342D02*
X102619047Y-95359580D01*
X102619047Y-95359580D02*
X102571428Y-95407200D01*
X102571428Y-95407200D02*
X102476190Y-95454819D01*
X102476190Y-95454819D02*
X102190476Y-95454819D01*
X102190476Y-95454819D02*
X102095238Y-95407200D01*
X102095238Y-95407200D02*
X102047619Y-95359580D01*
D10*
X117238095Y-94499838D02*
X117142857Y-94452219D01*
X117142857Y-94452219D02*
X117000000Y-94452219D01*
X117000000Y-94452219D02*
X116857143Y-94499838D01*
X116857143Y-94499838D02*
X116761905Y-94595076D01*
X116761905Y-94595076D02*
X116714286Y-94690314D01*
X116714286Y-94690314D02*
X116666667Y-94880790D01*
X116666667Y-94880790D02*
X116666667Y-95023647D01*
X116666667Y-95023647D02*
X116714286Y-95214123D01*
X116714286Y-95214123D02*
X116761905Y-95309361D01*
X116761905Y-95309361D02*
X116857143Y-95404600D01*
X116857143Y-95404600D02*
X117000000Y-95452219D01*
X117000000Y-95452219D02*
X117095238Y-95452219D01*
X117095238Y-95452219D02*
X117238095Y-95404600D01*
X117238095Y-95404600D02*
X117285714Y-95356980D01*
X117285714Y-95356980D02*
X117285714Y-95023647D01*
X117285714Y-95023647D02*
X117095238Y-95023647D01*
X117714286Y-95452219D02*
X117714286Y-94452219D01*
X117714286Y-94452219D02*
X118285714Y-95452219D01*
X118285714Y-95452219D02*
X118285714Y-94452219D01*
X118761905Y-95452219D02*
X118761905Y-94452219D01*
X118761905Y-94452219D02*
X119000000Y-94452219D01*
X119000000Y-94452219D02*
X119142857Y-94499838D01*
X119142857Y-94499838D02*
X119238095Y-94595076D01*
X119238095Y-94595076D02*
X119285714Y-94690314D01*
X119285714Y-94690314D02*
X119333333Y-94880790D01*
X119333333Y-94880790D02*
X119333333Y-95023647D01*
X119333333Y-95023647D02*
X119285714Y-95214123D01*
X119285714Y-95214123D02*
X119238095Y-95309361D01*
X119238095Y-95309361D02*
X119142857Y-95404600D01*
X119142857Y-95404600D02*
X119000000Y-95452219D01*
X119000000Y-95452219D02*
X118761905Y-95452219D01*
D12*
X92733333Y-97859580D02*
X92685714Y-97907200D01*
X92685714Y-97907200D02*
X92542857Y-97954819D01*
X92542857Y-97954819D02*
X92447619Y-97954819D01*
X92447619Y-97954819D02*
X92304762Y-97907200D01*
X92304762Y-97907200D02*
X92209524Y-97811961D01*
X92209524Y-97811961D02*
X92161905Y-97716723D01*
X92161905Y-97716723D02*
X92114286Y-97526247D01*
X92114286Y-97526247D02*
X92114286Y-97383390D01*
X92114286Y-97383390D02*
X92161905Y-97192914D01*
X92161905Y-97192914D02*
X92209524Y-97097676D01*
X92209524Y-97097676D02*
X92304762Y-97002438D01*
X92304762Y-97002438D02*
X92447619Y-96954819D01*
X92447619Y-96954819D02*
X92542857Y-96954819D01*
X92542857Y-96954819D02*
X92685714Y-97002438D01*
X92685714Y-97002438D02*
X92733333Y-97050057D01*
X93114286Y-97050057D02*
X93161905Y-97002438D01*
X93161905Y-97002438D02*
X93257143Y-96954819D01*
X93257143Y-96954819D02*
X93495238Y-96954819D01*
X93495238Y-96954819D02*
X93590476Y-97002438D01*
X93590476Y-97002438D02*
X93638095Y-97050057D01*
X93638095Y-97050057D02*
X93685714Y-97145295D01*
X93685714Y-97145295D02*
X93685714Y-97240533D01*
X93685714Y-97240533D02*
X93638095Y-97383390D01*
X93638095Y-97383390D02*
X93066667Y-97954819D01*
X93066667Y-97954819D02*
X93685714Y-97954819D01*
X87833333Y-105859580D02*
X87785714Y-105907200D01*
X87785714Y-105907200D02*
X87642857Y-105954819D01*
X87642857Y-105954819D02*
X87547619Y-105954819D01*
X87547619Y-105954819D02*
X87404762Y-105907200D01*
X87404762Y-105907200D02*
X87309524Y-105811961D01*
X87309524Y-105811961D02*
X87261905Y-105716723D01*
X87261905Y-105716723D02*
X87214286Y-105526247D01*
X87214286Y-105526247D02*
X87214286Y-105383390D01*
X87214286Y-105383390D02*
X87261905Y-105192914D01*
X87261905Y-105192914D02*
X87309524Y-105097676D01*
X87309524Y-105097676D02*
X87404762Y-105002438D01*
X87404762Y-105002438D02*
X87547619Y-104954819D01*
X87547619Y-104954819D02*
X87642857Y-104954819D01*
X87642857Y-104954819D02*
X87785714Y-105002438D01*
X87785714Y-105002438D02*
X87833333Y-105050057D01*
X88166667Y-104954819D02*
X88785714Y-104954819D01*
X88785714Y-104954819D02*
X88452381Y-105335771D01*
X88452381Y-105335771D02*
X88595238Y-105335771D01*
X88595238Y-105335771D02*
X88690476Y-105383390D01*
X88690476Y-105383390D02*
X88738095Y-105431009D01*
X88738095Y-105431009D02*
X88785714Y-105526247D01*
X88785714Y-105526247D02*
X88785714Y-105764342D01*
X88785714Y-105764342D02*
X88738095Y-105859580D01*
X88738095Y-105859580D02*
X88690476Y-105907200D01*
X88690476Y-105907200D02*
X88595238Y-105954819D01*
X88595238Y-105954819D02*
X88309524Y-105954819D01*
X88309524Y-105954819D02*
X88214286Y-105907200D01*
X88214286Y-105907200D02*
X88166667Y-105859580D01*
X108083333Y-104689580D02*
X108035714Y-104737200D01*
X108035714Y-104737200D02*
X107892857Y-104784819D01*
X107892857Y-104784819D02*
X107797619Y-104784819D01*
X107797619Y-104784819D02*
X107654762Y-104737200D01*
X107654762Y-104737200D02*
X107559524Y-104641961D01*
X107559524Y-104641961D02*
X107511905Y-104546723D01*
X107511905Y-104546723D02*
X107464286Y-104356247D01*
X107464286Y-104356247D02*
X107464286Y-104213390D01*
X107464286Y-104213390D02*
X107511905Y-104022914D01*
X107511905Y-104022914D02*
X107559524Y-103927676D01*
X107559524Y-103927676D02*
X107654762Y-103832438D01*
X107654762Y-103832438D02*
X107797619Y-103784819D01*
X107797619Y-103784819D02*
X107892857Y-103784819D01*
X107892857Y-103784819D02*
X108035714Y-103832438D01*
X108035714Y-103832438D02*
X108083333Y-103880057D01*
X108940476Y-103784819D02*
X108750000Y-103784819D01*
X108750000Y-103784819D02*
X108654762Y-103832438D01*
X108654762Y-103832438D02*
X108607143Y-103880057D01*
X108607143Y-103880057D02*
X108511905Y-104022914D01*
X108511905Y-104022914D02*
X108464286Y-104213390D01*
X108464286Y-104213390D02*
X108464286Y-104594342D01*
X108464286Y-104594342D02*
X108511905Y-104689580D01*
X108511905Y-104689580D02*
X108559524Y-104737200D01*
X108559524Y-104737200D02*
X108654762Y-104784819D01*
X108654762Y-104784819D02*
X108845238Y-104784819D01*
X108845238Y-104784819D02*
X108940476Y-104737200D01*
X108940476Y-104737200D02*
X108988095Y-104689580D01*
X108988095Y-104689580D02*
X109035714Y-104594342D01*
X109035714Y-104594342D02*
X109035714Y-104356247D01*
X109035714Y-104356247D02*
X108988095Y-104261009D01*
X108988095Y-104261009D02*
X108940476Y-104213390D01*
X108940476Y-104213390D02*
X108845238Y-104165771D01*
X108845238Y-104165771D02*
X108654762Y-104165771D01*
X108654762Y-104165771D02*
X108559524Y-104213390D01*
X108559524Y-104213390D02*
X108511905Y-104261009D01*
X108511905Y-104261009D02*
X108464286Y-104356247D01*
X89238095Y-96204819D02*
X89238095Y-97014342D01*
X89238095Y-97014342D02*
X89285714Y-97109580D01*
X89285714Y-97109580D02*
X89333333Y-97157200D01*
X89333333Y-97157200D02*
X89428571Y-97204819D01*
X89428571Y-97204819D02*
X89619047Y-97204819D01*
X89619047Y-97204819D02*
X89714285Y-97157200D01*
X89714285Y-97157200D02*
X89761904Y-97109580D01*
X89761904Y-97109580D02*
X89809523Y-97014342D01*
X89809523Y-97014342D02*
X89809523Y-96204819D01*
X90238095Y-96300057D02*
X90285714Y-96252438D01*
X90285714Y-96252438D02*
X90380952Y-96204819D01*
X90380952Y-96204819D02*
X90619047Y-96204819D01*
X90619047Y-96204819D02*
X90714285Y-96252438D01*
X90714285Y-96252438D02*
X90761904Y-96300057D01*
X90761904Y-96300057D02*
X90809523Y-96395295D01*
X90809523Y-96395295D02*
X90809523Y-96490533D01*
X90809523Y-96490533D02*
X90761904Y-96633390D01*
X90761904Y-96633390D02*
X90190476Y-97204819D01*
X90190476Y-97204819D02*
X90809523Y-97204819D01*
X97238095Y-102954819D02*
X97238095Y-103764342D01*
X97238095Y-103764342D02*
X97285714Y-103859580D01*
X97285714Y-103859580D02*
X97333333Y-103907200D01*
X97333333Y-103907200D02*
X97428571Y-103954819D01*
X97428571Y-103954819D02*
X97619047Y-103954819D01*
X97619047Y-103954819D02*
X97714285Y-103907200D01*
X97714285Y-103907200D02*
X97761904Y-103859580D01*
X97761904Y-103859580D02*
X97809523Y-103764342D01*
X97809523Y-103764342D02*
X97809523Y-102954819D01*
X98809523Y-103954819D02*
X98238095Y-103954819D01*
X98523809Y-103954819D02*
X98523809Y-102954819D01*
X98523809Y-102954819D02*
X98428571Y-103097676D01*
X98428571Y-103097676D02*
X98333333Y-103192914D01*
X98333333Y-103192914D02*
X98238095Y-103240533D01*
X109238095Y-96204819D02*
X109238095Y-97014342D01*
X109238095Y-97014342D02*
X109285714Y-97109580D01*
X109285714Y-97109580D02*
X109333333Y-97157200D01*
X109333333Y-97157200D02*
X109428571Y-97204819D01*
X109428571Y-97204819D02*
X109619047Y-97204819D01*
X109619047Y-97204819D02*
X109714285Y-97157200D01*
X109714285Y-97157200D02*
X109761904Y-97109580D01*
X109761904Y-97109580D02*
X109809523Y-97014342D01*
X109809523Y-97014342D02*
X109809523Y-96204819D01*
X110190476Y-96204819D02*
X110809523Y-96204819D01*
X110809523Y-96204819D02*
X110476190Y-96585771D01*
X110476190Y-96585771D02*
X110619047Y-96585771D01*
X110619047Y-96585771D02*
X110714285Y-96633390D01*
X110714285Y-96633390D02*
X110761904Y-96681009D01*
X110761904Y-96681009D02*
X110809523Y-96776247D01*
X110809523Y-96776247D02*
X110809523Y-97014342D01*
X110809523Y-97014342D02*
X110761904Y-97109580D01*
X110761904Y-97109580D02*
X110714285Y-97157200D01*
X110714285Y-97157200D02*
X110619047Y-97204819D01*
X110619047Y-97204819D02*
X110333333Y-97204819D01*
X110333333Y-97204819D02*
X110238095Y-97157200D01*
X110238095Y-97157200D02*
X110190476Y-97109580D01*
X92666666Y-91454819D02*
X92666666Y-92169104D01*
X92666666Y-92169104D02*
X92619047Y-92311961D01*
X92619047Y-92311961D02*
X92523809Y-92407200D01*
X92523809Y-92407200D02*
X92380952Y-92454819D01*
X92380952Y-92454819D02*
X92285714Y-92454819D01*
X93666666Y-92454819D02*
X93095238Y-92454819D01*
X93380952Y-92454819D02*
X93380952Y-91454819D01*
X93380952Y-91454819D02*
X93285714Y-91597676D01*
X93285714Y-91597676D02*
X93190476Y-91692914D01*
X93190476Y-91692914D02*
X93095238Y-91740533D01*
X111583333Y-104859580D02*
X111535714Y-104907200D01*
X111535714Y-104907200D02*
X111392857Y-104954819D01*
X111392857Y-104954819D02*
X111297619Y-104954819D01*
X111297619Y-104954819D02*
X111154762Y-104907200D01*
X111154762Y-104907200D02*
X111059524Y-104811961D01*
X111059524Y-104811961D02*
X111011905Y-104716723D01*
X111011905Y-104716723D02*
X110964286Y-104526247D01*
X110964286Y-104526247D02*
X110964286Y-104383390D01*
X110964286Y-104383390D02*
X111011905Y-104192914D01*
X111011905Y-104192914D02*
X111059524Y-104097676D01*
X111059524Y-104097676D02*
X111154762Y-104002438D01*
X111154762Y-104002438D02*
X111297619Y-103954819D01*
X111297619Y-103954819D02*
X111392857Y-103954819D01*
X111392857Y-103954819D02*
X111535714Y-104002438D01*
X111535714Y-104002438D02*
X111583333Y-104050057D01*
X112440476Y-104288152D02*
X112440476Y-104954819D01*
X112202381Y-103907200D02*
X111964286Y-104621485D01*
X111964286Y-104621485D02*
X112583333Y-104621485D01*
X103833333Y-92454819D02*
X103500000Y-91978628D01*
X103261905Y-92454819D02*
X103261905Y-91454819D01*
X103261905Y-91454819D02*
X103642857Y-91454819D01*
X103642857Y-91454819D02*
X103738095Y-91502438D01*
X103738095Y-91502438D02*
X103785714Y-91550057D01*
X103785714Y-91550057D02*
X103833333Y-91645295D01*
X103833333Y-91645295D02*
X103833333Y-91788152D01*
X103833333Y-91788152D02*
X103785714Y-91883390D01*
X103785714Y-91883390D02*
X103738095Y-91931009D01*
X103738095Y-91931009D02*
X103642857Y-91978628D01*
X103642857Y-91978628D02*
X103261905Y-91978628D01*
X104785714Y-92454819D02*
X104214286Y-92454819D01*
X104500000Y-92454819D02*
X104500000Y-91454819D01*
X104500000Y-91454819D02*
X104404762Y-91597676D01*
X104404762Y-91597676D02*
X104309524Y-91692914D01*
X104309524Y-91692914D02*
X104214286Y-91740533D01*
X112833333Y-97859580D02*
X112785714Y-97907200D01*
X112785714Y-97907200D02*
X112642857Y-97954819D01*
X112642857Y-97954819D02*
X112547619Y-97954819D01*
X112547619Y-97954819D02*
X112404762Y-97907200D01*
X112404762Y-97907200D02*
X112309524Y-97811961D01*
X112309524Y-97811961D02*
X112261905Y-97716723D01*
X112261905Y-97716723D02*
X112214286Y-97526247D01*
X112214286Y-97526247D02*
X112214286Y-97383390D01*
X112214286Y-97383390D02*
X112261905Y-97192914D01*
X112261905Y-97192914D02*
X112309524Y-97097676D01*
X112309524Y-97097676D02*
X112404762Y-97002438D01*
X112404762Y-97002438D02*
X112547619Y-96954819D01*
X112547619Y-96954819D02*
X112642857Y-96954819D01*
X112642857Y-96954819D02*
X112785714Y-97002438D01*
X112785714Y-97002438D02*
X112833333Y-97050057D01*
X113738095Y-96954819D02*
X113261905Y-96954819D01*
X113261905Y-96954819D02*
X113214286Y-97431009D01*
X113214286Y-97431009D02*
X113261905Y-97383390D01*
X113261905Y-97383390D02*
X113357143Y-97335771D01*
X113357143Y-97335771D02*
X113595238Y-97335771D01*
X113595238Y-97335771D02*
X113690476Y-97383390D01*
X113690476Y-97383390D02*
X113738095Y-97431009D01*
X113738095Y-97431009D02*
X113785714Y-97526247D01*
X113785714Y-97526247D02*
X113785714Y-97764342D01*
X113785714Y-97764342D02*
X113738095Y-97859580D01*
X113738095Y-97859580D02*
X113690476Y-97907200D01*
X113690476Y-97907200D02*
X113595238Y-97954819D01*
X113595238Y-97954819D02*
X113357143Y-97954819D01*
X113357143Y-97954819D02*
X113261905Y-97907200D01*
X113261905Y-97907200D02*
X113214286Y-97859580D01*
D13*
%TO.C,1V8*%
X105500000Y-103000000D02*
G75*
G02*
X102500000Y-103000000I-1500000J0D01*
G01*
X102500000Y-103000000D02*
G75*
G02*
X105500000Y-103000000I1500000J0D01*
G01*
%TO.C,J2*%
X107890000Y-89285000D02*
X107890000Y-91785000D01*
X107890000Y-91785000D02*
X108940000Y-91785000D01*
X112940000Y-87315000D02*
X109060000Y-87315000D01*
X113060000Y-91785000D02*
X113060000Y-92775000D01*
X114110000Y-89285000D02*
X114110000Y-91785000D01*
X114110000Y-91785000D02*
X113060000Y-91785000D01*
%TO.C,R2*%
X106090000Y-95727064D02*
X106090000Y-94272936D01*
X107910000Y-95727064D02*
X107910000Y-94272936D01*
%TO.C,C1*%
X91496920Y-102990000D02*
X91778080Y-102990000D01*
X91496920Y-104010000D02*
X91778080Y-104010000D01*
%TO.C,VCC*%
X87500000Y-97000000D02*
G75*
G02*
X84500000Y-97000000I-1500000J0D01*
G01*
X84500000Y-97000000D02*
G75*
G02*
X87500000Y-97000000I1500000J0D01*
G01*
%TO.C,J3*%
X96130000Y-87870000D02*
X96130000Y-92500000D01*
X97100000Y-92500000D02*
X97100000Y-92910000D01*
X97100000Y-95010000D02*
X97100000Y-95450000D01*
X97820000Y-92500000D02*
X97820000Y-92910000D01*
X97820000Y-95010000D02*
X97820000Y-95450000D01*
X99640000Y-92500000D02*
X99640000Y-92910000D01*
X99640000Y-95010000D02*
X99640000Y-95390000D01*
X100360000Y-92500000D02*
X100360000Y-92910000D01*
X100360000Y-95010000D02*
X100360000Y-95390000D01*
X101330000Y-87870000D02*
X96130000Y-87870000D01*
X101330000Y-92500000D02*
X96130000Y-92500000D01*
X101330000Y-96500000D02*
X101330000Y-97610000D01*
X101330000Y-97610000D02*
X100000000Y-97610000D01*
D11*
X101330000Y-87870000D02*
X98730000Y-87870000D01*
X98730000Y-92500000D01*
X101330000Y-92500000D01*
X101330000Y-87870000D01*
G36*
X101330000Y-87870000D02*
G01*
X98730000Y-87870000D01*
X98730000Y-92500000D01*
X101330000Y-92500000D01*
X101330000Y-87870000D01*
G37*
D13*
%TO.C,GND*%
X116000000Y-95000000D02*
G75*
G02*
X113000000Y-95000000I-1500000J0D01*
G01*
X113000000Y-95000000D02*
G75*
G02*
X116000000Y-95000000I1500000J0D01*
G01*
%TO.C,C2*%
X92390000Y-100140580D02*
X92390000Y-99859420D01*
X93410000Y-100140580D02*
X93410000Y-99859420D01*
%TO.C,C3*%
X88140580Y-102990000D02*
X87859420Y-102990000D01*
X88140580Y-104010000D02*
X87859420Y-104010000D01*
%TO.C,C6*%
X108390580Y-102390000D02*
X108109420Y-102390000D01*
X108390580Y-103410000D02*
X108109420Y-103410000D01*
%TO.C,U2*%
X88400000Y-101600000D02*
X88400000Y-101350000D01*
X88400000Y-101600000D02*
X88650000Y-101600000D01*
X91600000Y-98400000D02*
X91350000Y-98400000D01*
X91600000Y-98400000D02*
X91600000Y-98650000D01*
X91600000Y-101600000D02*
X91350000Y-101600000D01*
X91600000Y-101600000D02*
X91600000Y-101350000D01*
X88400000Y-98400000D02*
X88160000Y-98070000D01*
X88640000Y-98070000D01*
X88400000Y-98400000D01*
G36*
X88400000Y-98400000D02*
G01*
X88160000Y-98070000D01*
X88640000Y-98070000D01*
X88400000Y-98400000D01*
G37*
%TO.C,U1*%
X99460000Y-103715000D02*
X99460000Y-102850000D01*
X99675000Y-102635000D02*
X100540000Y-102635000D01*
X100540000Y-102635000D02*
X100540000Y-103715000D01*
X100540000Y-103715000D02*
X99460000Y-103715000D01*
X99460000Y-102635000D02*
X98960000Y-102635000D01*
X99460000Y-102135000D01*
X99460000Y-102635000D01*
G36*
X99460000Y-102635000D02*
G01*
X98960000Y-102635000D01*
X99460000Y-102135000D01*
X99460000Y-102635000D01*
G37*
%TO.C,U3*%
X108400000Y-101600000D02*
X108400000Y-101350000D01*
X108400000Y-101600000D02*
X108650000Y-101600000D01*
X111600000Y-98400000D02*
X111350000Y-98400000D01*
X111600000Y-98400000D02*
X111600000Y-98650000D01*
X111600000Y-101600000D02*
X111350000Y-101600000D01*
X111600000Y-101600000D02*
X111600000Y-101350000D01*
X108400000Y-98400000D02*
X108160000Y-98070000D01*
X108640000Y-98070000D01*
X108400000Y-98400000D01*
G36*
X108400000Y-98400000D02*
G01*
X108160000Y-98070000D01*
X108640000Y-98070000D01*
X108400000Y-98400000D01*
G37*
%TO.C,J1*%
X85890000Y-89285000D02*
X85890000Y-91785000D01*
X85890000Y-91785000D02*
X86940000Y-91785000D01*
X90940000Y-87315000D02*
X87060000Y-87315000D01*
X91060000Y-91785000D02*
X91060000Y-92775000D01*
X92110000Y-89285000D02*
X92110000Y-91785000D01*
X92110000Y-91785000D02*
X91060000Y-91785000D01*
%TO.C,C4*%
X111609420Y-102390000D02*
X111890580Y-102390000D01*
X111609420Y-103410000D02*
X111890580Y-103410000D01*
%TO.C,R1*%
X103590000Y-95727064D02*
X103590000Y-94272936D01*
X105410000Y-95727064D02*
X105410000Y-94272936D01*
%TO.C,C5*%
X112390000Y-100040580D02*
X112390000Y-99759420D01*
X113410000Y-100040580D02*
X113410000Y-99759420D01*
%TD*%
M02*
