M48
; DRILL file {KiCad 9.0.7-9.0.7~ubuntu24.04.1} date 2026-03-08T15:16:29-0700
; FORMAT={-:-/ absolute / metric / decimal}
; #@! TF.CreationDate,2026-03-08T15:16:29-07:00
; #@! TF.GenerationSoftware,Kicad,Pcbnew,9.0.7-9.0.7~ubuntu24.04.1
; #@! TF.FileFunction,Plated,1,2,PTH
FMAT,2
METRIC
; #@! TA.AperFunction,Plated,PTH,ViaDrill
T1C0.300
; #@! TA.AperFunction,Plated,PTH,ComponentDrill
T2C1.000
%
G90
G05
T1
X87.5Y-104.5
X89.262Y-94.846
X92.5Y-104.5
X94.0Y-99.0
X94.325Y-99.825
X96.0Y-101.5
X101.0Y-103.399
X107.0Y-104.0
X107.5Y-98.5
X107.5Y-101.925
X109.0Y-95.5
X112.509Y-101.925
X113.0Y-104.0
X114.0Y-99.0
T2
X86.0Y-97.0
X97.46Y-93.96
X97.46Y-96.5
X100.0Y-93.96
X100.0Y-96.5
X104.0Y-103.0
X114.5Y-95.0
M30
