%TF.GenerationSoftware,KiCad,Pcbnew,9.0.7-9.0.7~ubuntu24.04.1*%
%TF.CreationDate,2026-03-08T15:27:07-07:00*%
%TF.ProjectId,fimur-electrical-v0-1,66696d75-722d-4656-9c65-637472696361,rev?*%
%TF.SameCoordinates,Original*%
%TF.FileFunction,Copper,L2,Bot*%
%TF.FilePolarity,Positive*%
%FSLAX46Y46*%
G04 Gerber Fmt 4.6, Leading zero omitted, Abs format (unit mm)*
G04 Created by KiCad (PCBNEW 9.0.7-9.0.7~ubuntu24.04.1) date 2026-03-08 15:27:07*
%MOMM*%
%LPD*%
G01*
G04 APERTURE LIST*
%TA.AperFunction,ComponentPad*%
%ADD10C,2.000000*%
%TD*%
%TA.AperFunction,ComponentPad*%
%ADD11R,1.700000X1.700000*%
%TD*%
%TA.AperFunction,ComponentPad*%
%ADD12C,1.700000*%
%TD*%
%TA.AperFunction,ViaPad*%
%ADD13C,0.600000*%
%TD*%
%TA.AperFunction,Conductor*%
%ADD14C,0.200000*%
%TD*%
G04 APERTURE END LIST*
D10*
%TO.P,1V8,1*%
%TO.N,Net-(J3-Pin_2)*%
X104000000Y-103000000D03*
%TD*%
%TO.P,VCC,1*%
%TO.N,Net-(J1-Pin_2)*%
X86000000Y-97000000D03*
%TD*%
D11*
%TO.P,J3,1,Pin_1*%
%TO.N,Net-(J3-Pin_1)*%
X100000000Y-96500000D03*
D12*
%TO.P,J3,2,Pin_2*%
%TO.N,Net-(J3-Pin_2)*%
X100000000Y-93960000D03*
%TO.P,J3,3,Pin_3*%
%TO.N,Net-(J3-Pin_3)*%
X97460000Y-96500000D03*
%TO.P,J3,4,Pin_4*%
X97460000Y-93960000D03*
%TD*%
D10*
%TO.P,GND,1*%
%TO.N,GND*%
X114500000Y-95000000D03*
%TD*%
D13*
%TO.N,Net-(J1-Pin_3)*%
X107500000Y-98500000D03*
X109000000Y-95500000D03*
%TO.N,Net-(J3-Pin_2)*%
X94325000Y-99825000D03*
X96000000Y-101500000D03*
%TO.N,Net-(J3-Pin_3)*%
X112509468Y-101925000D03*
X107500000Y-101925000D03*
%TO.N,GND*%
X92500000Y-104500000D03*
X89261502Y-94845872D03*
X114000000Y-99000000D03*
X94000000Y-99000000D03*
X107000000Y-104000000D03*
X87500000Y-104500000D03*
X101000000Y-103399000D03*
X113000000Y-104000000D03*
%TD*%
D14*
%TO.N,Net-(J1-Pin_3)*%
X109000000Y-97000000D02*
X107500000Y-98500000D01*
X109000000Y-95500000D02*
X109000000Y-97000000D01*
%TO.N,Net-(J3-Pin_2)*%
X96000000Y-101500000D02*
X94500000Y-100000000D01*
%TO.N,Net-(J3-Pin_3)*%
X109350000Y-102000000D02*
X109425000Y-101925000D01*
X107575000Y-102000000D02*
X109350000Y-102000000D01*
X109425000Y-101925000D02*
X112509468Y-101925000D01*
X107500000Y-101925000D02*
X107575000Y-102000000D01*
%TD*%
%TA.AperFunction,Conductor*%
%TO.N,GND*%
G36*
X114522776Y-90019685D02*
G01*
X114534255Y-90028026D01*
X119954522Y-94462791D01*
X119993942Y-94520476D01*
X120000000Y-94558760D01*
X120000000Y-105441239D01*
X119980315Y-105508278D01*
X119954521Y-105537210D01*
X114534258Y-109971971D01*
X114469908Y-109999188D01*
X114455737Y-110000000D01*
X85544263Y-110000000D01*
X85477224Y-109980315D01*
X85465742Y-109971971D01*
X80045479Y-105537210D01*
X80006058Y-105479523D01*
X80000000Y-105441239D01*
X80000000Y-102881902D01*
X102499500Y-102881902D01*
X102499500Y-103118097D01*
X102536446Y-103351368D01*
X102609433Y-103575996D01*
X102716657Y-103786433D01*
X102855483Y-103977510D01*
X103022490Y-104144517D01*
X103213567Y-104283343D01*
X103312991Y-104334002D01*
X103424003Y-104390566D01*
X103424005Y-104390566D01*
X103424008Y-104390568D01*
X103544412Y-104429689D01*
X103648631Y-104463553D01*
X103881903Y-104500500D01*
X103881908Y-104500500D01*
X104118097Y-104500500D01*
X104351368Y-104463553D01*
X104575992Y-104390568D01*
X104786433Y-104283343D01*
X104977510Y-104144517D01*
X105144517Y-103977510D01*
X105283343Y-103786433D01*
X105390568Y-103575992D01*
X105463553Y-103351368D01*
X105500500Y-103118097D01*
X105500500Y-102881902D01*
X105463553Y-102648631D01*
X105390566Y-102424003D01*
X105329512Y-102304179D01*
X105283343Y-102213567D01*
X105144517Y-102022490D01*
X104977510Y-101855483D01*
X104964668Y-101846153D01*
X106699500Y-101846153D01*
X106699500Y-102003846D01*
X106730261Y-102158489D01*
X106730264Y-102158501D01*
X106790602Y-102304172D01*
X106790609Y-102304185D01*
X106878210Y-102435288D01*
X106878213Y-102435292D01*
X106989707Y-102546786D01*
X106989711Y-102546789D01*
X107120814Y-102634390D01*
X107120827Y-102634397D01*
X107266498Y-102694735D01*
X107266503Y-102694737D01*
X107421153Y-102725499D01*
X107421156Y-102725500D01*
X107421158Y-102725500D01*
X107578844Y-102725500D01*
X107578845Y-102725499D01*
X107733497Y-102694737D01*
X107879179Y-102634394D01*
X107887928Y-102628547D01*
X107898628Y-102621399D01*
X107965305Y-102600520D01*
X107967520Y-102600500D01*
X109263331Y-102600500D01*
X109263347Y-102600501D01*
X109270943Y-102600501D01*
X109429054Y-102600501D01*
X109429057Y-102600501D01*
X109581785Y-102559577D01*
X109612028Y-102542114D01*
X109674032Y-102525500D01*
X111929702Y-102525500D01*
X111996741Y-102545185D01*
X111998593Y-102546398D01*
X112130282Y-102634390D01*
X112130295Y-102634397D01*
X112275966Y-102694735D01*
X112275971Y-102694737D01*
X112430621Y-102725499D01*
X112430624Y-102725500D01*
X112430626Y-102725500D01*
X112588312Y-102725500D01*
X112588313Y-102725499D01*
X112742965Y-102694737D01*
X112888647Y-102634394D01*
X113019757Y-102546789D01*
X113131257Y-102435289D01*
X113218862Y-102304179D01*
X113279205Y-102158497D01*
X113309968Y-102003842D01*
X113309968Y-101846158D01*
X113309968Y-101846155D01*
X113309967Y-101846153D01*
X113287557Y-101733491D01*
X113279205Y-101691503D01*
X113245211Y-101609433D01*
X113218865Y-101545827D01*
X113218858Y-101545814D01*
X113131257Y-101414711D01*
X113131254Y-101414707D01*
X113019760Y-101303213D01*
X113019756Y-101303210D01*
X112888653Y-101215609D01*
X112888640Y-101215602D01*
X112742969Y-101155264D01*
X112742957Y-101155261D01*
X112588313Y-101124500D01*
X112588310Y-101124500D01*
X112430626Y-101124500D01*
X112430623Y-101124500D01*
X112275978Y-101155261D01*
X112275966Y-101155264D01*
X112130295Y-101215602D01*
X112130282Y-101215609D01*
X111998593Y-101303602D01*
X111931915Y-101324480D01*
X111929702Y-101324500D01*
X109511669Y-101324500D01*
X109511653Y-101324499D01*
X109504057Y-101324499D01*
X109345943Y-101324499D01*
X109193215Y-101365423D01*
X109193213Y-101365423D01*
X109193213Y-101365424D01*
X109162967Y-101382887D01*
X109100966Y-101399500D01*
X108157940Y-101399500D01*
X108090901Y-101379815D01*
X108070263Y-101363185D01*
X108010289Y-101303211D01*
X108010288Y-101303210D01*
X108010287Y-101303209D01*
X107879185Y-101215609D01*
X107879172Y-101215602D01*
X107733501Y-101155264D01*
X107733489Y-101155261D01*
X107578845Y-101124500D01*
X107578842Y-101124500D01*
X107421158Y-101124500D01*
X107421155Y-101124500D01*
X107266510Y-101155261D01*
X107266498Y-101155264D01*
X107120827Y-101215602D01*
X107120814Y-101215609D01*
X106989711Y-101303210D01*
X106989707Y-101303213D01*
X106878213Y-101414707D01*
X106878210Y-101414711D01*
X106790609Y-101545814D01*
X106790602Y-101545827D01*
X106730264Y-101691498D01*
X106730261Y-101691510D01*
X106699500Y-101846153D01*
X104964668Y-101846153D01*
X104786433Y-101716657D01*
X104575996Y-101609433D01*
X104351368Y-101536446D01*
X104118097Y-101499500D01*
X104118092Y-101499500D01*
X103881908Y-101499500D01*
X103881903Y-101499500D01*
X103648631Y-101536446D01*
X103424003Y-101609433D01*
X103213566Y-101716657D01*
X103190383Y-101733501D01*
X103022490Y-101855483D01*
X103022488Y-101855485D01*
X103022487Y-101855485D01*
X102855485Y-102022487D01*
X102855485Y-102022488D01*
X102855483Y-102022490D01*
X102795862Y-102104550D01*
X102716657Y-102213566D01*
X102609433Y-102424003D01*
X102536446Y-102648631D01*
X102499500Y-102881902D01*
X80000000Y-102881902D01*
X80000000Y-99746153D01*
X93524500Y-99746153D01*
X93524500Y-99903846D01*
X93555261Y-100058489D01*
X93555264Y-100058501D01*
X93615602Y-100204172D01*
X93615609Y-100204185D01*
X93703210Y-100335288D01*
X93703213Y-100335292D01*
X93814707Y-100446786D01*
X93814711Y-100446789D01*
X93945814Y-100534390D01*
X93945827Y-100534397D01*
X94091498Y-100594735D01*
X94091503Y-100594737D01*
X94156147Y-100607595D01*
X94246849Y-100625638D01*
X94308760Y-100658023D01*
X94310339Y-100659574D01*
X95165425Y-101514660D01*
X95198910Y-101575983D01*
X95199361Y-101578149D01*
X95230261Y-101733491D01*
X95230264Y-101733501D01*
X95290602Y-101879172D01*
X95290609Y-101879185D01*
X95378210Y-102010288D01*
X95378213Y-102010292D01*
X95489707Y-102121786D01*
X95489711Y-102121789D01*
X95620814Y-102209390D01*
X95620827Y-102209397D01*
X95766498Y-102269735D01*
X95766503Y-102269737D01*
X95921153Y-102300499D01*
X95921156Y-102300500D01*
X95921158Y-102300500D01*
X96078844Y-102300500D01*
X96078845Y-102300499D01*
X96233497Y-102269737D01*
X96346166Y-102223067D01*
X96379172Y-102209397D01*
X96379172Y-102209396D01*
X96379179Y-102209394D01*
X96510289Y-102121789D01*
X96621789Y-102010289D01*
X96709394Y-101879179D01*
X96769737Y-101733497D01*
X96800500Y-101578842D01*
X96800500Y-101421158D01*
X96800500Y-101421155D01*
X96800499Y-101421153D01*
X96796192Y-101399500D01*
X96769737Y-101266503D01*
X96748655Y-101215606D01*
X96709397Y-101120827D01*
X96709390Y-101120814D01*
X96621789Y-100989711D01*
X96621786Y-100989707D01*
X96510292Y-100878213D01*
X96510288Y-100878210D01*
X96379185Y-100790609D01*
X96379172Y-100790602D01*
X96233501Y-100730264D01*
X96233491Y-100730261D01*
X96078149Y-100699361D01*
X96016238Y-100666976D01*
X96014660Y-100665425D01*
X95159574Y-99810339D01*
X95126089Y-99749016D01*
X95125638Y-99746849D01*
X95094738Y-99591510D01*
X95094737Y-99591503D01*
X95094735Y-99591498D01*
X95034397Y-99445827D01*
X95034390Y-99445814D01*
X94946789Y-99314711D01*
X94946786Y-99314707D01*
X94835292Y-99203213D01*
X94835288Y-99203210D01*
X94704185Y-99115609D01*
X94704172Y-99115602D01*
X94558501Y-99055264D01*
X94558489Y-99055261D01*
X94403845Y-99024500D01*
X94403842Y-99024500D01*
X94246158Y-99024500D01*
X94246155Y-99024500D01*
X94091510Y-99055261D01*
X94091498Y-99055264D01*
X93945827Y-99115602D01*
X93945814Y-99115609D01*
X93814711Y-99203210D01*
X93814707Y-99203213D01*
X93703213Y-99314707D01*
X93703210Y-99314711D01*
X93615609Y-99445814D01*
X93615602Y-99445827D01*
X93555264Y-99591498D01*
X93555261Y-99591510D01*
X93524500Y-99746153D01*
X80000000Y-99746153D01*
X80000000Y-96881902D01*
X84499500Y-96881902D01*
X84499500Y-97118097D01*
X84536446Y-97351368D01*
X84609433Y-97575996D01*
X84688036Y-97730261D01*
X84716657Y-97786433D01*
X84855483Y-97977510D01*
X85022490Y-98144517D01*
X85213567Y-98283343D01*
X85255249Y-98304581D01*
X85424003Y-98390566D01*
X85424005Y-98390566D01*
X85424008Y-98390568D01*
X85518139Y-98421153D01*
X85648631Y-98463553D01*
X85881903Y-98500500D01*
X85881908Y-98500500D01*
X86118097Y-98500500D01*
X86351368Y-98463553D01*
X86481861Y-98421153D01*
X106699500Y-98421153D01*
X106699500Y-98578846D01*
X106730261Y-98733489D01*
X106730264Y-98733501D01*
X106790602Y-98879172D01*
X106790609Y-98879185D01*
X106878210Y-99010288D01*
X106878213Y-99010292D01*
X106989707Y-99121786D01*
X106989711Y-99121789D01*
X107120814Y-99209390D01*
X107120827Y-99209397D01*
X107266498Y-99269735D01*
X107266503Y-99269737D01*
X107421153Y-99300499D01*
X107421156Y-99300500D01*
X107421158Y-99300500D01*
X107578844Y-99300500D01*
X107578845Y-99300499D01*
X107733497Y-99269737D01*
X107879179Y-99209394D01*
X108010289Y-99121789D01*
X108121789Y-99010289D01*
X108209394Y-98879179D01*
X108269737Y-98733497D01*
X108289113Y-98636085D01*
X108300638Y-98578150D01*
X108333023Y-98516239D01*
X108334520Y-98514714D01*
X109358506Y-97490727D01*
X109358511Y-97490724D01*
X109368714Y-97480520D01*
X109368716Y-97480520D01*
X109480520Y-97368716D01*
X109559577Y-97231784D01*
X109600500Y-97079057D01*
X109600500Y-96079765D01*
X109620185Y-96012726D01*
X109621398Y-96010874D01*
X109709390Y-95879185D01*
X109709390Y-95879184D01*
X109709394Y-95879179D01*
X109717424Y-95859794D01*
X109745430Y-95792179D01*
X109769737Y-95733497D01*
X109800500Y-95578842D01*
X109800500Y-95421158D01*
X109800500Y-95421155D01*
X109800499Y-95421153D01*
X109796311Y-95400099D01*
X109769737Y-95266503D01*
X109762256Y-95248443D01*
X109709397Y-95120827D01*
X109709390Y-95120814D01*
X109621789Y-94989711D01*
X109621786Y-94989707D01*
X109514026Y-94881947D01*
X113000000Y-94881947D01*
X113000000Y-95118052D01*
X113036934Y-95351247D01*
X113109897Y-95575802D01*
X113217087Y-95786174D01*
X113277338Y-95869104D01*
X113277340Y-95869105D01*
X114017037Y-95129408D01*
X114034075Y-95192993D01*
X114099901Y-95307007D01*
X114192993Y-95400099D01*
X114307007Y-95465925D01*
X114370590Y-95482962D01*
X113630893Y-96222658D01*
X113713828Y-96282914D01*
X113924197Y-96390102D01*
X114148752Y-96463065D01*
X114148751Y-96463065D01*
X114381948Y-96500000D01*
X114618052Y-96500000D01*
X114851247Y-96463065D01*
X115075802Y-96390102D01*
X115286163Y-96282918D01*
X115286169Y-96282914D01*
X115369104Y-96222658D01*
X115369105Y-96222658D01*
X114629408Y-95482962D01*
X114692993Y-95465925D01*
X114807007Y-95400099D01*
X114900099Y-95307007D01*
X114965925Y-95192993D01*
X114982962Y-95129409D01*
X115722658Y-95869105D01*
X115722658Y-95869104D01*
X115782914Y-95786169D01*
X115782918Y-95786163D01*
X115890102Y-95575802D01*
X115963065Y-95351247D01*
X116000000Y-95118052D01*
X116000000Y-94881947D01*
X115963065Y-94648752D01*
X115890102Y-94424197D01*
X115782914Y-94213828D01*
X115722658Y-94130894D01*
X115722658Y-94130893D01*
X114982962Y-94870590D01*
X114965925Y-94807007D01*
X114900099Y-94692993D01*
X114807007Y-94599901D01*
X114692993Y-94534075D01*
X114629409Y-94517037D01*
X115369105Y-93777340D01*
X115369104Y-93777338D01*
X115286174Y-93717087D01*
X115075802Y-93609897D01*
X114851247Y-93536934D01*
X114851248Y-93536934D01*
X114618052Y-93500000D01*
X114381948Y-93500000D01*
X114148752Y-93536934D01*
X113924197Y-93609897D01*
X113713830Y-93717084D01*
X113630894Y-93777340D01*
X114370591Y-94517037D01*
X114307007Y-94534075D01*
X114192993Y-94599901D01*
X114099901Y-94692993D01*
X114034075Y-94807007D01*
X114017037Y-94870591D01*
X113277340Y-94130894D01*
X113217084Y-94213830D01*
X113109897Y-94424197D01*
X113036934Y-94648752D01*
X113000000Y-94881947D01*
X109514026Y-94881947D01*
X109510292Y-94878213D01*
X109510288Y-94878210D01*
X109379185Y-94790609D01*
X109379172Y-94790602D01*
X109233501Y-94730264D01*
X109233489Y-94730261D01*
X109078845Y-94699500D01*
X109078842Y-94699500D01*
X108921158Y-94699500D01*
X108921155Y-94699500D01*
X108766510Y-94730261D01*
X108766498Y-94730264D01*
X108620827Y-94790602D01*
X108620814Y-94790609D01*
X108489711Y-94878210D01*
X108489707Y-94878213D01*
X108378213Y-94989707D01*
X108378210Y-94989711D01*
X108290609Y-95120814D01*
X108290602Y-95120827D01*
X108230264Y-95266498D01*
X108230261Y-95266510D01*
X108199500Y-95421153D01*
X108199500Y-95578846D01*
X108230261Y-95733489D01*
X108230264Y-95733501D01*
X108290602Y-95879172D01*
X108290609Y-95879185D01*
X108378602Y-96010874D01*
X108399480Y-96077551D01*
X108399500Y-96079765D01*
X108399500Y-96699903D01*
X108379815Y-96766942D01*
X108363181Y-96787584D01*
X107485339Y-97665425D01*
X107424016Y-97698910D01*
X107421850Y-97699361D01*
X107266508Y-97730261D01*
X107266498Y-97730264D01*
X107120827Y-97790602D01*
X107120814Y-97790609D01*
X106989711Y-97878210D01*
X106989707Y-97878213D01*
X106878213Y-97989707D01*
X106878210Y-97989711D01*
X106790609Y-98120814D01*
X106790602Y-98120827D01*
X106730264Y-98266498D01*
X106730261Y-98266510D01*
X106699500Y-98421153D01*
X86481861Y-98421153D01*
X86575992Y-98390568D01*
X86786433Y-98283343D01*
X86977510Y-98144517D01*
X87144517Y-97977510D01*
X87283343Y-97786433D01*
X87390568Y-97575992D01*
X87463553Y-97351368D01*
X87500500Y-97118097D01*
X87500500Y-96881902D01*
X87463553Y-96648631D01*
X87390566Y-96424003D01*
X87283342Y-96213566D01*
X87144517Y-96022490D01*
X86977510Y-95855483D01*
X86786433Y-95716657D01*
X86575996Y-95609433D01*
X86351368Y-95536446D01*
X86118097Y-95499500D01*
X86118092Y-95499500D01*
X85881908Y-95499500D01*
X85881903Y-95499500D01*
X85648631Y-95536446D01*
X85424003Y-95609433D01*
X85213566Y-95716657D01*
X85190383Y-95733501D01*
X85022490Y-95855483D01*
X85022488Y-95855485D01*
X85022487Y-95855485D01*
X84855485Y-96022487D01*
X84855485Y-96022488D01*
X84855483Y-96022490D01*
X84815479Y-96077551D01*
X84716657Y-96213566D01*
X84609433Y-96424003D01*
X84536446Y-96648631D01*
X84499500Y-96881902D01*
X80000000Y-96881902D01*
X80000000Y-94558760D01*
X80019685Y-94491721D01*
X80045476Y-94462792D01*
X80789906Y-93853713D01*
X96109500Y-93853713D01*
X96109500Y-94066286D01*
X96132868Y-94213830D01*
X96142754Y-94276243D01*
X96203367Y-94462791D01*
X96208444Y-94478414D01*
X96304951Y-94667820D01*
X96429890Y-94839786D01*
X96580213Y-94990109D01*
X96752182Y-95115050D01*
X96760946Y-95119516D01*
X96811742Y-95167491D01*
X96828536Y-95235312D01*
X96805998Y-95301447D01*
X96760946Y-95340484D01*
X96752182Y-95344949D01*
X96580213Y-95469890D01*
X96429890Y-95620213D01*
X96304951Y-95792179D01*
X96208444Y-95981585D01*
X96142753Y-96183760D01*
X96109500Y-96393713D01*
X96109500Y-96606286D01*
X96142753Y-96816239D01*
X96208444Y-97018414D01*
X96304951Y-97207820D01*
X96429890Y-97379786D01*
X96580213Y-97530109D01*
X96752179Y-97655048D01*
X96752181Y-97655049D01*
X96752184Y-97655051D01*
X96941588Y-97751557D01*
X97143757Y-97817246D01*
X97353713Y-97850500D01*
X97353714Y-97850500D01*
X97566286Y-97850500D01*
X97566287Y-97850500D01*
X97776243Y-97817246D01*
X97978412Y-97751557D01*
X98167816Y-97655051D01*
X98339792Y-97530104D01*
X98453329Y-97416566D01*
X98514648Y-97383084D01*
X98584340Y-97388068D01*
X98640274Y-97429939D01*
X98657189Y-97460917D01*
X98706202Y-97592328D01*
X98706206Y-97592335D01*
X98792452Y-97707544D01*
X98792455Y-97707547D01*
X98907664Y-97793793D01*
X98907671Y-97793797D01*
X99042517Y-97844091D01*
X99042516Y-97844091D01*
X99049444Y-97844835D01*
X99102127Y-97850500D01*
X100897872Y-97850499D01*
X100957483Y-97844091D01*
X101092331Y-97793796D01*
X101207546Y-97707546D01*
X101293796Y-97592331D01*
X101344091Y-97457483D01*
X101350500Y-97397873D01*
X101350499Y-95602128D01*
X101344091Y-95542517D01*
X101342810Y-95539083D01*
X101293797Y-95407671D01*
X101293793Y-95407664D01*
X101207547Y-95292455D01*
X101207544Y-95292452D01*
X101092335Y-95206206D01*
X101092328Y-95206202D01*
X100960917Y-95157189D01*
X100904983Y-95115318D01*
X100880566Y-95049853D01*
X100895418Y-94981580D01*
X100916563Y-94953332D01*
X101030104Y-94839792D01*
X101065840Y-94790606D01*
X101155048Y-94667820D01*
X101155047Y-94667820D01*
X101155051Y-94667816D01*
X101251557Y-94478412D01*
X101317246Y-94276243D01*
X101350500Y-94066287D01*
X101350500Y-93853713D01*
X101317246Y-93643757D01*
X101251557Y-93441588D01*
X101155051Y-93252184D01*
X101155049Y-93252181D01*
X101155048Y-93252179D01*
X101030109Y-93080213D01*
X100879786Y-92929890D01*
X100707820Y-92804951D01*
X100518414Y-92708444D01*
X100518413Y-92708443D01*
X100518412Y-92708443D01*
X100316243Y-92642754D01*
X100316241Y-92642753D01*
X100316240Y-92642753D01*
X100154957Y-92617208D01*
X100106287Y-92609500D01*
X99893713Y-92609500D01*
X99845042Y-92617208D01*
X99683760Y-92642753D01*
X99481585Y-92708444D01*
X99292179Y-92804951D01*
X99120213Y-92929890D01*
X98969890Y-93080213D01*
X98844949Y-93252182D01*
X98840484Y-93260946D01*
X98792509Y-93311742D01*
X98724688Y-93328536D01*
X98658553Y-93305998D01*
X98619516Y-93260946D01*
X98615050Y-93252182D01*
X98490109Y-93080213D01*
X98339786Y-92929890D01*
X98167820Y-92804951D01*
X97978414Y-92708444D01*
X97978413Y-92708443D01*
X97978412Y-92708443D01*
X97776243Y-92642754D01*
X97776241Y-92642753D01*
X97776240Y-92642753D01*
X97614957Y-92617208D01*
X97566287Y-92609500D01*
X97353713Y-92609500D01*
X97305042Y-92617208D01*
X97143760Y-92642753D01*
X96941585Y-92708444D01*
X96752179Y-92804951D01*
X96580213Y-92929890D01*
X96429890Y-93080213D01*
X96304951Y-93252179D01*
X96208444Y-93441585D01*
X96142753Y-93643760D01*
X96109500Y-93853713D01*
X80789906Y-93853713D01*
X85465742Y-90028028D01*
X85530092Y-90000812D01*
X85544263Y-90000000D01*
X114455737Y-90000000D01*
X114522776Y-90019685D01*
G37*
%TD.AperFunction*%
%TD*%
M02*
